<?xml version="1.0" encoding="UTF-8" standalone="no"?>
<!DOCTYPE svg PUBLIC "-//W3C//DTD SVG 1.1//EN"
 "http://www.w3.org/Graphics/SVG/1.1/DTD/svg11.dtd">
<!-- Generated by graphviz version 2.38.0 (20140413.2041)
 -->
<!-- Title: dependency&#45;cruiser output Pages: 1 -->
<svg width="715pt" height="964pt"
 viewBox="0.00 0.00 715.00 964.00" xmlns="http://www.w3.org/2000/svg" xmlns:xlink="http://www.w3.org/1999/xlink">
<g id="graph0" class="graph" transform="scale(1 1) rotate(0) translate(4 960)">
<title>dependency&#45;cruiser output</title>
<polygon fill="white" stroke="none" points="-4,4 -4,-960 711,-960 711,4 -4,4"/>
<g id="clust1" class="cluster"><title>cluster_constants</title>
<path fill="#ffffff" stroke="black" stroke-width="2" d="M305.5,-8C305.5,-8 358.5,-8 358.5,-8 364.5,-8 370.5,-14 370.5,-20 370.5,-20 370.5,-48 370.5,-48 370.5,-54 364.5,-60 358.5,-60 358.5,-60 305.5,-60 305.5,-60 299.5,-60 293.5,-54 293.5,-48 293.5,-48 293.5,-20 293.5,-20 293.5,-14 299.5,-8 305.5,-8"/>
<text text-anchor="middle" x="332" y="-48.8" font-family="Helvetica,sans-Serif" font-weight="bold" font-size="9.00">constants</text>
</g>
<g id="clust2" class="cluster"><title>cluster_src</title>
<path fill="#ffffff" stroke="black" stroke-width="2" d="M20,-68C20,-68 687,-68 687,-68 693,-68 699,-74 699,-80 699,-80 699,-936 699,-936 699,-942 693,-948 687,-948 687,-948 20,-948 20,-948 14,-948 8,-942 8,-936 8,-936 8,-80 8,-80 8,-74 14,-68 20,-68"/>
<text text-anchor="middle" x="353.5" y="-936.8" font-family="Helvetica,sans-Serif" font-weight="bold" font-size="9.00">src</text>
</g>
<g id="clust3" class="cluster"><title>cluster_src/client</title>
<path fill="#ffffff" stroke="black" stroke-width="2" d="M28,-136C28,-136 679,-136 679,-136 685,-136 691,-142 691,-148 691,-148 691,-910 691,-910 691,-916 685,-922 679,-922 679,-922 28,-922 28,-922 22,-922 16,-916 16,-910 16,-910 16,-148 16,-148 16,-142 22,-136 28,-136"/>
<text text-anchor="middle" x="353.5" y="-910.8" font-family="Helvetica,sans-Serif" font-weight="bold" font-size="9.00">client</text>
</g>
<g id="clust4" class="cluster"><title>cluster_src/client/components</title>
<path fill="#ffffff" stroke="black" stroke-width="2" d="M308,-688C308,-688 487,-688 487,-688 493,-688 499,-694 499,-700 499,-700 499,-788 499,-788 499,-794 493,-800 487,-800 487,-800 308,-800 308,-800 302,-800 296,-794 296,-788 296,-788 296,-700 296,-700 296,-694 302,-688 308,-688"/>
<text text-anchor="middle" x="397.5" y="-788.8" font-family="Helvetica,sans-Serif" font-weight="bold" font-size="9.00">components</text>
</g>
<g id="clust5" class="cluster"><title>cluster_src/client/containers</title>
<path fill="#ffffff" stroke="black" stroke-width="2" d="M106,-718C106,-718 219,-718 219,-718 225,-718 231,-724 231,-730 231,-730 231,-758 231,-758 231,-764 225,-770 219,-770 219,-770 106,-770 106,-770 100,-770 94,-764 94,-758 94,-758 94,-730 94,-730 94,-724 100,-718 106,-718"/>
<text text-anchor="middle" x="162.5" y="-758.8" font-family="Helvetica,sans-Serif" font-weight="bold" font-size="9.00">containers</text>
</g>
<g id="clust6" class="cluster"><title>cluster_src/client/css</title>
<path fill="#ffffff" stroke="black" stroke-width="2" d="M267,-144C267,-144 397,-144 397,-144 403,-144 409,-150 409,-156 409,-156 409,-668 409,-668 409,-674 403,-680 397,-680 397,-680 267,-680 267,-680 261,-680 255,-674 255,-668 255,-668 255,-156 255,-156 255,-150 261,-144 267,-144"/>
<text text-anchor="middle" x="332" y="-668.8" font-family="Helvetica,sans-Serif" font-weight="bold" font-size="9.00">css</text>
</g>
<g id="clust7" class="cluster"><title>cluster_src/client/css/fontawesome&#45;free&#45;5.7.2&#45;web</title>
<path fill="#ffffff" stroke="black" stroke-width="2" d="M275,-178C275,-178 389,-178 389,-178 395,-178 401,-184 401,-190 401,-190 401,-642 401,-642 401,-648 395,-654 389,-654 389,-654 275,-654 275,-654 269,-654 263,-648 263,-642 263,-642 263,-190 263,-190 263,-184 269,-178 275,-178"/>
<text text-anchor="middle" x="332" y="-642.8" font-family="Helvetica,sans-Serif" font-weight="bold" font-size="9.00">fontawesome&#45;free&#45;5.7.2&#45;web</text>
</g>
<g id="clust8" class="cluster"><title>cluster_src/client/css/fontawesome&#45;free&#45;5.7.2&#45;web/css</title>
<path fill="#ffffff" stroke="black" stroke-width="2" d="M309,-576C309,-576 355,-576 355,-576 361,-576 367,-582 367,-588 367,-588 367,-616 367,-616 367,-622 361,-628 355,-628 355,-628 309,-628 309,-628 303,-628 297,-622 297,-616 297,-616 297,-588 297,-588 297,-582 303,-576 309,-576"/>
<text text-anchor="middle" x="332" y="-616.8" font-family="Helvetica,sans-Serif" font-weight="bold" font-size="9.00">css</text>
</g>
<g id="clust9" class="cluster"><title>cluster_src/client/css/fontawesome&#45;free&#45;5.7.2&#45;web/js</title>
<path fill="#ffffff" stroke="black" stroke-width="2" d="M287,-186C287,-186 377,-186 377,-186 383,-186 389,-192 389,-198 389,-198 389,-556 389,-556 389,-562 383,-568 377,-568 377,-568 287,-568 287,-568 281,-568 275,-562 275,-556 275,-556 275,-198 275,-198 275,-192 281,-186 287,-186"/>
<text text-anchor="middle" x="332" y="-556.8" font-family="Helvetica,sans-Serif" font-weight="bold" font-size="9.00">js</text>
</g>
<g id="clust10" class="cluster"><title>cluster_src/client/store</title>
<path fill="#ffffff" stroke="black" stroke-width="2" d="M302,-814C302,-814 575,-814 575,-814 581,-814 587,-820 587,-826 587,-826 587,-884 587,-884 587,-890 581,-896 575,-896 575,-896 302,-896 302,-896 296,-896 290,-890 290,-884 290,-884 290,-826 290,-826 290,-820 296,-814 302,-814"/>
<text text-anchor="middle" x="438.5" y="-884.8" font-family="Helvetica,sans-Serif" font-weight="bold" font-size="9.00">store</text>
</g>
<g id="clust11" class="cluster"><title>cluster_src/client/utils</title>
<path fill="#ffffff" stroke="black" stroke-width="2" d="M519,-678C519,-678 671,-678 671,-678 677,-678 683,-684 683,-690 683,-690 683,-748 683,-748 683,-754 677,-760 671,-760 671,-760 519,-760 519,-760 513,-760 507,-754 507,-748 507,-748 507,-690 507,-690 507,-684 513,-678 519,-678"/>
<text text-anchor="middle" x="595" y="-748.8" font-family="Helvetica,sans-Serif" font-weight="bold" font-size="9.00">utils</text>
</g>
<g id="clust12" class="cluster"><title>cluster_src/server</title>
<path fill="#ffffff" stroke="black" stroke-width="2" d="M28,-76C28,-76 74,-76 74,-76 80,-76 86,-82 86,-88 86,-88 86,-116 86,-116 86,-122 80,-128 74,-128 74,-128 28,-128 28,-128 22,-128 16,-122 16,-116 16,-116 16,-88 16,-88 16,-82 22,-76 28,-76"/>
<text text-anchor="middle" x="51" y="-116.8" font-family="Helvetica,sans-Serif" font-weight="bold" font-size="9.00">server</text>
</g>
<!-- constants/common.js -->
<g id="node1" class="node"><title>constants/common.js</title>
<g id="a_node1"><a xlink:href="constants/common.js" xlink:title="common.js">
<path fill="#ffffcc" stroke="black" d="M356.5,-34C356.5,-34 307.5,-34 307.5,-34 304.5,-34 301.5,-31 301.5,-28 301.5,-28 301.5,-22 301.5,-22 301.5,-19 304.5,-16 307.5,-16 307.5,-16 356.5,-16 356.5,-16 359.5,-16 362.5,-19 362.5,-22 362.5,-22 362.5,-28 362.5,-28 362.5,-31 359.5,-34 356.5,-34"/>
<text text-anchor="middle" x="332" y="-22.8" font-family="Helvetica,sans-Serif" font-size="9.00">common.js</text>
</a>
</g>
</g>
<!-- http -->
<g id="node2" class="node"><title>http</title>
<path fill="#ffffcc" stroke="grey" d="M150,-60C150,-60 108,-60 108,-60 105,-60 102,-57 102,-54 102,-54 102,-48 102,-48 102,-45 105,-42 108,-42 108,-42 150,-42 150,-42 153,-42 156,-45 156,-48 156,-48 156,-54 156,-54 156,-57 153,-60 150,-60"/>
<text text-anchor="middle" x="129" y="-48.8" font-family="Helvetica,sans-Serif" font-size="9.00" fill="grey">http</text>
</g>
<!-- src/client/components/Button.js -->
<g id="node3" class="node"><title>src/client/components/Button.js</title>
<g id="a_node3"><a xlink:href="src/client/components/Button.js" xlink:title="Button.js">
<path fill="#ffffcc" stroke="black" d="M485,-737C485,-737 443,-737 443,-737 440,-737 437,-734 437,-731 437,-731 437,-725 437,-725 437,-722 440,-719 443,-719 443,-719 485,-719 485,-719 488,-719 491,-722 491,-725 491,-725 491,-731 491,-731 491,-734 488,-737 485,-737"/>
<text text-anchor="middle" x="464" y="-725.8" font-family="Helvetica,sans-Serif" font-size="9.00">Button.js</text>
</a>
</g>
</g>
<!-- src/client/store/actions.js -->
<g id="node24" class="node"><title>src/client/store/actions.js</title>
<g id="a_node24"><a xlink:href="src/client/store/actions.js" xlink:title="actions.js">
<path fill="#ffffcc" stroke="black" d="M573,-840C573,-840 530,-840 530,-840 527,-840 524,-837 524,-834 524,-834 524,-828 524,-828 524,-825 527,-822 530,-822 530,-822 573,-822 573,-822 576,-822 579,-825 579,-828 579,-828 579,-834 579,-834 579,-837 576,-840 573,-840"/>
<text text-anchor="middle" x="551.5" y="-828.8" font-family="Helvetica,sans-Serif" font-size="9.00">actions.js</text>
</a>
</g>
</g>
<!-- src/client/components/Button.js&#45;&gt;src/client/store/actions.js -->
<g id="edge1" class="edge"><title>src/client/components/Button.js&#45;&gt;src/client/store/actions.js</title>
<path fill="none" stroke="#000000" stroke-width="2" stroke-opacity="0.466667" d="M478.385,-737.148C484.995,-742.02 492.85,-748.367 499,-755 515.691,-773.003 530.941,-796.856 540.441,-813.001"/>
<polygon fill="#000000" fill-opacity="0.466667" stroke="#000000" stroke-width="2" stroke-opacity="0.466667" points="537.559,-815.009 545.575,-821.937 543.628,-811.522 537.559,-815.009"/>
</g>
<!-- src/client/utils/clearInput.js -->
<g id="node28" class="node"><title>src/client/utils/clearInput.js</title>
<g id="a_node28"><a xlink:href="src/client/utils/clearInput.js" xlink:title="clearInput.js">
<path fill="#ffffcc" stroke="black" d="M578.5,-734C578.5,-734 524.5,-734 524.5,-734 521.5,-734 518.5,-731 518.5,-728 518.5,-728 518.5,-722 518.5,-722 518.5,-719 521.5,-716 524.5,-716 524.5,-716 578.5,-716 578.5,-716 581.5,-716 584.5,-719 584.5,-722 584.5,-722 584.5,-728 584.5,-728 584.5,-731 581.5,-734 578.5,-734"/>
<text text-anchor="middle" x="551.5" y="-722.8" font-family="Helvetica,sans-Serif" font-size="9.00">clearInput.js</text>
</a>
</g>
</g>
<!-- src/client/components/Button.js&#45;&gt;src/client/utils/clearInput.js -->
<g id="edge2" class="edge"><title>src/client/components/Button.js&#45;&gt;src/client/utils/clearInput.js</title>
<path fill="none" stroke="#000000" stroke-width="2" stroke-opacity="0.466667" d="M491.117,-727.084C496.458,-726.896 502.209,-726.694 507.955,-726.493"/>
<polygon fill="#000000" fill-opacity="0.466667" stroke="#000000" stroke-width="2" stroke-opacity="0.466667" points="508.332,-729.982 518.203,-726.133 508.086,-722.986 508.332,-729.982"/>
</g>
<!-- src/client/utils/onChatMsg.js -->
<g id="node30" class="node"><title>src/client/utils/onChatMsg.js</title>
<g id="a_node30"><a xlink:href="src/client/utils/onChatMsg.js" xlink:title="onChatMsg.js">
<path fill="#ffffcc" stroke="black" d="M582,-704C582,-704 521,-704 521,-704 518,-704 515,-701 515,-698 515,-698 515,-692 515,-692 515,-689 518,-686 521,-686 521,-686 582,-686 582,-686 585,-686 588,-689 588,-692 588,-692 588,-698 588,-698 588,-701 585,-704 582,-704"/>
<text text-anchor="middle" x="551.5" y="-692.8" font-family="Helvetica,sans-Serif" font-size="9.00">onChatMsg.js</text>
</a>
</g>
</g>
<!-- src/client/components/Button.js&#45;&gt;src/client/utils/onChatMsg.js -->
<g id="edge3" class="edge"><title>src/client/components/Button.js&#45;&gt;src/client/utils/onChatMsg.js</title>
<path fill="none" stroke="#000000" stroke-width="2" stroke-opacity="0.466667" d="M485.385,-718.91C492.213,-715.96 499.895,-712.743 507,-710 509.201,-709.15 511.473,-708.297 513.77,-707.452"/>
<polygon fill="#000000" fill-opacity="0.466667" stroke="#000000" stroke-width="2" stroke-opacity="0.466667" points="515.007,-710.727 523.24,-704.059 512.645,-704.137 515.007,-710.727"/>
</g>
<!-- src/client/components/Display.js -->
<g id="node4" class="node"><title>src/client/components/Display.js</title>
<g id="a_node4"><a xlink:href="src/client/components/Display.js" xlink:title="Display.js">
<path fill="#ffffcc" stroke="black" d="M354,-744C354,-744 310,-744 310,-744 307,-744 304,-741 304,-738 304,-738 304,-732 304,-732 304,-729 307,-726 310,-726 310,-726 354,-726 354,-726 357,-726 360,-729 360,-732 360,-732 360,-738 360,-738 360,-741 357,-744 354,-744"/>
<text text-anchor="middle" x="332" y="-732.8" font-family="Helvetica,sans-Serif" font-size="9.00">Display.js</text>
</a>
</g>
</g>
<!-- src/client/components/Display.js&#45;&gt;src/client/store/actions.js -->
<g id="edge4" class="edge"><title>src/client/components/Display.js&#45;&gt;src/client/store/actions.js</title>
<path fill="none" stroke="#000000" stroke-width="2" stroke-opacity="0.466667" d="M360.266,-738.345C374.988,-740.654 393.31,-744.35 409,-750 420.414,-754.11 421.805,-758.328 433,-763 461.286,-774.804 472.435,-767.711 499,-783 513.21,-791.178 526.668,-803.965 536.261,-814.285"/>
<polygon fill="#000000" fill-opacity="0.466667" stroke="#000000" stroke-width="2" stroke-opacity="0.466667" points="533.792,-816.775 543.066,-821.898 539.011,-812.11 533.792,-816.775"/>
</g>
<!-- src/client/components/Enter.js -->
<g id="node5" class="node"><title>src/client/components/Enter.js</title>
<g id="a_node5"><a xlink:href="src/client/components/Enter.js" xlink:title="Enter.js">
<path fill="#ffffcc" stroke="black" d="M353,-774C353,-774 311,-774 311,-774 308,-774 305,-771 305,-768 305,-768 305,-762 305,-762 305,-759 308,-756 311,-756 311,-756 353,-756 353,-756 356,-756 359,-759 359,-762 359,-762 359,-768 359,-768 359,-771 356,-774 353,-774"/>
<text text-anchor="middle" x="332" y="-762.8" font-family="Helvetica,sans-Serif" font-size="9.00">Enter.js</text>
</a>
</g>
</g>
<!-- src/client/components/Enter.js&#45;&gt;src/client/store/actions.js -->
<g id="edge5" class="edge"><title>src/client/components/Enter.js&#45;&gt;src/client/store/actions.js</title>
<path fill="none" stroke="#000000" stroke-width="2" stroke-opacity="0.466667" d="M359.14,-769.364C392.315,-775.337 450.999,-787.37 499,-805 508.017,-808.312 517.506,-812.791 525.847,-817.099"/>
<polygon fill="#000000" fill-opacity="0.466667" stroke="#000000" stroke-width="2" stroke-opacity="0.466667" points="524.221,-820.198 534.692,-821.817 527.516,-814.022 524.221,-820.198"/>
</g>
<!-- src/client/components/Entry.js -->
<g id="node6" class="node"><title>src/client/components/Entry.js</title>
<g id="a_node6"><a xlink:href="src/client/components/Entry.js" xlink:title="Entry.js">
<path fill="#ffffcc" stroke="black" d="M353,-714C353,-714 311,-714 311,-714 308,-714 305,-711 305,-708 305,-708 305,-702 305,-702 305,-699 308,-696 311,-696 311,-696 353,-696 353,-696 356,-696 359,-699 359,-702 359,-702 359,-708 359,-708 359,-711 356,-714 353,-714"/>
<text text-anchor="middle" x="332" y="-702.8" font-family="Helvetica,sans-Serif" font-size="9.00">Entry.js</text>
</a>
</g>
</g>
<!-- src/client/components/Entry.js&#45;&gt;src/client/components/Button.js -->
<g id="edge9" class="edge"><title>src/client/components/Entry.js&#45;&gt;src/client/components/Button.js</title>
<path fill="none" stroke="#000000" stroke-width="2" stroke-opacity="0.466667" d="M359.307,-709.654C378.69,-713.084 405.29,-717.79 426.695,-721.577"/>
<polygon fill="#000000" fill-opacity="0.466667" stroke="#000000" stroke-width="2" stroke-opacity="0.466667" points="426.275,-725.057 436.732,-723.353 427.494,-718.164 426.275,-725.057"/>
</g>
<!-- src/client/components/Entry.js&#45;&gt;src/client/store/actions.js -->
<g id="edge6" class="edge"><title>src/client/components/Entry.js&#45;&gt;src/client/store/actions.js</title>
<path fill="none" stroke="#000000" stroke-width="2" stroke-opacity="0.466667" d="M359.19,-706.503C374.43,-708.25 393.607,-711.996 409,-720 422.108,-726.816 420.299,-735.454 433,-743 459.464,-758.723 473.8,-746.321 499,-764 517.128,-776.718 531.782,-797.73 540.757,-812.834"/>
<polygon fill="#000000" fill-opacity="0.466667" stroke="#000000" stroke-width="2" stroke-opacity="0.466667" points="537.84,-814.785 545.815,-821.761 543.93,-811.335 537.84,-814.785"/>
</g>
<!-- src/client/components/Entry.js&#45;&gt;src/client/utils/clearInput.js -->
<g id="edge7" class="edge"><title>src/client/components/Entry.js&#45;&gt;src/client/utils/clearInput.js</title>
<path fill="none" stroke="#000000" stroke-width="2" stroke-opacity="0.466667" d="M359.013,-704.805C391.809,-704.891 449.849,-706.147 499,-713 502.039,-713.424 505.162,-713.941 508.296,-714.521"/>
<polygon fill="#000000" fill-opacity="0.466667" stroke="#000000" stroke-width="2" stroke-opacity="0.466667" points="507.753,-717.982 518.25,-716.546 509.148,-711.123 507.753,-717.982"/>
</g>
<!-- src/client/components/Entry.js&#45;&gt;src/client/utils/onChatMsg.js -->
<g id="edge8" class="edge"><title>src/client/components/Entry.js&#45;&gt;src/client/utils/onChatMsg.js</title>
<path fill="none" stroke="#000000" stroke-width="2" stroke-opacity="0.466667" d="M359.236,-703.794C395.218,-702.139 460.437,-699.141 504.6,-697.11"/>
<polygon fill="#000000" fill-opacity="0.466667" stroke="#000000" stroke-width="2" stroke-opacity="0.466667" points="504.961,-700.598 514.79,-696.642 504.64,-693.605 504.961,-700.598"/>
</g>
<!-- src/client/containers/App.js -->
<g id="node7" class="node"><title>src/client/containers/App.js</title>
<g id="a_node7"><a xlink:href="src/client/containers/App.js" xlink:title="App.js">
<path fill="#ffffcc" stroke="black" d="M217,-744C217,-744 175,-744 175,-744 172,-744 169,-741 169,-738 169,-738 169,-732 169,-732 169,-729 172,-726 175,-726 175,-726 217,-726 217,-726 220,-726 223,-729 223,-732 223,-732 223,-738 223,-738 223,-741 220,-744 217,-744"/>
<text text-anchor="middle" x="196" y="-732.8" font-family="Helvetica,sans-Serif" font-size="9.00">App.js</text>
</a>
</g>
</g>
<!-- src/client/containers/App.js&#45;&gt;constants/common.js -->
<g id="edge10" class="edge"><title>src/client/containers/App.js&#45;&gt;constants/common.js</title>
<path fill="none" stroke="#000000" stroke-width="2" stroke-opacity="0.466667" d="M197.29,-725.983C199.489,-660.384 214.551,-255.833 255,-141 268.709,-102.08 298.126,-63.281 316.074,-41.8847"/>
<polygon fill="#000000" fill-opacity="0.466667" stroke="#000000" stroke-width="2" stroke-opacity="0.466667" points="318.916,-43.947 322.768,-34.0772 313.602,-39.3906 318.916,-43.947"/>
</g>
<!-- src/client/containers/App.js&#45;&gt;src/client/components/Display.js -->
<g id="edge11" class="edge"><title>src/client/containers/App.js&#45;&gt;src/client/components/Display.js</title>
<path fill="none" stroke="#000000" stroke-width="2" stroke-opacity="0.466667" d="M223.155,-735C243.275,-735 271.341,-735 293.799,-735"/>
<polygon fill="#000000" fill-opacity="0.466667" stroke="#000000" stroke-width="2" stroke-opacity="0.466667" points="293.993,-738.5 303.993,-735 293.993,-731.5 293.993,-738.5"/>
</g>
<!-- src/client/containers/App.js&#45;&gt;src/client/components/Enter.js -->
<g id="edge12" class="edge"><title>src/client/containers/App.js&#45;&gt;src/client/components/Enter.js</title>
<path fill="none" stroke="#000000" stroke-width="2" stroke-opacity="0.466667" d="M223.195,-742.12C233.126,-744.728 244.555,-747.621 255,-750 267.908,-752.94 282.127,-755.837 294.739,-758.289"/>
<polygon fill="#000000" fill-opacity="0.466667" stroke="#000000" stroke-width="2" stroke-opacity="0.466667" points="294.411,-761.79 304.892,-760.236 295.729,-754.916 294.411,-761.79"/>
</g>
<!-- src/client/containers/App.js&#45;&gt;src/client/components/Entry.js -->
<g id="edge13" class="edge"><title>src/client/containers/App.js&#45;&gt;src/client/components/Entry.js</title>
<path fill="none" stroke="#000000" stroke-width="2" stroke-opacity="0.466667" d="M223.195,-727.88C233.126,-725.272 244.555,-722.379 255,-720 267.908,-717.06 282.127,-714.163 294.739,-711.711"/>
<polygon fill="#000000" fill-opacity="0.466667" stroke="#000000" stroke-width="2" stroke-opacity="0.466667" points="295.729,-715.084 304.892,-709.764 294.411,-708.21 295.729,-715.084"/>
</g>
<!-- src/client/css/css.styl -->
<g id="node9" class="node"><title>src/client/css/css.styl</title>
<g id="a_node9"><a xlink:href="src/client/css/css.styl" xlink:title="css.styl">
<path fill="#ffffcc" stroke="black" d="M353,-170C353,-170 311,-170 311,-170 308,-170 305,-167 305,-164 305,-164 305,-158 305,-158 305,-155 308,-152 311,-152 311,-152 353,-152 353,-152 356,-152 359,-155 359,-158 359,-158 359,-164 359,-164 359,-167 356,-170 353,-170"/>
<text text-anchor="middle" x="332" y="-158.8" font-family="Helvetica,sans-Serif" font-size="9.00">css.styl</text>
</a>
</g>
</g>
<!-- src/client/containers/App.js&#45;&gt;src/client/css/css.styl -->
<g id="edge14" class="edge"><title>src/client/containers/App.js&#45;&gt;src/client/css/css.styl</title>
<path fill="none" stroke="#000000" stroke-width="2" stroke-opacity="0.466667" d="M197.356,-725.785C200.086,-657.101 218.589,-226.506 255,-183 264.719,-171.387 280.161,-165.697 294.595,-162.981"/>
<polygon fill="#000000" fill-opacity="0.466667" stroke="#000000" stroke-width="2" stroke-opacity="0.466667" points="295.441,-166.394 304.831,-161.487 294.43,-159.468 295.441,-166.394"/>
</g>
<!-- src/client/css/fontawesome&#45;free&#45;5.7.2&#45;web/css/all.css -->
<g id="node10" class="node"><title>src/client/css/fontawesome&#45;free&#45;5.7.2&#45;web/css/all.css</title>
<g id="a_node10"><a xlink:href="src/client/css/fontawesome-free-5.7.2-web/css/all.css" xlink:title="all.css">
<path fill="#ffffcc" stroke="black" d="M353,-602C353,-602 311,-602 311,-602 308,-602 305,-599 305,-596 305,-596 305,-590 305,-590 305,-587 308,-584 311,-584 311,-584 353,-584 353,-584 356,-584 359,-587 359,-590 359,-590 359,-596 359,-596 359,-599 356,-602 353,-602"/>
<text text-anchor="middle" x="332" y="-590.8" font-family="Helvetica,sans-Serif" font-size="9.00">all.css</text>
</a>
</g>
</g>
<!-- src/client/containers/App.js&#45;&gt;src/client/css/fontawesome&#45;free&#45;5.7.2&#45;web/css/all.css -->
<g id="edge15" class="edge"><title>src/client/containers/App.js&#45;&gt;src/client/css/fontawesome&#45;free&#45;5.7.2&#45;web/css/all.css</title>
<path fill="none" stroke="#000000" stroke-width="2" stroke-opacity="0.466667" d="M205.792,-725.683C228.039,-702.108 286.809,-639.83 315.202,-609.741"/>
<polygon fill="#000000" fill-opacity="0.466667" stroke="#000000" stroke-width="2" stroke-opacity="0.466667" points="318.032,-611.842 322.35,-602.167 312.941,-607.038 318.032,-611.842"/>
</g>
<!-- src/client/containers/App.js&#45;&gt;src/client/store/actions.js -->
<g id="edge16" class="edge"><title>src/client/containers/App.js&#45;&gt;src/client/store/actions.js</title>
<path fill="none" stroke="#000000" stroke-width="2" stroke-opacity="0.466667" d="M210.907,-744.222C217.492,-749.02 225.171,-755.282 231,-762 244.837,-777.949 236.969,-792.014 255,-803 278.185,-817.126 472.234,-811.452 499,-816 503.852,-816.824 508.895,-817.948 513.843,-819.211"/>
<polygon fill="#000000" fill-opacity="0.466667" stroke="#000000" stroke-width="2" stroke-opacity="0.466667" points="513.207,-822.666 523.777,-821.951 515.068,-815.918 513.207,-822.666"/>
</g>
<!-- src/client/containers/Root.js -->
<g id="node8" class="node"><title>src/client/containers/Root.js</title>
<g id="a_node8"><a xlink:href="src/client/containers/Root.js" xlink:title="Root.js">
<path fill="#ffffcc" stroke="black" d="M150,-744C150,-744 108,-744 108,-744 105,-744 102,-741 102,-738 102,-738 102,-732 102,-732 102,-729 105,-726 108,-726 108,-726 150,-726 150,-726 153,-726 156,-729 156,-732 156,-732 156,-738 156,-738 156,-741 153,-744 150,-744"/>
<text text-anchor="middle" x="129" y="-732.8" font-family="Helvetica,sans-Serif" font-size="9.00">Root.js</text>
</a>
</g>
</g>
<!-- src/client/containers/Root.js&#45;&gt;src/client/containers/App.js -->
<g id="edge19" class="edge"><title>src/client/containers/Root.js&#45;&gt;src/client/containers/App.js</title>
<path fill="none" stroke="#000000" stroke-width="2" stroke-opacity="0.466667" d="M156.063,-735C156.991,-735 157.925,-735 158.864,-735"/>
<polygon fill="#000000" fill-opacity="0.466667" stroke="#000000" stroke-width="2" stroke-opacity="0.466667" points="158.931,-738.5 168.931,-735 158.931,-731.5 158.931,-738.5"/>
</g>
<!-- src/client/store/initialState.js -->
<g id="node25" class="node"><title>src/client/store/initialState.js</title>
<g id="a_node25"><a xlink:href="src/client/store/initialState.js" xlink:title="initialState.js">
<path fill="#ffffcc" stroke="black" d="M360,-870C360,-870 304,-870 304,-870 301,-870 298,-867 298,-864 298,-864 298,-858 298,-858 298,-855 301,-852 304,-852 304,-852 360,-852 360,-852 363,-852 366,-855 366,-858 366,-858 366,-864 366,-864 366,-867 363,-870 360,-870"/>
<text text-anchor="middle" x="332" y="-858.8" font-family="Helvetica,sans-Serif" font-size="9.00">initialState.js</text>
</a>
</g>
</g>
<!-- src/client/containers/Root.js&#45;&gt;src/client/store/initialState.js -->
<g id="edge17" class="edge"><title>src/client/containers/Root.js&#45;&gt;src/client/store/initialState.js</title>
<path fill="none" stroke="#000000" stroke-width="2" stroke-opacity="0.466667" d="M135.558,-744.168C142.497,-755.149 155.152,-773.724 169,-787 202.46,-819.077 212.272,-828.031 255,-846 265.346,-850.351 277.023,-853.459 288.064,-855.672"/>
<polygon fill="#000000" fill-opacity="0.466667" stroke="#000000" stroke-width="2" stroke-opacity="0.466667" points="287.505,-859.128 297.968,-857.464 288.751,-852.24 287.505,-859.128"/>
</g>
<!-- src/client/store/store.js -->
<g id="node27" class="node"><title>src/client/store/store.js</title>
<g id="a_node27"><a xlink:href="src/client/store/store.js" xlink:title="store.js">
<path fill="#ffffcc" stroke="black" d="M353,-840C353,-840 311,-840 311,-840 308,-840 305,-837 305,-834 305,-834 305,-828 305,-828 305,-825 308,-822 311,-822 311,-822 353,-822 353,-822 356,-822 359,-825 359,-828 359,-828 359,-834 359,-834 359,-837 356,-840 353,-840"/>
<text text-anchor="middle" x="332" y="-828.8" font-family="Helvetica,sans-Serif" font-size="9.00">store.js</text>
</a>
</g>
</g>
<!-- src/client/containers/Root.js&#45;&gt;src/client/store/store.js -->
<g id="edge18" class="edge"><title>src/client/containers/Root.js&#45;&gt;src/client/store/store.js</title>
<path fill="none" stroke="#000000" stroke-width="2" stroke-opacity="0.466667" d="M141.697,-744.149C163.016,-760.386 210.145,-794.288 255,-813 267.541,-818.232 281.909,-822.125 294.752,-824.927"/>
<polygon fill="#000000" fill-opacity="0.466667" stroke="#000000" stroke-width="2" stroke-opacity="0.466667" points="294.164,-828.379 304.661,-826.945 295.561,-821.52 294.164,-828.379"/>
</g>
<!-- src/client/css/fontawesome&#45;free&#45;5.7.2&#45;web/js/all.js -->
<g id="node11" class="node"><title>src/client/css/fontawesome&#45;free&#45;5.7.2&#45;web/js/all.js</title>
<g id="a_node11"><a xlink:href="src/client/css/fontawesome-free-5.7.2-web/js/all.js" xlink:title="all.js">
<path fill="#ffffcc" stroke="black" d="M353,-542C353,-542 311,-542 311,-542 308,-542 305,-539 305,-536 305,-536 305,-530 305,-530 305,-527 308,-524 311,-524 311,-524 353,-524 353,-524 356,-524 359,-527 359,-530 359,-530 359,-536 359,-536 359,-539 356,-542 353,-542"/>
<text text-anchor="middle" x="332" y="-530.8" font-family="Helvetica,sans-Serif" font-size="9.00">all.js</text>
</a>
</g>
</g>
<!-- src/client/css/fontawesome&#45;free&#45;5.7.2&#45;web/js/all.min.js -->
<g id="node12" class="node"><title>src/client/css/fontawesome&#45;free&#45;5.7.2&#45;web/js/all.min.js</title>
<g id="a_node12"><a xlink:href="src/client/css/fontawesome-free-5.7.2-web/js/all.min.js" xlink:title="all.min.js">
<path fill="#ffffcc" stroke="black" d="M353,-512C353,-512 311,-512 311,-512 308,-512 305,-509 305,-506 305,-506 305,-500 305,-500 305,-497 308,-494 311,-494 311,-494 353,-494 353,-494 356,-494 359,-497 359,-500 359,-500 359,-506 359,-506 359,-509 356,-512 353,-512"/>
<text text-anchor="middle" x="332" y="-500.8" font-family="Helvetica,sans-Serif" font-size="9.00">all.min.js</text>
</a>
</g>
</g>
<!-- src/client/css/fontawesome&#45;free&#45;5.7.2&#45;web/js/brands.js -->
<g id="node13" class="node"><title>src/client/css/fontawesome&#45;free&#45;5.7.2&#45;web/js/brands.js</title>
<g id="a_node13"><a xlink:href="src/client/css/fontawesome-free-5.7.2-web/js/brands.js" xlink:title="brands.js">
<path fill="#ffffcc" stroke="black" d="M353,-482C353,-482 311,-482 311,-482 308,-482 305,-479 305,-476 305,-476 305,-470 305,-470 305,-467 308,-464 311,-464 311,-464 353,-464 353,-464 356,-464 359,-467 359,-470 359,-470 359,-476 359,-476 359,-479 356,-482 353,-482"/>
<text text-anchor="middle" x="332" y="-470.8" font-family="Helvetica,sans-Serif" font-size="9.00">brands.js</text>
</a>
</g>
</g>
<!-- src/client/css/fontawesome&#45;free&#45;5.7.2&#45;web/js/brands.min.js -->
<g id="node14" class="node"><title>src/client/css/fontawesome&#45;free&#45;5.7.2&#45;web/js/brands.min.js</title>
<g id="a_node14"><a xlink:href="src/client/css/fontawesome-free-5.7.2-web/js/brands.min.js" xlink:title="brands.min.js">
<path fill="#ffffcc" stroke="black" d="M361.5,-452C361.5,-452 302.5,-452 302.5,-452 299.5,-452 296.5,-449 296.5,-446 296.5,-446 296.5,-440 296.5,-440 296.5,-437 299.5,-434 302.5,-434 302.5,-434 361.5,-434 361.5,-434 364.5,-434 367.5,-437 367.5,-440 367.5,-440 367.5,-446 367.5,-446 367.5,-449 364.5,-452 361.5,-452"/>
<text text-anchor="middle" x="332" y="-440.8" font-family="Helvetica,sans-Serif" font-size="9.00">brands.min.js</text>
</a>
</g>
</g>
<!-- src/client/css/fontawesome&#45;free&#45;5.7.2&#45;web/js/fontawesome.js -->
<g id="node15" class="node"><title>src/client/css/fontawesome&#45;free&#45;5.7.2&#45;web/js/fontawesome.js</title>
<g id="a_node15"><a xlink:href="src/client/css/fontawesome-free-5.7.2-web/js/fontawesome.js" xlink:title="fontawesome.js">
<path fill="#ffffcc" stroke="black" d="M366,-422C366,-422 298,-422 298,-422 295,-422 292,-419 292,-416 292,-416 292,-410 292,-410 292,-407 295,-404 298,-404 298,-404 366,-404 366,-404 369,-404 372,-407 372,-410 372,-410 372,-416 372,-416 372,-419 369,-422 366,-422"/>
<text text-anchor="middle" x="332" y="-410.8" font-family="Helvetica,sans-Serif" font-size="9.00">fontawesome.js</text>
</a>
</g>
</g>
<!-- src/client/css/fontawesome&#45;free&#45;5.7.2&#45;web/js/fontawesome.min.js -->
<g id="node16" class="node"><title>src/client/css/fontawesome&#45;free&#45;5.7.2&#45;web/js/fontawesome.min.js</title>
<g id="a_node16"><a xlink:href="src/client/css/fontawesome-free-5.7.2-web/js/fontawesome.min.js" xlink:title="fontawesome.min.js">
<path fill="#ffffcc" stroke="black" d="M375,-392C375,-392 289,-392 289,-392 286,-392 283,-389 283,-386 283,-386 283,-380 283,-380 283,-377 286,-374 289,-374 289,-374 375,-374 375,-374 378,-374 381,-377 381,-380 381,-380 381,-386 381,-386 381,-389 378,-392 375,-392"/>
<text text-anchor="middle" x="332" y="-380.8" font-family="Helvetica,sans-Serif" font-size="9.00">fontawesome.min.js</text>
</a>
</g>
</g>
<!-- src/client/css/fontawesome&#45;free&#45;5.7.2&#45;web/js/regular.js -->
<g id="node17" class="node"><title>src/client/css/fontawesome&#45;free&#45;5.7.2&#45;web/js/regular.js</title>
<g id="a_node17"><a xlink:href="src/client/css/fontawesome-free-5.7.2-web/js/regular.js" xlink:title="regular.js">
<path fill="#ffffcc" stroke="black" d="M353.5,-362C353.5,-362 310.5,-362 310.5,-362 307.5,-362 304.5,-359 304.5,-356 304.5,-356 304.5,-350 304.5,-350 304.5,-347 307.5,-344 310.5,-344 310.5,-344 353.5,-344 353.5,-344 356.5,-344 359.5,-347 359.5,-350 359.5,-350 359.5,-356 359.5,-356 359.5,-359 356.5,-362 353.5,-362"/>
<text text-anchor="middle" x="332" y="-350.8" font-family="Helvetica,sans-Serif" font-size="9.00">regular.js</text>
</a>
</g>
</g>
<!-- src/client/css/fontawesome&#45;free&#45;5.7.2&#45;web/js/regular.min.js -->
<g id="node18" class="node"><title>src/client/css/fontawesome&#45;free&#45;5.7.2&#45;web/js/regular.min.js</title>
<g id="a_node18"><a xlink:href="src/client/css/fontawesome-free-5.7.2-web/js/regular.min.js" xlink:title="regular.min.js">
<path fill="#ffffcc" stroke="black" d="M362,-332C362,-332 302,-332 302,-332 299,-332 296,-329 296,-326 296,-326 296,-320 296,-320 296,-317 299,-314 302,-314 302,-314 362,-314 362,-314 365,-314 368,-317 368,-320 368,-320 368,-326 368,-326 368,-329 365,-332 362,-332"/>
<text text-anchor="middle" x="332" y="-320.8" font-family="Helvetica,sans-Serif" font-size="9.00">regular.min.js</text>
</a>
</g>
</g>
<!-- src/client/css/fontawesome&#45;free&#45;5.7.2&#45;web/js/solid.js -->
<g id="node19" class="node"><title>src/client/css/fontawesome&#45;free&#45;5.7.2&#45;web/js/solid.js</title>
<g id="a_node19"><a xlink:href="src/client/css/fontawesome-free-5.7.2-web/js/solid.js" xlink:title="solid.js">
<path fill="#ffffcc" stroke="black" d="M353,-302C353,-302 311,-302 311,-302 308,-302 305,-299 305,-296 305,-296 305,-290 305,-290 305,-287 308,-284 311,-284 311,-284 353,-284 353,-284 356,-284 359,-287 359,-290 359,-290 359,-296 359,-296 359,-299 356,-302 353,-302"/>
<text text-anchor="middle" x="332" y="-290.8" font-family="Helvetica,sans-Serif" font-size="9.00">solid.js</text>
</a>
</g>
</g>
<!-- src/client/css/fontawesome&#45;free&#45;5.7.2&#45;web/js/solid.min.js -->
<g id="node20" class="node"><title>src/client/css/fontawesome&#45;free&#45;5.7.2&#45;web/js/solid.min.js</title>
<g id="a_node20"><a xlink:href="src/client/css/fontawesome-free-5.7.2-web/js/solid.min.js" xlink:title="solid.min.js">
<path fill="#ffffcc" stroke="black" d="M357,-272C357,-272 307,-272 307,-272 304,-272 301,-269 301,-266 301,-266 301,-260 301,-260 301,-257 304,-254 307,-254 307,-254 357,-254 357,-254 360,-254 363,-257 363,-260 363,-260 363,-266 363,-266 363,-269 360,-272 357,-272"/>
<text text-anchor="middle" x="332" y="-260.8" font-family="Helvetica,sans-Serif" font-size="9.00">solid.min.js</text>
</a>
</g>
</g>
<!-- src/client/css/fontawesome&#45;free&#45;5.7.2&#45;web/js/v4&#45;shims.js -->
<g id="node21" class="node"><title>src/client/css/fontawesome&#45;free&#45;5.7.2&#45;web/js/v4&#45;shims.js</title>
<g id="a_node21"><a xlink:href="src/client/css/fontawesome-free-5.7.2-web/js/v4-shims.js" xlink:title="v4&#45;shims.js">
<path fill="#ffffcc" stroke="black" d="M357,-242C357,-242 307,-242 307,-242 304,-242 301,-239 301,-236 301,-236 301,-230 301,-230 301,-227 304,-224 307,-224 307,-224 357,-224 357,-224 360,-224 363,-227 363,-230 363,-230 363,-236 363,-236 363,-239 360,-242 357,-242"/>
<text text-anchor="middle" x="332" y="-230.8" font-family="Helvetica,sans-Serif" font-size="9.00">v4&#45;shims.js</text>
</a>
</g>
</g>
<!-- src/client/css/fontawesome&#45;free&#45;5.7.2&#45;web/js/v4&#45;shims.min.js -->
<g id="node22" class="node"><title>src/client/css/fontawesome&#45;free&#45;5.7.2&#45;web/js/v4&#45;shims.min.js</title>
<g id="a_node22"><a xlink:href="src/client/css/fontawesome-free-5.7.2-web/js/v4-shims.min.js" xlink:title="v4&#45;shims.min.js">
<path fill="#ffffcc" stroke="black" d="M366,-212C366,-212 298,-212 298,-212 295,-212 292,-209 292,-206 292,-206 292,-200 292,-200 292,-197 295,-194 298,-194 298,-194 366,-194 366,-194 369,-194 372,-197 372,-200 372,-200 372,-206 372,-206 372,-209 369,-212 366,-212"/>
<text text-anchor="middle" x="332" y="-200.8" font-family="Helvetica,sans-Serif" font-size="9.00">v4&#45;shims.min.js</text>
</a>
</g>
</g>
<!-- src/client/index.js -->
<g id="node23" class="node"><title>src/client/index.js</title>
<g id="a_node23"><a xlink:href="src/client/index.js" xlink:title="index.js">
<path fill="#ffffcc" stroke="black" d="M72,-744C72,-744 30,-744 30,-744 27,-744 24,-741 24,-738 24,-738 24,-732 24,-732 24,-729 27,-726 30,-726 30,-726 72,-726 72,-726 75,-726 78,-729 78,-732 78,-732 78,-738 78,-738 78,-741 75,-744 72,-744"/>
<text text-anchor="middle" x="51" y="-732.8" font-family="Helvetica,sans-Serif" font-size="9.00">index.js</text>
</a>
</g>
</g>
<!-- src/client/index.js&#45;&gt;src/client/containers/Root.js -->
<g id="edge20" class="edge"><title>src/client/index.js&#45;&gt;src/client/containers/Root.js</title>
<path fill="none" stroke="#000000" stroke-width="2" stroke-opacity="0.466667" d="M78.1549,-735C82.454,-735 86.9779,-735 91.4742,-735"/>
<polygon fill="#000000" fill-opacity="0.466667" stroke="#000000" stroke-width="2" stroke-opacity="0.466667" points="91.7969,-738.5 101.797,-735 91.7969,-731.5 91.7969,-738.5"/>
</g>
<!-- src/client/store/reducers.js -->
<g id="node26" class="node"><title>src/client/store/reducers.js</title>
<g id="a_node26"><a xlink:href="src/client/store/reducers.js" xlink:title="reducers.js">
<path fill="#ffffcc" stroke="black" d="M489,-840C489,-840 439,-840 439,-840 436,-840 433,-837 433,-834 433,-834 433,-828 433,-828 433,-825 436,-822 439,-822 439,-822 489,-822 489,-822 492,-822 495,-825 495,-828 495,-828 495,-834 495,-834 495,-837 492,-840 489,-840"/>
<text text-anchor="middle" x="464" y="-828.8" font-family="Helvetica,sans-Serif" font-size="9.00">reducers.js</text>
</a>
</g>
</g>
<!-- src/client/store/reducers.js&#45;&gt;src/client/store/actions.js -->
<g id="edge21" class="edge"><title>src/client/store/reducers.js&#45;&gt;src/client/store/actions.js</title>
<path fill="none" stroke="#000000" stroke-width="2" stroke-opacity="0.466667" d="M495.385,-831C501.35,-831 507.667,-831 513.813,-831"/>
<polygon fill="#000000" fill-opacity="0.466667" stroke="#000000" stroke-width="2" stroke-opacity="0.466667" points="513.903,-834.5 523.903,-831 513.903,-827.5 513.903,-834.5"/>
</g>
<!-- src/client/store/store.js&#45;&gt;src/client/store/reducers.js -->
<g id="edge22" class="edge"><title>src/client/store/store.js&#45;&gt;src/client/store/reducers.js</title>
<path fill="none" stroke="#000000" stroke-width="2" stroke-opacity="0.466667" d="M359.307,-831C377.46,-831 401.942,-831 422.559,-831"/>
<polygon fill="#000000" fill-opacity="0.466667" stroke="#000000" stroke-width="2" stroke-opacity="0.466667" points="422.629,-834.5 432.628,-831 422.628,-827.5 422.629,-834.5"/>
</g>
<!-- src/client/utils/currentTime.js -->
<g id="node29" class="node"><title>src/client/utils/currentTime.js</title>
<g id="a_node29"><a xlink:href="src/client/utils/currentTime.js" xlink:title="currentTime.js">
<path fill="#ffffcc" stroke="black" d="M669,-704C669,-704 607,-704 607,-704 604,-704 601,-701 601,-698 601,-698 601,-692 601,-692 601,-689 604,-686 607,-686 607,-686 669,-686 669,-686 672,-686 675,-689 675,-692 675,-692 675,-698 675,-698 675,-701 672,-704 669,-704"/>
<text text-anchor="middle" x="638" y="-692.8" font-family="Helvetica,sans-Serif" font-size="9.00">currentTime.js</text>
</a>
</g>
</g>
<!-- src/client/utils/onChatMsg.js&#45;&gt;src/client/utils/currentTime.js -->
<g id="edge23" class="edge"><title>src/client/utils/onChatMsg.js&#45;&gt;src/client/utils/currentTime.js</title>
<path fill="none" stroke="#000000" stroke-width="2" stroke-opacity="0.466667" d="M588.336,-695C589.112,-695 589.89,-695 590.671,-695"/>
<polygon fill="#000000" fill-opacity="0.466667" stroke="#000000" stroke-width="2" stroke-opacity="0.466667" points="590.839,-698.5 600.839,-695 590.839,-691.5 590.839,-698.5"/>
</g>
<!-- src/server/server.js -->
<g id="node31" class="node"><title>src/server/server.js</title>
<g id="a_node31"><a xlink:href="src/server/server.js" xlink:title="server.js">
<path fill="#ffffcc" stroke="black" d="M72,-102C72,-102 30,-102 30,-102 27,-102 24,-99 24,-96 24,-96 24,-90 24,-90 24,-87 27,-84 30,-84 30,-84 72,-84 72,-84 75,-84 78,-87 78,-90 78,-90 78,-96 78,-96 78,-99 75,-102 72,-102"/>
<text text-anchor="middle" x="51" y="-90.8" font-family="Helvetica,sans-Serif" font-size="9.00">server.js</text>
</a>
</g>
</g>
<!-- src/server/server.js&#45;&gt;constants/common.js -->
<g id="edge24" class="edge"><title>src/server/server.js&#45;&gt;constants/common.js</title>
<path fill="none" stroke="#000000" stroke-width="2" stroke-opacity="0.466667" d="M78.2476,-86.6027C127.387,-74.6261 233.516,-48.7595 291.394,-34.6531"/>
<polygon fill="#000000" fill-opacity="0.466667" stroke="#000000" stroke-width="2" stroke-opacity="0.466667" points="292.388,-38.0135 301.274,-32.245 290.73,-31.2125 292.388,-38.0135"/>
</g>
<!-- src/server/server.js&#45;&gt;http -->
<g id="edge25" class="edge"><title>src/server/server.js&#45;&gt;http</title>
<path fill="none" stroke="grey" d="M68.4909,-83.8866C78.45,-78.3829 91.3483,-71.2549 102.589,-65.0427"/>
<polygon fill="grey" stroke="grey" points="104.482,-67.9959 111.541,-60.0956 101.096,-61.8692 104.482,-67.9959"/>
</g>
</g>
</svg>
