<?xml version="1.0" encoding="UTF-8" standalone="no"?>
<!DOCTYPE svg PUBLIC "-//W3C//DTD SVG 1.1//EN"
 "http://www.w3.org/Graphics/SVG/1.1/DTD/svg11.dtd">
<!-- Generated by graphviz version 2.38.0 (20140413.2041)
 -->
<!-- Title: dependency&#45;cruiser output Pages: 1 -->
<svg width="617pt" height="480pt"
 viewBox="0.00 0.00 617.00 480.00" xmlns="http://www.w3.org/2000/svg" xmlns:xlink="http://www.w3.org/1999/xlink">
<g id="graph0" class="graph" transform="scale(1 1) rotate(0) translate(4 476)">
<title>dependency&#45;cruiser output</title>
<polygon fill="white" stroke="none" points="-4,4 -4,-476 613,-476 613,4 -4,4"/>
<g id="clust1" class="cluster"><title>cluster_constants</title>
<path fill="#ffffff" stroke="black" stroke-width="2" d="M336,-8C336,-8 389,-8 389,-8 395,-8 401,-14 401,-20 401,-20 401,-48 401,-48 401,-54 395,-60 389,-60 389,-60 336,-60 336,-60 330,-60 324,-54 324,-48 324,-48 324,-20 324,-20 324,-14 330,-8 336,-8"/>
<text text-anchor="middle" x="362.5" y="-48.8" font-family="Helvetica,sans-Serif" font-weight="bold" font-size="9.00">constants</text>
</g>
<g id="clust2" class="cluster"><title>cluster_src</title>
<path fill="#ffffff" stroke="black" stroke-width="2" d="M20,-68C20,-68 589,-68 589,-68 595,-68 601,-74 601,-80 601,-80 601,-452 601,-452 601,-458 595,-464 589,-464 589,-464 20,-464 20,-464 14,-464 8,-458 8,-452 8,-452 8,-80 8,-80 8,-74 14,-68 20,-68"/>
<text text-anchor="middle" x="304.5" y="-452.8" font-family="Helvetica,sans-Serif" font-weight="bold" font-size="9.00">src</text>
</g>
<g id="clust3" class="cluster"><title>cluster_src/client</title>
<path fill="#ffffff" stroke="black" stroke-width="2" d="M28,-136C28,-136 581,-136 581,-136 587,-136 593,-142 593,-148 593,-148 593,-426 593,-426 593,-432 587,-438 581,-438 581,-438 28,-438 28,-438 22,-438 16,-432 16,-426 16,-426 16,-148 16,-148 16,-142 22,-136 28,-136"/>
<text text-anchor="middle" x="304.5" y="-426.8" font-family="Helvetica,sans-Serif" font-weight="bold" font-size="9.00">client</text>
</g>
<g id="clust4" class="cluster"><title>cluster_src/client/components</title>
<path fill="#ffffff" stroke="black" stroke-width="2" d="M257,-204C257,-204 385.5,-204 385.5,-204 391.5,-204 397.5,-210 397.5,-216 397.5,-216 397.5,-304 397.5,-304 397.5,-310 391.5,-316 385.5,-316 385.5,-316 257,-316 257,-316 251,-316 245,-310 245,-304 245,-304 245,-216 245,-216 245,-210 251,-204 257,-204"/>
<text text-anchor="middle" x="321.25" y="-304.8" font-family="Helvetica,sans-Serif" font-weight="bold" font-size="9.00">components</text>
</g>
<g id="clust5" class="cluster"><title>cluster_src/client/containers</title>
<path fill="#ffffff" stroke="black" stroke-width="2" d="M106,-247C106,-247 219,-247 219,-247 225,-247 231,-253 231,-259 231,-259 231,-287 231,-287 231,-293 225,-299 219,-299 219,-299 106,-299 106,-299 100,-299 94,-293 94,-287 94,-287 94,-259 94,-259 94,-253 100,-247 106,-247"/>
<text text-anchor="middle" x="162.5" y="-287.8" font-family="Helvetica,sans-Serif" font-weight="bold" font-size="9.00">containers</text>
</g>
<g id="clust6" class="cluster"><title>cluster_src/client/css</title>
<path fill="#ffffff" stroke="black" stroke-width="2" d="M258,-144C258,-144 304,-144 304,-144 310,-144 316,-150 316,-156 316,-156 316,-184 316,-184 316,-190 310,-196 304,-196 304,-196 258,-196 258,-196 252,-196 246,-190 246,-184 246,-184 246,-156 246,-156 246,-150 252,-144 258,-144"/>
<text text-anchor="middle" x="281" y="-184.8" font-family="Helvetica,sans-Serif" font-weight="bold" font-size="9.00">css</text>
</g>
<g id="clust7" class="cluster"><title>cluster_src/client/store</title>
<path fill="#ffffff" stroke="black" stroke-width="2" d="M251,-330C251,-330 477,-330 477,-330 483,-330 489,-336 489,-342 489,-342 489,-400 489,-400 489,-406 483,-412 477,-412 477,-412 251,-412 251,-412 245,-412 239,-406 239,-400 239,-400 239,-342 239,-342 239,-336 245,-330 251,-330"/>
<text text-anchor="middle" x="364" y="-400.8" font-family="Helvetica,sans-Serif" font-weight="bold" font-size="9.00">store</text>
</g>
<g id="clust8" class="cluster"><title>cluster_src/client/utils</title>
<path fill="#ffffff" stroke="black" stroke-width="2" d="M421,-181C421,-181 573,-181 573,-181 579,-181 585,-187 585,-193 585,-193 585,-251 585,-251 585,-257 579,-263 573,-263 573,-263 421,-263 421,-263 415,-263 409,-257 409,-251 409,-251 409,-193 409,-193 409,-187 415,-181 421,-181"/>
<text text-anchor="middle" x="497" y="-251.8" font-family="Helvetica,sans-Serif" font-weight="bold" font-size="9.00">utils</text>
</g>
<g id="clust9" class="cluster"><title>cluster_src/server</title>
<path fill="#ffffff" stroke="black" stroke-width="2" d="M28,-76C28,-76 74,-76 74,-76 80,-76 86,-82 86,-88 86,-88 86,-116 86,-116 86,-122 80,-128 74,-128 74,-128 28,-128 28,-128 22,-128 16,-122 16,-116 16,-116 16,-88 16,-88 16,-82 22,-76 28,-76"/>
<text text-anchor="middle" x="51" y="-116.8" font-family="Helvetica,sans-Serif" font-weight="bold" font-size="9.00">server</text>
</g>
<!-- constants/common.js -->
<g id="node1" class="node"><title>constants/common.js</title>
<g id="a_node1"><a xlink:href="constants/common.js" xlink:title="common.js">
<path fill="#ffffcc" stroke="black" d="M387,-34C387,-34 338,-34 338,-34 335,-34 332,-31 332,-28 332,-28 332,-22 332,-22 332,-19 335,-16 338,-16 338,-16 387,-16 387,-16 390,-16 393,-19 393,-22 393,-22 393,-28 393,-28 393,-31 390,-34 387,-34"/>
<text text-anchor="middle" x="362.5" y="-22.8" font-family="Helvetica,sans-Serif" font-size="9.00">common.js</text>
</a>
</g>
</g>
<!-- http -->
<g id="node2" class="node"><title>http</title>
<path fill="#ffffcc" stroke="grey" d="M150,-60C150,-60 108,-60 108,-60 105,-60 102,-57 102,-54 102,-54 102,-48 102,-48 102,-45 105,-42 108,-42 108,-42 150,-42 150,-42 153,-42 156,-45 156,-48 156,-48 156,-54 156,-54 156,-57 153,-60 150,-60"/>
<text text-anchor="middle" x="129" y="-48.8" font-family="Helvetica,sans-Serif" font-size="9.00" fill="grey">http</text>
</g>
<!-- src/client/components/Button.js -->
<g id="node3" class="node"><title>src/client/components/Button.js</title>
<g id="a_node3"><a xlink:href="src/client/components/Button.js" xlink:title="Button.js">
<path fill="#ffffcc" stroke="black" d="M383.5,-240C383.5,-240 341.5,-240 341.5,-240 338.5,-240 335.5,-237 335.5,-234 335.5,-234 335.5,-228 335.5,-228 335.5,-225 338.5,-222 341.5,-222 341.5,-222 383.5,-222 383.5,-222 386.5,-222 389.5,-225 389.5,-228 389.5,-228 389.5,-234 389.5,-234 389.5,-237 386.5,-240 383.5,-240"/>
<text text-anchor="middle" x="362.5" y="-228.8" font-family="Helvetica,sans-Serif" font-size="9.00">Button.js</text>
</a>
</g>
</g>
<!-- src/client/store/actions.js -->
<g id="node12" class="node"><title>src/client/store/actions.js</title>
<g id="a_node12"><a xlink:href="src/client/store/actions.js" xlink:title="actions.js">
<path fill="#ffffcc" stroke="black" d="M475,-356C475,-356 432,-356 432,-356 429,-356 426,-353 426,-350 426,-350 426,-344 426,-344 426,-341 429,-338 432,-338 432,-338 475,-338 475,-338 478,-338 481,-341 481,-344 481,-344 481,-350 481,-350 481,-353 478,-356 475,-356"/>
<text text-anchor="middle" x="453.5" y="-344.8" font-family="Helvetica,sans-Serif" font-size="9.00">actions.js</text>
</a>
</g>
</g>
<!-- src/client/components/Button.js&#45;&gt;src/client/store/actions.js -->
<g id="edge1" class="edge"><title>src/client/components/Button.js&#45;&gt;src/client/store/actions.js</title>
<path fill="none" stroke="#000000" stroke-width="2" stroke-opacity="0.466667" d="M389.786,-238.301C393.896,-240.303 397.827,-242.827 401,-246 407.77,-252.77 404.951,-257.325 409,-266 419.286,-288.04 432.739,-312.54 441.944,-328.763"/>
<polygon fill="#000000" fill-opacity="0.466667" stroke="#000000" stroke-width="2" stroke-opacity="0.466667" points="439.054,-330.759 447.06,-337.698 445.129,-327.281 439.054,-330.759"/>
</g>
<!-- src/client/utils/clearInput.js -->
<g id="node16" class="node"><title>src/client/utils/clearInput.js</title>
<g id="a_node16"><a xlink:href="src/client/utils/clearInput.js" xlink:title="clearInput.js">
<path fill="#ffffcc" stroke="black" d="M480.5,-237C480.5,-237 426.5,-237 426.5,-237 423.5,-237 420.5,-234 420.5,-231 420.5,-231 420.5,-225 420.5,-225 420.5,-222 423.5,-219 426.5,-219 426.5,-219 480.5,-219 480.5,-219 483.5,-219 486.5,-222 486.5,-225 486.5,-225 486.5,-231 486.5,-231 486.5,-234 483.5,-237 480.5,-237"/>
<text text-anchor="middle" x="453.5" y="-225.8" font-family="Helvetica,sans-Serif" font-size="9.00">clearInput.js</text>
</a>
</g>
</g>
<!-- src/client/components/Button.js&#45;&gt;src/client/utils/clearInput.js -->
<g id="edge2" class="edge"><title>src/client/components/Button.js&#45;&gt;src/client/utils/clearInput.js</title>
<path fill="none" stroke="#000000" stroke-width="2" stroke-opacity="0.466667" d="M389.722,-230.116C396.198,-229.898 403.3,-229.658 410.325,-229.422"/>
<polygon fill="#000000" fill-opacity="0.466667" stroke="#000000" stroke-width="2" stroke-opacity="0.466667" points="410.603,-232.914 420.479,-229.079 410.367,-225.918 410.603,-232.914"/>
</g>
<!-- src/client/utils/onChatMsg.js -->
<g id="node18" class="node"><title>src/client/utils/onChatMsg.js</title>
<g id="a_node18"><a xlink:href="src/client/utils/onChatMsg.js" xlink:title="onChatMsg.js">
<path fill="#ffffcc" stroke="black" d="M484,-207C484,-207 423,-207 423,-207 420,-207 417,-204 417,-201 417,-201 417,-195 417,-195 417,-192 420,-189 423,-189 423,-189 484,-189 484,-189 487,-189 490,-192 490,-195 490,-195 490,-201 490,-201 490,-204 487,-207 484,-207"/>
<text text-anchor="middle" x="453.5" y="-195.8" font-family="Helvetica,sans-Serif" font-size="9.00">onChatMsg.js</text>
</a>
</g>
</g>
<!-- src/client/components/Button.js&#45;&gt;src/client/utils/onChatMsg.js -->
<g id="edge3" class="edge"><title>src/client/components/Button.js&#45;&gt;src/client/utils/onChatMsg.js</title>
<path fill="none" stroke="#000000" stroke-width="2" stroke-opacity="0.466667" d="M386.104,-221.827C393.387,-218.934 401.511,-215.771 409,-213 411.36,-212.127 413.798,-211.241 416.259,-210.36"/>
<polygon fill="#000000" fill-opacity="0.466667" stroke="#000000" stroke-width="2" stroke-opacity="0.466667" points="417.48,-213.641 425.747,-207.015 415.153,-207.039 417.48,-213.641"/>
</g>
<!-- src/client/components/Display.js -->
<g id="node4" class="node"><title>src/client/components/Display.js</title>
<g id="a_node4"><a xlink:href="src/client/components/Display.js" xlink:title="Display.js">
<path fill="#ffffcc" stroke="black" d="M303,-230C303,-230 259,-230 259,-230 256,-230 253,-227 253,-224 253,-224 253,-218 253,-218 253,-215 256,-212 259,-212 259,-212 303,-212 303,-212 306,-212 309,-215 309,-218 309,-218 309,-224 309,-224 309,-227 306,-230 303,-230"/>
<text text-anchor="middle" x="281" y="-218.8" font-family="Helvetica,sans-Serif" font-size="9.00">Display.js</text>
</a>
</g>
</g>
<!-- src/client/components/Display.js&#45;&gt;constants/common.js -->
<g id="edge4" class="edge"><title>src/client/components/Display.js&#45;&gt;constants/common.js</title>
<path fill="none" stroke="#000000" stroke-width="2" stroke-opacity="0.466667" d="M301.316,-211.935C306.752,-208.557 312.21,-204.241 316,-199 350.687,-151.037 358.952,-78.6945 360.906,-44.3797"/>
<polygon fill="#000000" fill-opacity="0.466667" stroke="#000000" stroke-width="2" stroke-opacity="0.466667" points="364.407,-44.4365 361.355,-34.2905 357.414,-44.1247 364.407,-44.4365"/>
</g>
<!-- src/client/components/Display.js&#45;&gt;src/client/store/actions.js -->
<g id="edge5" class="edge"><title>src/client/components/Display.js&#45;&gt;src/client/store/actions.js</title>
<path fill="none" stroke="#000000" stroke-width="2" stroke-opacity="0.466667" d="M309.023,-229.833C311.655,-231.548 314.062,-233.585 316,-236 327.348,-250.139 310.909,-263.457 324,-276 349.009,-299.961 370.669,-271.277 401,-288 418.413,-297.601 432.739,-315.488 441.821,-329.06"/>
<polygon fill="#000000" fill-opacity="0.466667" stroke="#000000" stroke-width="2" stroke-opacity="0.466667" points="438.933,-331.042 447.245,-337.612 444.845,-327.293 438.933,-331.042"/>
</g>
<!-- src/client/components/Enter.js -->
<g id="node5" class="node"><title>src/client/components/Enter.js</title>
<g id="a_node5"><a xlink:href="src/client/components/Enter.js" xlink:title="Enter.js">
<path fill="#ffffcc" stroke="black" d="M302,-290C302,-290 260,-290 260,-290 257,-290 254,-287 254,-284 254,-284 254,-278 254,-278 254,-275 257,-272 260,-272 260,-272 302,-272 302,-272 305,-272 308,-275 308,-278 308,-278 308,-284 308,-284 308,-287 305,-290 302,-290"/>
<text text-anchor="middle" x="281" y="-278.8" font-family="Helvetica,sans-Serif" font-size="9.00">Enter.js</text>
</a>
</g>
</g>
<!-- src/client/components/Enter.js&#45;&gt;src/client/store/actions.js -->
<g id="edge6" class="edge"><title>src/client/components/Enter.js&#45;&gt;src/client/store/actions.js</title>
<path fill="none" stroke="#000000" stroke-width="2" stroke-opacity="0.466667" d="M299.255,-290.129C306.724,-293.84 315.653,-297.96 324,-301 357.223,-313.1 367.919,-308.517 401,-321 409.987,-324.391 419.469,-328.891 427.813,-333.192"/>
<polygon fill="#000000" fill-opacity="0.466667" stroke="#000000" stroke-width="2" stroke-opacity="0.466667" points="426.19,-336.293 436.663,-337.894 429.474,-330.111 426.19,-336.293"/>
</g>
<!-- src/client/components/Entry.js -->
<g id="node6" class="node"><title>src/client/components/Entry.js</title>
<g id="a_node6"><a xlink:href="src/client/components/Entry.js" xlink:title="Entry.js">
<path fill="#ffffcc" stroke="black" d="M302,-260C302,-260 260,-260 260,-260 257,-260 254,-257 254,-254 254,-254 254,-248 254,-248 254,-245 257,-242 260,-242 260,-242 302,-242 302,-242 305,-242 308,-245 308,-248 308,-248 308,-254 308,-254 308,-257 305,-260 302,-260"/>
<text text-anchor="middle" x="281" y="-248.8" font-family="Helvetica,sans-Serif" font-size="9.00">Entry.js</text>
</a>
</g>
</g>
<!-- src/client/components/Entry.js&#45;&gt;src/client/components/Button.js -->
<g id="edge10" class="edge"><title>src/client/components/Entry.js&#45;&gt;src/client/components/Button.js</title>
<path fill="none" stroke="#000000" stroke-width="2" stroke-opacity="0.466667" d="M308.031,-244.451C313.659,-243.035 319.705,-241.514 325.635,-240.023"/>
<polygon fill="#000000" fill-opacity="0.466667" stroke="#000000" stroke-width="2" stroke-opacity="0.466667" points="326.566,-243.397 335.41,-237.563 324.858,-236.609 326.566,-243.397"/>
</g>
<!-- src/client/components/Exit.js -->
<g id="node7" class="node"><title>src/client/components/Exit.js</title>
<g id="a_node7"><a xlink:href="src/client/components/Exit.js" xlink:title="Exit.js">
<path fill="#ffffcc" stroke="black" d="M383.5,-270C383.5,-270 341.5,-270 341.5,-270 338.5,-270 335.5,-267 335.5,-264 335.5,-264 335.5,-258 335.5,-258 335.5,-255 338.5,-252 341.5,-252 341.5,-252 383.5,-252 383.5,-252 386.5,-252 389.5,-255 389.5,-258 389.5,-258 389.5,-264 389.5,-264 389.5,-267 386.5,-270 383.5,-270"/>
<text text-anchor="middle" x="362.5" y="-258.8" font-family="Helvetica,sans-Serif" font-size="9.00">Exit.js</text>
</a>
</g>
</g>
<!-- src/client/components/Entry.js&#45;&gt;src/client/components/Exit.js -->
<g id="edge11" class="edge"><title>src/client/components/Entry.js&#45;&gt;src/client/components/Exit.js</title>
<path fill="none" stroke="#000000" stroke-width="2" stroke-opacity="0.466667" d="M308.031,-254.274C313.522,-254.965 319.411,-255.706 325.201,-256.434"/>
<polygon fill="#000000" fill-opacity="0.466667" stroke="#000000" stroke-width="2" stroke-opacity="0.466667" points="325.052,-259.943 335.41,-257.718 325.925,-252.998 325.052,-259.943"/>
</g>
<!-- src/client/components/Entry.js&#45;&gt;src/client/store/actions.js -->
<g id="edge7" class="edge"><title>src/client/components/Entry.js&#45;&gt;src/client/store/actions.js</title>
<path fill="none" stroke="#000000" stroke-width="2" stroke-opacity="0.466667" d="M308.3,-259.963C311.128,-261.663 313.778,-263.661 316,-266 322.878,-273.242 316.358,-280.569 324,-287 350.675,-309.45 369.686,-286.669 401,-302 414.996,-308.852 428.178,-320.507 437.702,-330.238"/>
<polygon fill="#000000" fill-opacity="0.466667" stroke="#000000" stroke-width="2" stroke-opacity="0.466667" points="435.394,-332.895 444.778,-337.813 440.509,-328.116 435.394,-332.895"/>
</g>
<!-- src/client/components/Entry.js&#45;&gt;src/client/utils/clearInput.js -->
<g id="edge8" class="edge"><title>src/client/components/Entry.js&#45;&gt;src/client/utils/clearInput.js</title>
<path fill="none" stroke="#000000" stroke-width="2" stroke-opacity="0.466667" d="M308.263,-242.001C311.097,-240.307 313.759,-238.321 316,-236 322.65,-229.113 316.072,-221.367 324,-216 352.338,-196.814 367.002,-212.091 401,-216 404.048,-216.35 407.178,-216.814 410.317,-217.355"/>
<polygon fill="#000000" fill-opacity="0.466667" stroke="#000000" stroke-width="2" stroke-opacity="0.466667" points="409.795,-220.819 420.281,-219.303 411.139,-213.949 409.795,-220.819"/>
</g>
<!-- src/client/components/Entry.js&#45;&gt;src/client/utils/onChatMsg.js -->
<g id="edge9" class="edge"><title>src/client/components/Entry.js&#45;&gt;src/client/utils/onChatMsg.js</title>
<path fill="none" stroke="#000000" stroke-width="2" stroke-opacity="0.466667" d="M308.243,-242.493C311.152,-240.708 313.838,-238.566 316,-236 325.446,-224.789 312.659,-213.289 324,-204 346.674,-185.429 379.871,-184.321 406.842,-187.653"/>
<polygon fill="#000000" fill-opacity="0.466667" stroke="#000000" stroke-width="2" stroke-opacity="0.466667" points="406.437,-191.131 416.839,-189.12 407.454,-184.205 406.437,-191.131"/>
</g>
<!-- src/client/components/Exit.js&#45;&gt;src/client/store/actions.js -->
<g id="edge12" class="edge"><title>src/client/components/Exit.js&#45;&gt;src/client/store/actions.js</title>
<path fill="none" stroke="#000000" stroke-width="2" stroke-opacity="0.466667" d="M386.744,-270.032C391.718,-272.53 396.75,-275.527 401,-279 418.309,-293.143 433.11,-314.247 442.344,-329.188"/>
<polygon fill="#000000" fill-opacity="0.466667" stroke="#000000" stroke-width="2" stroke-opacity="0.466667" points="439.455,-331.178 447.578,-337.98 445.47,-327.597 439.455,-331.178"/>
</g>
<!-- src/client/containers/App.js -->
<g id="node8" class="node"><title>src/client/containers/App.js</title>
<g id="a_node8"><a xlink:href="src/client/containers/App.js" xlink:title="App.js">
<path fill="#ffffcc" stroke="black" d="M217,-273C217,-273 175,-273 175,-273 172,-273 169,-270 169,-267 169,-267 169,-261 169,-261 169,-258 172,-255 175,-255 175,-255 217,-255 217,-255 220,-255 223,-258 223,-261 223,-261 223,-267 223,-267 223,-270 220,-273 217,-273"/>
<text text-anchor="middle" x="196" y="-261.8" font-family="Helvetica,sans-Serif" font-size="9.00">App.js</text>
</a>
</g>
</g>
<!-- src/client/containers/App.js&#45;&gt;constants/common.js -->
<g id="edge13" class="edge"><title>src/client/containers/App.js&#45;&gt;constants/common.js</title>
<path fill="none" stroke="#000000" stroke-width="2" stroke-opacity="0.466667" d="M198.589,-254.692C202.578,-233.224 214.493,-179.164 239,-141 266.419,-98.3017 312.831,-60.2681 339.971,-40.1413"/>
<polygon fill="#000000" fill-opacity="0.466667" stroke="#000000" stroke-width="2" stroke-opacity="0.466667" points="342.034,-42.9689 348.057,-34.2526 337.913,-37.3104 342.034,-42.9689"/>
</g>
<!-- src/client/containers/App.js&#45;&gt;src/client/components/Display.js -->
<g id="edge14" class="edge"><title>src/client/containers/App.js&#45;&gt;src/client/components/Display.js</title>
<path fill="none" stroke="#000000" stroke-width="2" stroke-opacity="0.466667" d="M209.027,-254.864C217.181,-248.956 228.371,-241.391 239,-236 240.352,-235.314 241.743,-234.644 243.159,-233.991"/>
<polygon fill="#000000" fill-opacity="0.466667" stroke="#000000" stroke-width="2" stroke-opacity="0.466667" points="244.86,-237.072 252.707,-229.954 242.133,-230.625 244.86,-237.072"/>
</g>
<!-- src/client/containers/App.js&#45;&gt;src/client/components/Enter.js -->
<g id="edge15" class="edge"><title>src/client/containers/App.js&#45;&gt;src/client/components/Enter.js</title>
<path fill="none" stroke="#000000" stroke-width="2" stroke-opacity="0.466667" d="M223.262,-269.379C229.835,-270.725 237.001,-272.193 243.958,-273.618"/>
<polygon fill="#000000" fill-opacity="0.466667" stroke="#000000" stroke-width="2" stroke-opacity="0.466667" points="243.41,-277.078 253.909,-275.656 244.815,-270.221 243.41,-277.078"/>
</g>
<!-- src/client/containers/App.js&#45;&gt;src/client/components/Entry.js -->
<g id="edge16" class="edge"><title>src/client/containers/App.js&#45;&gt;src/client/components/Entry.js</title>
<path fill="none" stroke="#000000" stroke-width="2" stroke-opacity="0.466667" d="M223.262,-259.887C229.835,-258.857 237.001,-257.735 243.958,-256.645"/>
<polygon fill="#000000" fill-opacity="0.466667" stroke="#000000" stroke-width="2" stroke-opacity="0.466667" points="244.571,-260.092 253.909,-255.087 243.488,-253.176 244.571,-260.092"/>
</g>
<!-- src/client/css/css.styl -->
<g id="node10" class="node"><title>src/client/css/css.styl</title>
<g id="a_node10"><a xlink:href="src/client/css/css.styl" xlink:title="css.styl">
<path fill="#ffffcc" stroke="black" d="M302,-170C302,-170 260,-170 260,-170 257,-170 254,-167 254,-164 254,-164 254,-158 254,-158 254,-155 257,-152 260,-152 260,-152 302,-152 302,-152 305,-152 308,-155 308,-158 308,-158 308,-164 308,-164 308,-167 305,-170 302,-170"/>
<text text-anchor="middle" x="281" y="-158.8" font-family="Helvetica,sans-Serif" font-size="9.00">css.styl</text>
</a>
</g>
</g>
<!-- src/client/containers/App.js&#45;&gt;src/client/css/css.styl -->
<g id="edge17" class="edge"><title>src/client/containers/App.js&#45;&gt;src/client/css/css.styl</title>
<path fill="none" stroke="#000000" stroke-width="2" stroke-opacity="0.466667" d="M202.412,-254.603C209.912,-241.903 224.222,-218.801 239,-201 245.904,-192.684 254.336,-184.219 261.754,-177.231"/>
<polygon fill="#000000" fill-opacity="0.466667" stroke="#000000" stroke-width="2" stroke-opacity="0.466667" points="264.294,-179.65 269.285,-170.304 259.555,-174.498 264.294,-179.65"/>
</g>
<!-- src/client/containers/App.js&#45;&gt;src/client/store/actions.js -->
<g id="edge18" class="edge"><title>src/client/containers/App.js&#45;&gt;src/client/store/actions.js</title>
<path fill="none" stroke="#000000" stroke-width="2" stroke-opacity="0.466667" d="M215.646,-273.154C221.316,-276.759 227.078,-281.394 231,-287 239.404,-299.012 227.815,-309.523 239,-319 266.554,-342.348 365.479,-325.472 401,-332 405.84,-332.889 410.876,-334.051 415.822,-335.334"/>
<polygon fill="#000000" fill-opacity="0.466667" stroke="#000000" stroke-width="2" stroke-opacity="0.466667" points="415.181,-338.788 425.752,-338.091 417.053,-332.043 415.181,-338.788"/>
</g>
<!-- src/client/containers/Root.js -->
<g id="node9" class="node"><title>src/client/containers/Root.js</title>
<g id="a_node9"><a xlink:href="src/client/containers/Root.js" xlink:title="Root.js">
<path fill="#ffffcc" stroke="black" d="M150,-273C150,-273 108,-273 108,-273 105,-273 102,-270 102,-267 102,-267 102,-261 102,-261 102,-258 105,-255 108,-255 108,-255 150,-255 150,-255 153,-255 156,-258 156,-261 156,-261 156,-267 156,-267 156,-270 153,-273 150,-273"/>
<text text-anchor="middle" x="129" y="-261.8" font-family="Helvetica,sans-Serif" font-size="9.00">Root.js</text>
</a>
</g>
</g>
<!-- src/client/containers/Root.js&#45;&gt;src/client/containers/App.js -->
<g id="edge21" class="edge"><title>src/client/containers/Root.js&#45;&gt;src/client/containers/App.js</title>
<path fill="none" stroke="#000000" stroke-width="2" stroke-opacity="0.466667" d="M156.063,-264C156.991,-264 157.925,-264 158.864,-264"/>
<polygon fill="#000000" fill-opacity="0.466667" stroke="#000000" stroke-width="2" stroke-opacity="0.466667" points="158.931,-267.5 168.931,-264 158.931,-260.5 158.931,-267.5"/>
</g>
<!-- src/client/store/initialState.js -->
<g id="node13" class="node"><title>src/client/store/initialState.js</title>
<g id="a_node13"><a xlink:href="src/client/store/initialState.js" xlink:title="initialState.js">
<path fill="#ffffcc" stroke="black" d="M309,-386C309,-386 253,-386 253,-386 250,-386 247,-383 247,-380 247,-380 247,-374 247,-374 247,-371 250,-368 253,-368 253,-368 309,-368 309,-368 312,-368 315,-371 315,-374 315,-374 315,-380 315,-380 315,-383 312,-386 309,-386"/>
<text text-anchor="middle" x="281" y="-374.8" font-family="Helvetica,sans-Serif" font-size="9.00">initialState.js</text>
</a>
</g>
</g>
<!-- src/client/containers/Root.js&#45;&gt;src/client/store/initialState.js -->
<g id="edge19" class="edge"><title>src/client/containers/Root.js&#45;&gt;src/client/store/initialState.js</title>
<path fill="none" stroke="#000000" stroke-width="2" stroke-opacity="0.466667" d="M136.256,-273.101C143.469,-283.235 156.012,-299.794 169,-312 196.86,-338.183 205.185,-344.159 239,-362 240.299,-362.685 241.636,-363.353 242.998,-364.001"/>
<polygon fill="#000000" fill-opacity="0.466667" stroke="#000000" stroke-width="2" stroke-opacity="0.466667" points="241.643,-367.228 252.21,-367.991 244.425,-360.805 241.643,-367.228"/>
</g>
<!-- src/client/store/store.js -->
<g id="node15" class="node"><title>src/client/store/store.js</title>
<g id="a_node15"><a xlink:href="src/client/store/store.js" xlink:title="store.js">
<path fill="#ffffcc" stroke="black" d="M302,-356C302,-356 260,-356 260,-356 257,-356 254,-353 254,-350 254,-350 254,-344 254,-344 254,-341 257,-338 260,-338 260,-338 302,-338 302,-338 305,-338 308,-341 308,-344 308,-344 308,-350 308,-350 308,-353 305,-356 302,-356"/>
<text text-anchor="middle" x="281" y="-344.8" font-family="Helvetica,sans-Serif" font-size="9.00">store.js</text>
</a>
</g>
</g>
<!-- src/client/containers/Root.js&#45;&gt;src/client/store/store.js -->
<g id="edge20" class="edge"><title>src/client/containers/Root.js&#45;&gt;src/client/store/store.js</title>
<path fill="none" stroke="#000000" stroke-width="2" stroke-opacity="0.466667" d="M144.136,-273.202C164.618,-286.356 203.94,-310.938 239,-329 242.136,-330.615 245.448,-332.224 248.776,-333.777"/>
<polygon fill="#000000" fill-opacity="0.466667" stroke="#000000" stroke-width="2" stroke-opacity="0.466667" points="247.506,-337.043 258.061,-337.966 250.385,-330.663 247.506,-337.043"/>
</g>
<!-- src/client/index.js -->
<g id="node11" class="node"><title>src/client/index.js</title>
<g id="a_node11"><a xlink:href="src/client/index.js" xlink:title="index.js">
<path fill="#ffffcc" stroke="black" d="M72,-273C72,-273 30,-273 30,-273 27,-273 24,-270 24,-267 24,-267 24,-261 24,-261 24,-258 27,-255 30,-255 30,-255 72,-255 72,-255 75,-255 78,-258 78,-261 78,-261 78,-267 78,-267 78,-270 75,-273 72,-273"/>
<text text-anchor="middle" x="51" y="-261.8" font-family="Helvetica,sans-Serif" font-size="9.00">index.js</text>
</a>
</g>
</g>
<!-- src/client/index.js&#45;&gt;src/client/containers/Root.js -->
<g id="edge22" class="edge"><title>src/client/index.js&#45;&gt;src/client/containers/Root.js</title>
<path fill="none" stroke="#000000" stroke-width="2" stroke-opacity="0.466667" d="M78.1549,-264C82.454,-264 86.9779,-264 91.4742,-264"/>
<polygon fill="#000000" fill-opacity="0.466667" stroke="#000000" stroke-width="2" stroke-opacity="0.466667" points="91.7969,-267.5 101.797,-264 91.7969,-260.5 91.7969,-267.5"/>
</g>
<!-- src/client/store/reducers.js -->
<g id="node14" class="node"><title>src/client/store/reducers.js</title>
<g id="a_node14"><a xlink:href="src/client/store/reducers.js" xlink:title="reducers.js">
<path fill="#ffffcc" stroke="black" d="M387.5,-356C387.5,-356 337.5,-356 337.5,-356 334.5,-356 331.5,-353 331.5,-350 331.5,-350 331.5,-344 331.5,-344 331.5,-341 334.5,-338 337.5,-338 337.5,-338 387.5,-338 387.5,-338 390.5,-338 393.5,-341 393.5,-344 393.5,-344 393.5,-350 393.5,-350 393.5,-353 390.5,-356 387.5,-356"/>
<text text-anchor="middle" x="362.5" y="-344.8" font-family="Helvetica,sans-Serif" font-size="9.00">reducers.js</text>
</a>
</g>
</g>
<!-- src/client/store/reducers.js&#45;&gt;src/client/store/actions.js -->
<g id="edge23" class="edge"><title>src/client/store/reducers.js&#45;&gt;src/client/store/actions.js</title>
<path fill="none" stroke="#000000" stroke-width="2" stroke-opacity="0.466667" d="M393.631,-347C400.761,-347 408.441,-347 415.825,-347"/>
<polygon fill="#000000" fill-opacity="0.466667" stroke="#000000" stroke-width="2" stroke-opacity="0.466667" points="415.978,-350.5 425.978,-347 415.978,-343.5 415.978,-350.5"/>
</g>
<!-- src/client/store/store.js&#45;&gt;src/client/store/reducers.js -->
<g id="edge24" class="edge"><title>src/client/store/store.js&#45;&gt;src/client/store/reducers.js</title>
<path fill="none" stroke="#000000" stroke-width="2" stroke-opacity="0.466667" d="M308.031,-347C312.209,-347 316.617,-347 321.036,-347"/>
<polygon fill="#000000" fill-opacity="0.466667" stroke="#000000" stroke-width="2" stroke-opacity="0.466667" points="321.267,-350.5 331.267,-347 321.267,-343.5 321.267,-350.5"/>
</g>
<!-- src/client/utils/currentTime.js -->
<g id="node17" class="node"><title>src/client/utils/currentTime.js</title>
<g id="a_node17"><a xlink:href="src/client/utils/currentTime.js" xlink:title="currentTime.js">
<path fill="#ffffcc" stroke="black" d="M571,-207C571,-207 509,-207 509,-207 506,-207 503,-204 503,-201 503,-201 503,-195 503,-195 503,-192 506,-189 509,-189 509,-189 571,-189 571,-189 574,-189 577,-192 577,-195 577,-195 577,-201 577,-201 577,-204 574,-207 571,-207"/>
<text text-anchor="middle" x="540" y="-195.8" font-family="Helvetica,sans-Serif" font-size="9.00">currentTime.js</text>
</a>
</g>
</g>
<!-- src/client/utils/onChatMsg.js&#45;&gt;src/client/utils/currentTime.js -->
<g id="edge25" class="edge"><title>src/client/utils/onChatMsg.js&#45;&gt;src/client/utils/currentTime.js</title>
<path fill="none" stroke="#000000" stroke-width="2" stroke-opacity="0.466667" d="M490.336,-198C491.112,-198 491.89,-198 492.671,-198"/>
<polygon fill="#000000" fill-opacity="0.466667" stroke="#000000" stroke-width="2" stroke-opacity="0.466667" points="492.839,-201.5 502.839,-198 492.839,-194.5 492.839,-201.5"/>
</g>
<!-- src/server/server.js -->
<g id="node19" class="node"><title>src/server/server.js</title>
<g id="a_node19"><a xlink:href="src/server/server.js" xlink:title="server.js">
<path fill="#ffffcc" stroke="black" d="M72,-102C72,-102 30,-102 30,-102 27,-102 24,-99 24,-96 24,-96 24,-90 24,-90 24,-87 27,-84 30,-84 30,-84 72,-84 72,-84 75,-84 78,-87 78,-90 78,-90 78,-96 78,-96 78,-99 75,-102 72,-102"/>
<text text-anchor="middle" x="51" y="-90.8" font-family="Helvetica,sans-Serif" font-size="9.00">server.js</text>
</a>
</g>
</g>
<!-- src/server/server.js&#45;&gt;constants/common.js -->
<g id="edge26" class="edge"><title>src/server/server.js&#45;&gt;constants/common.js</title>
<path fill="none" stroke="#000000" stroke-width="2" stroke-opacity="0.466667" d="M55.741,-83.6569C61.6348,-70.3445 74.4614,-46.3824 94,-36 166.686,2.62362 266.813,-6.92458 321.636,-16.4812"/>
<polygon fill="#000000" fill-opacity="0.466667" stroke="#000000" stroke-width="2" stroke-opacity="0.466667" points="321.185,-19.9567 331.652,-18.3161 322.447,-13.0713 321.185,-19.9567"/>
</g>
<!-- src/server/server.js&#45;&gt;http -->
<g id="edge27" class="edge"><title>src/server/server.js&#45;&gt;http</title>
<path fill="none" stroke="grey" d="M68.4909,-83.8866C78.45,-78.3829 91.3483,-71.2549 102.589,-65.0427"/>
<polygon fill="grey" stroke="grey" points="104.482,-67.9959 111.541,-60.0956 101.096,-61.8692 104.482,-67.9959"/>
</g>
</g>
</svg>
