<?xml version="1.0" encoding="UTF-8" standalone="no"?>
<!DOCTYPE svg PUBLIC "-//W3C//DTD SVG 1.1//EN"
 "http://www.w3.org/Graphics/SVG/1.1/DTD/svg11.dtd">
<!-- Generated by graphviz version 2.38.0 (20140413.2041)
 -->
<!-- Title: dependency&#45;cruiser output Pages: 1 -->
<svg width="726pt" height="964pt"
 viewBox="0.00 0.00 726.00 964.00" xmlns="http://www.w3.org/2000/svg" xmlns:xlink="http://www.w3.org/1999/xlink">
<g id="graph0" class="graph" transform="scale(1 1) rotate(0) translate(4 960)">
<title>dependency&#45;cruiser output</title>
<polygon fill="white" stroke="none" points="-4,4 -4,-960 722,-960 722,4 -4,4"/>
<g id="clust1" class="cluster"><title>cluster_constants</title>
<path fill="#ffffff" stroke="black" stroke-width="2" d="M445,-8C445,-8 498,-8 498,-8 504,-8 510,-14 510,-20 510,-20 510,-48 510,-48 510,-54 504,-60 498,-60 498,-60 445,-60 445,-60 439,-60 433,-54 433,-48 433,-48 433,-20 433,-20 433,-14 439,-8 445,-8"/>
<text text-anchor="middle" x="471.5" y="-48.8" font-family="Helvetica,sans-Serif" font-weight="bold" font-size="9.00">constants</text>
</g>
<g id="clust2" class="cluster"><title>cluster_src</title>
<path fill="#ffffff" stroke="black" stroke-width="2" d="M20,-68C20,-68 698,-68 698,-68 704,-68 710,-74 710,-80 710,-80 710,-936 710,-936 710,-942 704,-948 698,-948 698,-948 20,-948 20,-948 14,-948 8,-942 8,-936 8,-936 8,-80 8,-80 8,-74 14,-68 20,-68"/>
<text text-anchor="middle" x="359" y="-936.8" font-family="Helvetica,sans-Serif" font-weight="bold" font-size="9.00">src</text>
</g>
<g id="clust3" class="cluster"><title>cluster_src/client</title>
<path fill="#ffffff" stroke="black" stroke-width="2" d="M28,-136C28,-136 690,-136 690,-136 696,-136 702,-142 702,-148 702,-148 702,-910 702,-910 702,-916 696,-922 690,-922 690,-922 28,-922 28,-922 22,-922 16,-916 16,-910 16,-910 16,-148 16,-148 16,-142 22,-136 28,-136"/>
<text text-anchor="middle" x="359" y="-910.8" font-family="Helvetica,sans-Serif" font-weight="bold" font-size="9.00">client</text>
</g>
<g id="clust4" class="cluster"><title>cluster_src/client/components</title>
<path fill="#ffffff" stroke="black" stroke-width="2" d="M308,-688C308,-688 494.5,-688 494.5,-688 500.5,-688 506.5,-694 506.5,-700 506.5,-700 506.5,-788 506.5,-788 506.5,-794 500.5,-800 494.5,-800 494.5,-800 308,-800 308,-800 302,-800 296,-794 296,-788 296,-788 296,-700 296,-700 296,-694 302,-688 308,-688"/>
<text text-anchor="middle" x="401.25" y="-788.8" font-family="Helvetica,sans-Serif" font-weight="bold" font-size="9.00">components</text>
</g>
<g id="clust5" class="cluster"><title>cluster_src/client/containers</title>
<path fill="#ffffff" stroke="black" stroke-width="2" d="M106,-718C106,-718 219,-718 219,-718 225,-718 231,-724 231,-730 231,-730 231,-758 231,-758 231,-764 225,-770 219,-770 219,-770 106,-770 106,-770 100,-770 94,-764 94,-758 94,-758 94,-730 94,-730 94,-724 100,-718 106,-718"/>
<text text-anchor="middle" x="162.5" y="-758.8" font-family="Helvetica,sans-Serif" font-weight="bold" font-size="9.00">containers</text>
</g>
<g id="clust6" class="cluster"><title>cluster_src/client/css</title>
<path fill="#ffffff" stroke="black" stroke-width="2" d="M267,-144C267,-144 397,-144 397,-144 403,-144 409,-150 409,-156 409,-156 409,-668 409,-668 409,-674 403,-680 397,-680 397,-680 267,-680 267,-680 261,-680 255,-674 255,-668 255,-668 255,-156 255,-156 255,-150 261,-144 267,-144"/>
<text text-anchor="middle" x="332" y="-668.8" font-family="Helvetica,sans-Serif" font-weight="bold" font-size="9.00">css</text>
</g>
<g id="clust7" class="cluster"><title>cluster_src/client/css/fontawesome&#45;free&#45;5.7.2&#45;web</title>
<path fill="#ffffff" stroke="black" stroke-width="2" d="M275,-178C275,-178 389,-178 389,-178 395,-178 401,-184 401,-190 401,-190 401,-642 401,-642 401,-648 395,-654 389,-654 389,-654 275,-654 275,-654 269,-654 263,-648 263,-642 263,-642 263,-190 263,-190 263,-184 269,-178 275,-178"/>
<text text-anchor="middle" x="332" y="-642.8" font-family="Helvetica,sans-Serif" font-weight="bold" font-size="9.00">fontawesome&#45;free&#45;5.7.2&#45;web</text>
</g>
<g id="clust8" class="cluster"><title>cluster_src/client/css/fontawesome&#45;free&#45;5.7.2&#45;web/css</title>
<path fill="#ffffff" stroke="black" stroke-width="2" d="M309,-576C309,-576 355,-576 355,-576 361,-576 367,-582 367,-588 367,-588 367,-616 367,-616 367,-622 361,-628 355,-628 355,-628 309,-628 309,-628 303,-628 297,-622 297,-616 297,-616 297,-588 297,-588 297,-582 303,-576 309,-576"/>
<text text-anchor="middle" x="332" y="-616.8" font-family="Helvetica,sans-Serif" font-weight="bold" font-size="9.00">css</text>
</g>
<g id="clust9" class="cluster"><title>cluster_src/client/css/fontawesome&#45;free&#45;5.7.2&#45;web/js</title>
<path fill="#ffffff" stroke="black" stroke-width="2" d="M287,-186C287,-186 377,-186 377,-186 383,-186 389,-192 389,-198 389,-198 389,-556 389,-556 389,-562 383,-568 377,-568 377,-568 287,-568 287,-568 281,-568 275,-562 275,-556 275,-556 275,-198 275,-198 275,-192 281,-186 287,-186"/>
<text text-anchor="middle" x="332" y="-556.8" font-family="Helvetica,sans-Serif" font-weight="bold" font-size="9.00">js</text>
</g>
<g id="clust10" class="cluster"><title>cluster_src/client/store</title>
<path fill="#ffffff" stroke="black" stroke-width="2" d="M302,-814C302,-814 586,-814 586,-814 592,-814 598,-820 598,-826 598,-826 598,-884 598,-884 598,-890 592,-896 586,-896 586,-896 302,-896 302,-896 296,-896 290,-890 290,-884 290,-884 290,-826 290,-826 290,-820 296,-814 302,-814"/>
<text text-anchor="middle" x="444" y="-884.8" font-family="Helvetica,sans-Serif" font-weight="bold" font-size="9.00">store</text>
</g>
<g id="clust11" class="cluster"><title>cluster_src/client/utils</title>
<path fill="#ffffff" stroke="black" stroke-width="2" d="M530,-665C530,-665 682,-665 682,-665 688,-665 694,-671 694,-677 694,-677 694,-735 694,-735 694,-741 688,-747 682,-747 682,-747 530,-747 530,-747 524,-747 518,-741 518,-735 518,-735 518,-677 518,-677 518,-671 524,-665 530,-665"/>
<text text-anchor="middle" x="606" y="-735.8" font-family="Helvetica,sans-Serif" font-weight="bold" font-size="9.00">utils</text>
</g>
<g id="clust12" class="cluster"><title>cluster_src/server</title>
<path fill="#ffffff" stroke="black" stroke-width="2" d="M28,-76C28,-76 74,-76 74,-76 80,-76 86,-82 86,-88 86,-88 86,-116 86,-116 86,-122 80,-128 74,-128 74,-128 28,-128 28,-128 22,-128 16,-122 16,-116 16,-116 16,-88 16,-88 16,-82 22,-76 28,-76"/>
<text text-anchor="middle" x="51" y="-116.8" font-family="Helvetica,sans-Serif" font-weight="bold" font-size="9.00">server</text>
</g>
<!-- constants/common.js -->
<g id="node1" class="node"><title>constants/common.js</title>
<g id="a_node1"><a xlink:href="constants/common.js" xlink:title="common.js">
<path fill="#ffffcc" stroke="black" d="M496,-34C496,-34 447,-34 447,-34 444,-34 441,-31 441,-28 441,-28 441,-22 441,-22 441,-19 444,-16 447,-16 447,-16 496,-16 496,-16 499,-16 502,-19 502,-22 502,-22 502,-28 502,-28 502,-31 499,-34 496,-34"/>
<text text-anchor="middle" x="471.5" y="-22.8" font-family="Helvetica,sans-Serif" font-size="9.00">common.js</text>
</a>
</g>
</g>
<!-- http -->
<g id="node2" class="node"><title>http</title>
<path fill="#ffffcc" stroke="grey" d="M150,-60C150,-60 108,-60 108,-60 105,-60 102,-57 102,-54 102,-54 102,-48 102,-48 102,-45 105,-42 108,-42 108,-42 150,-42 150,-42 153,-42 156,-45 156,-48 156,-48 156,-54 156,-54 156,-57 153,-60 150,-60"/>
<text text-anchor="middle" x="129" y="-48.8" font-family="Helvetica,sans-Serif" font-size="9.00" fill="grey">http</text>
</g>
<!-- src/client/components/Button.js -->
<g id="node3" class="node"><title>src/client/components/Button.js</title>
<g id="a_node3"><a xlink:href="src/client/components/Button.js" xlink:title="Button.js">
<path fill="#ffffcc" stroke="black" d="M492.5,-724C492.5,-724 450.5,-724 450.5,-724 447.5,-724 444.5,-721 444.5,-718 444.5,-718 444.5,-712 444.5,-712 444.5,-709 447.5,-706 450.5,-706 450.5,-706 492.5,-706 492.5,-706 495.5,-706 498.5,-709 498.5,-712 498.5,-712 498.5,-718 498.5,-718 498.5,-721 495.5,-724 492.5,-724"/>
<text text-anchor="middle" x="471.5" y="-712.8" font-family="Helvetica,sans-Serif" font-size="9.00">Button.js</text>
</a>
</g>
</g>
<!-- src/client/store/actions.js -->
<g id="node25" class="node"><title>src/client/store/actions.js</title>
<g id="a_node25"><a xlink:href="src/client/store/actions.js" xlink:title="actions.js">
<path fill="#ffffcc" stroke="black" d="M584,-840C584,-840 541,-840 541,-840 538,-840 535,-837 535,-834 535,-834 535,-828 535,-828 535,-825 538,-822 541,-822 541,-822 584,-822 584,-822 587,-822 590,-825 590,-828 590,-828 590,-834 590,-834 590,-837 587,-840 584,-840"/>
<text text-anchor="middle" x="562.5" y="-828.8" font-family="Helvetica,sans-Serif" font-size="9.00">actions.js</text>
</a>
</g>
</g>
<!-- src/client/components/Button.js&#45;&gt;src/client/store/actions.js -->
<g id="edge1" class="edge"><title>src/client/components/Button.js&#45;&gt;src/client/store/actions.js</title>
<path fill="none" stroke="#000000" stroke-width="2" stroke-opacity="0.466667" d="M498.786,-722.301C502.896,-724.303 506.827,-726.827 510,-730 516.77,-736.77 513.951,-741.325 518,-750 528.286,-772.04 541.739,-796.54 550.944,-812.763"/>
<polygon fill="#000000" fill-opacity="0.466667" stroke="#000000" stroke-width="2" stroke-opacity="0.466667" points="548.054,-814.759 556.06,-821.698 554.129,-811.281 548.054,-814.759"/>
</g>
<!-- src/client/utils/clearInput.js -->
<g id="node29" class="node"><title>src/client/utils/clearInput.js</title>
<g id="a_node29"><a xlink:href="src/client/utils/clearInput.js" xlink:title="clearInput.js">
<path fill="#ffffcc" stroke="black" d="M589.5,-721C589.5,-721 535.5,-721 535.5,-721 532.5,-721 529.5,-718 529.5,-715 529.5,-715 529.5,-709 529.5,-709 529.5,-706 532.5,-703 535.5,-703 535.5,-703 589.5,-703 589.5,-703 592.5,-703 595.5,-706 595.5,-709 595.5,-709 595.5,-715 595.5,-715 595.5,-718 592.5,-721 589.5,-721"/>
<text text-anchor="middle" x="562.5" y="-709.8" font-family="Helvetica,sans-Serif" font-size="9.00">clearInput.js</text>
</a>
</g>
</g>
<!-- src/client/components/Button.js&#45;&gt;src/client/utils/clearInput.js -->
<g id="edge2" class="edge"><title>src/client/components/Button.js&#45;&gt;src/client/utils/clearInput.js</title>
<path fill="none" stroke="#000000" stroke-width="2" stroke-opacity="0.466667" d="M498.722,-714.116C505.198,-713.898 512.3,-713.658 519.325,-713.422"/>
<polygon fill="#000000" fill-opacity="0.466667" stroke="#000000" stroke-width="2" stroke-opacity="0.466667" points="519.603,-716.914 529.479,-713.079 519.367,-709.918 519.603,-716.914"/>
</g>
<!-- src/client/utils/onChatMsg.js -->
<g id="node31" class="node"><title>src/client/utils/onChatMsg.js</title>
<g id="a_node31"><a xlink:href="src/client/utils/onChatMsg.js" xlink:title="onChatMsg.js">
<path fill="#ffffcc" stroke="black" d="M593,-691C593,-691 532,-691 532,-691 529,-691 526,-688 526,-685 526,-685 526,-679 526,-679 526,-676 529,-673 532,-673 532,-673 593,-673 593,-673 596,-673 599,-676 599,-679 599,-679 599,-685 599,-685 599,-688 596,-691 593,-691"/>
<text text-anchor="middle" x="562.5" y="-679.8" font-family="Helvetica,sans-Serif" font-size="9.00">onChatMsg.js</text>
</a>
</g>
</g>
<!-- src/client/components/Button.js&#45;&gt;src/client/utils/onChatMsg.js -->
<g id="edge3" class="edge"><title>src/client/components/Button.js&#45;&gt;src/client/utils/onChatMsg.js</title>
<path fill="none" stroke="#000000" stroke-width="2" stroke-opacity="0.466667" d="M495.104,-705.827C502.387,-702.934 510.511,-699.771 518,-697 520.36,-696.127 522.798,-695.241 525.259,-694.36"/>
<polygon fill="#000000" fill-opacity="0.466667" stroke="#000000" stroke-width="2" stroke-opacity="0.466667" points="526.48,-697.641 534.747,-691.015 524.153,-691.039 526.48,-697.641"/>
</g>
<!-- src/client/components/Display.js -->
<g id="node4" class="node"><title>src/client/components/Display.js</title>
<g id="a_node4"><a xlink:href="src/client/components/Display.js" xlink:title="Display.js">
<path fill="#ffffcc" stroke="black" d="M354,-714C354,-714 310,-714 310,-714 307,-714 304,-711 304,-708 304,-708 304,-702 304,-702 304,-699 307,-696 310,-696 310,-696 354,-696 354,-696 357,-696 360,-699 360,-702 360,-702 360,-708 360,-708 360,-711 357,-714 354,-714"/>
<text text-anchor="middle" x="332" y="-702.8" font-family="Helvetica,sans-Serif" font-size="9.00">Display.js</text>
</a>
</g>
</g>
<!-- src/client/components/Display.js&#45;&gt;constants/common.js -->
<g id="edge4" class="edge"><title>src/client/components/Display.js&#45;&gt;constants/common.js</title>
<path fill="none" stroke="#000000" stroke-width="2" stroke-opacity="0.466667" d="M347.108,-695.968C364.962,-683.671 395.064,-659.854 409,-631 460.823,-523.701 469.065,-135.691 470.295,-44.3522"/>
<polygon fill="#000000" fill-opacity="0.466667" stroke="#000000" stroke-width="2" stroke-opacity="0.466667" points="473.795,-44.3477 470.417,-34.3058 466.796,-44.2624 473.795,-44.3477"/>
</g>
<!-- src/client/components/Display.js&#45;&gt;src/client/store/actions.js -->
<g id="edge5" class="edge"><title>src/client/components/Display.js&#45;&gt;src/client/store/actions.js</title>
<path fill="none" stroke="#000000" stroke-width="2" stroke-opacity="0.466667" d="M360.075,-705.047C375.619,-706.293 394.806,-710.024 409,-720 425.962,-731.921 415.801,-748.423 433,-760 461.732,-779.341 479.669,-755.277 510,-772 527.413,-781.601 541.739,-799.488 550.821,-813.06"/>
<polygon fill="#000000" fill-opacity="0.466667" stroke="#000000" stroke-width="2" stroke-opacity="0.466667" points="547.933,-815.042 556.245,-821.612 553.845,-811.293 547.933,-815.042"/>
</g>
<!-- src/client/components/Enter.js -->
<g id="node5" class="node"><title>src/client/components/Enter.js</title>
<g id="a_node5"><a xlink:href="src/client/components/Enter.js" xlink:title="Enter.js">
<path fill="#ffffcc" stroke="black" d="M353,-774C353,-774 311,-774 311,-774 308,-774 305,-771 305,-768 305,-768 305,-762 305,-762 305,-759 308,-756 311,-756 311,-756 353,-756 353,-756 356,-756 359,-759 359,-762 359,-762 359,-768 359,-768 359,-771 356,-774 353,-774"/>
<text text-anchor="middle" x="332" y="-762.8" font-family="Helvetica,sans-Serif" font-size="9.00">Enter.js</text>
</a>
</g>
</g>
<!-- src/client/components/Enter.js&#45;&gt;src/client/store/actions.js -->
<g id="edge6" class="edge"><title>src/client/components/Enter.js&#45;&gt;src/client/store/actions.js</title>
<path fill="none" stroke="#000000" stroke-width="2" stroke-opacity="0.466667" d="M359.28,-770.115C401.484,-778.467 482.427,-795.094 510,-805 519.04,-808.248 528.535,-812.711 536.875,-817.023"/>
<polygon fill="#000000" fill-opacity="0.466667" stroke="#000000" stroke-width="2" stroke-opacity="0.466667" points="535.246,-820.122 545.714,-821.755 538.55,-813.95 535.246,-820.122"/>
</g>
<!-- src/client/components/Entry.js -->
<g id="node6" class="node"><title>src/client/components/Entry.js</title>
<g id="a_node6"><a xlink:href="src/client/components/Entry.js" xlink:title="Entry.js">
<path fill="#ffffcc" stroke="black" d="M353,-744C353,-744 311,-744 311,-744 308,-744 305,-741 305,-738 305,-738 305,-732 305,-732 305,-729 308,-726 311,-726 311,-726 353,-726 353,-726 356,-726 359,-729 359,-732 359,-732 359,-738 359,-738 359,-741 356,-744 353,-744"/>
<text text-anchor="middle" x="332" y="-732.8" font-family="Helvetica,sans-Serif" font-size="9.00">Entry.js</text>
</a>
</g>
</g>
<!-- src/client/components/Entry.js&#45;&gt;src/client/components/Button.js -->
<g id="edge10" class="edge"><title>src/client/components/Entry.js&#45;&gt;src/client/components/Button.js</title>
<path fill="none" stroke="#000000" stroke-width="2" stroke-opacity="0.466667" d="M359.186,-731.191C380.499,-728.091 410.809,-723.682 434.42,-720.248"/>
<polygon fill="#000000" fill-opacity="0.466667" stroke="#000000" stroke-width="2" stroke-opacity="0.466667" points="435.019,-723.698 444.411,-718.795 434.011,-716.771 435.019,-723.698"/>
</g>
<!-- src/client/components/Exit.js -->
<g id="node7" class="node"><title>src/client/components/Exit.js</title>
<g id="a_node7"><a xlink:href="src/client/components/Exit.js" xlink:title="Exit.js">
<path fill="#ffffcc" stroke="black" d="M492.5,-754C492.5,-754 450.5,-754 450.5,-754 447.5,-754 444.5,-751 444.5,-748 444.5,-748 444.5,-742 444.5,-742 444.5,-739 447.5,-736 450.5,-736 450.5,-736 492.5,-736 492.5,-736 495.5,-736 498.5,-739 498.5,-742 498.5,-742 498.5,-748 498.5,-748 498.5,-751 495.5,-754 492.5,-754"/>
<text text-anchor="middle" x="471.5" y="-742.8" font-family="Helvetica,sans-Serif" font-size="9.00">Exit.js</text>
</a>
</g>
</g>
<!-- src/client/components/Entry.js&#45;&gt;src/client/components/Exit.js -->
<g id="edge11" class="edge"><title>src/client/components/Entry.js&#45;&gt;src/client/components/Exit.js</title>
<path fill="none" stroke="#000000" stroke-width="2" stroke-opacity="0.466667" d="M359.186,-736.904C380.499,-738.454 410.809,-740.659 434.42,-742.376"/>
<polygon fill="#000000" fill-opacity="0.466667" stroke="#000000" stroke-width="2" stroke-opacity="0.466667" points="434.184,-745.868 444.411,-743.103 434.691,-738.886 434.184,-745.868"/>
</g>
<!-- src/client/components/Entry.js&#45;&gt;src/client/store/actions.js -->
<g id="edge7" class="edge"><title>src/client/components/Entry.js&#45;&gt;src/client/store/actions.js</title>
<path fill="none" stroke="#000000" stroke-width="2" stroke-opacity="0.466667" d="M359.059,-736.762C374.254,-738.598 393.43,-742.347 409,-750 421.72,-756.252 420.272,-764.763 433,-771 464.309,-786.341 478.686,-770.669 510,-786 523.996,-792.852 537.178,-804.507 546.702,-814.238"/>
<polygon fill="#000000" fill-opacity="0.466667" stroke="#000000" stroke-width="2" stroke-opacity="0.466667" points="544.394,-816.895 553.778,-821.813 549.509,-812.116 544.394,-816.895"/>
</g>
<!-- src/client/components/Entry.js&#45;&gt;src/client/utils/clearInput.js -->
<g id="edge8" class="edge"><title>src/client/components/Entry.js&#45;&gt;src/client/utils/clearInput.js</title>
<path fill="none" stroke="#000000" stroke-width="2" stroke-opacity="0.466667" d="M359.345,-733.055C374.46,-731.157 393.46,-727.407 409,-720 421.534,-714.026 419.944,-704.727 433,-700 465.178,-688.35 476.002,-696.091 510,-700 513.048,-700.35 516.178,-700.814 519.317,-701.355"/>
<polygon fill="#000000" fill-opacity="0.466667" stroke="#000000" stroke-width="2" stroke-opacity="0.466667" points="518.795,-704.819 529.281,-703.303 520.139,-697.949 518.795,-704.819"/>
</g>
<!-- src/client/components/Entry.js&#45;&gt;src/client/utils/onChatMsg.js -->
<g id="edge9" class="edge"><title>src/client/components/Entry.js&#45;&gt;src/client/utils/onChatMsg.js</title>
<path fill="none" stroke="#000000" stroke-width="2" stroke-opacity="0.466667" d="M359.193,-734.178C374.615,-732.675 393.979,-728.946 409,-720 423.374,-711.439 418.12,-698.647 433,-691 458.262,-678.018 490.085,-675.702 515.742,-676.664"/>
<polygon fill="#000000" fill-opacity="0.466667" stroke="#000000" stroke-width="2" stroke-opacity="0.466667" points="515.784,-680.172 525.962,-677.229 516.17,-673.182 515.784,-680.172"/>
</g>
<!-- src/client/components/Exit.js&#45;&gt;src/client/store/actions.js -->
<g id="edge12" class="edge"><title>src/client/components/Exit.js&#45;&gt;src/client/store/actions.js</title>
<path fill="none" stroke="#000000" stroke-width="2" stroke-opacity="0.466667" d="M495.744,-754.032C500.718,-756.53 505.75,-759.527 510,-763 527.309,-777.143 542.11,-798.247 551.344,-813.188"/>
<polygon fill="#000000" fill-opacity="0.466667" stroke="#000000" stroke-width="2" stroke-opacity="0.466667" points="548.455,-815.178 556.578,-821.98 554.47,-811.597 548.455,-815.178"/>
</g>
<!-- src/client/containers/App.js -->
<g id="node8" class="node"><title>src/client/containers/App.js</title>
<g id="a_node8"><a xlink:href="src/client/containers/App.js" xlink:title="App.js">
<path fill="#ffffcc" stroke="black" d="M217,-744C217,-744 175,-744 175,-744 172,-744 169,-741 169,-738 169,-738 169,-732 169,-732 169,-729 172,-726 175,-726 175,-726 217,-726 217,-726 220,-726 223,-729 223,-732 223,-732 223,-738 223,-738 223,-741 220,-744 217,-744"/>
<text text-anchor="middle" x="196" y="-732.8" font-family="Helvetica,sans-Serif" font-size="9.00">App.js</text>
</a>
</g>
</g>
<!-- src/client/containers/App.js&#45;&gt;constants/common.js -->
<g id="edge13" class="edge"><title>src/client/containers/App.js&#45;&gt;constants/common.js</title>
<path fill="none" stroke="#000000" stroke-width="2" stroke-opacity="0.466667" d="M197.293,-725.552C199.614,-653.168 215.996,-188.074 255,-141 300.495,-86.0922 348.991,-134.517 409,-96 430.338,-82.3036 448.443,-59.0536 459.371,-42.9073"/>
<polygon fill="#000000" fill-opacity="0.466667" stroke="#000000" stroke-width="2" stroke-opacity="0.466667" points="462.421,-44.6371 464.946,-34.3474 456.555,-40.8169 462.421,-44.6371"/>
</g>
<!-- src/client/containers/App.js&#45;&gt;src/client/components/Display.js -->
<g id="edge14" class="edge"><title>src/client/containers/App.js&#45;&gt;src/client/components/Display.js</title>
<path fill="none" stroke="#000000" stroke-width="2" stroke-opacity="0.466667" d="M223.195,-727.88C233.126,-725.272 244.555,-722.379 255,-720 267.601,-717.13 281.45,-714.301 293.835,-711.886"/>
<polygon fill="#000000" fill-opacity="0.466667" stroke="#000000" stroke-width="2" stroke-opacity="0.466667" points="294.675,-715.289 303.835,-709.964 293.354,-708.415 294.675,-715.289"/>
</g>
<!-- src/client/containers/App.js&#45;&gt;src/client/components/Enter.js -->
<g id="edge15" class="edge"><title>src/client/containers/App.js&#45;&gt;src/client/components/Enter.js</title>
<path fill="none" stroke="#000000" stroke-width="2" stroke-opacity="0.466667" d="M223.195,-742.12C233.126,-744.728 244.555,-747.621 255,-750 267.908,-752.94 282.127,-755.837 294.739,-758.289"/>
<polygon fill="#000000" fill-opacity="0.466667" stroke="#000000" stroke-width="2" stroke-opacity="0.466667" points="294.411,-761.79 304.892,-760.236 295.729,-754.916 294.411,-761.79"/>
</g>
<!-- src/client/containers/App.js&#45;&gt;src/client/components/Entry.js -->
<g id="edge16" class="edge"><title>src/client/containers/App.js&#45;&gt;src/client/components/Entry.js</title>
<path fill="none" stroke="#000000" stroke-width="2" stroke-opacity="0.466667" d="M223.155,-735C243.538,-735 272.077,-735 294.677,-735"/>
<polygon fill="#000000" fill-opacity="0.466667" stroke="#000000" stroke-width="2" stroke-opacity="0.466667" points="294.911,-738.5 304.911,-735 294.911,-731.5 294.911,-738.5"/>
</g>
<!-- src/client/css/css.styl -->
<g id="node10" class="node"><title>src/client/css/css.styl</title>
<g id="a_node10"><a xlink:href="src/client/css/css.styl" xlink:title="css.styl">
<path fill="#ffffcc" stroke="black" d="M353,-170C353,-170 311,-170 311,-170 308,-170 305,-167 305,-164 305,-164 305,-158 305,-158 305,-155 308,-152 311,-152 311,-152 353,-152 353,-152 356,-152 359,-155 359,-158 359,-158 359,-164 359,-164 359,-167 356,-170 353,-170"/>
<text text-anchor="middle" x="332" y="-158.8" font-family="Helvetica,sans-Serif" font-size="9.00">css.styl</text>
</a>
</g>
</g>
<!-- src/client/containers/App.js&#45;&gt;src/client/css/css.styl -->
<g id="edge17" class="edge"><title>src/client/containers/App.js&#45;&gt;src/client/css/css.styl</title>
<path fill="none" stroke="#000000" stroke-width="2" stroke-opacity="0.466667" d="M197.356,-725.785C200.086,-657.101 218.589,-226.506 255,-183 264.719,-171.387 280.161,-165.697 294.595,-162.981"/>
<polygon fill="#000000" fill-opacity="0.466667" stroke="#000000" stroke-width="2" stroke-opacity="0.466667" points="295.441,-166.394 304.831,-161.487 294.43,-159.468 295.441,-166.394"/>
</g>
<!-- src/client/css/fontawesome&#45;free&#45;5.7.2&#45;web/css/all.css -->
<g id="node11" class="node"><title>src/client/css/fontawesome&#45;free&#45;5.7.2&#45;web/css/all.css</title>
<g id="a_node11"><a xlink:href="src/client/css/fontawesome-free-5.7.2-web/css/all.css" xlink:title="all.css">
<path fill="#ffffcc" stroke="black" d="M353,-602C353,-602 311,-602 311,-602 308,-602 305,-599 305,-596 305,-596 305,-590 305,-590 305,-587 308,-584 311,-584 311,-584 353,-584 353,-584 356,-584 359,-587 359,-590 359,-590 359,-596 359,-596 359,-599 356,-602 353,-602"/>
<text text-anchor="middle" x="332" y="-590.8" font-family="Helvetica,sans-Serif" font-size="9.00">all.css</text>
</a>
</g>
</g>
<!-- src/client/containers/App.js&#45;&gt;src/client/css/fontawesome&#45;free&#45;5.7.2&#45;web/css/all.css -->
<g id="edge18" class="edge"><title>src/client/containers/App.js&#45;&gt;src/client/css/fontawesome&#45;free&#45;5.7.2&#45;web/css/all.css</title>
<path fill="none" stroke="#000000" stroke-width="2" stroke-opacity="0.466667" d="M205.792,-725.683C228.039,-702.108 286.809,-639.83 315.202,-609.741"/>
<polygon fill="#000000" fill-opacity="0.466667" stroke="#000000" stroke-width="2" stroke-opacity="0.466667" points="318.032,-611.842 322.35,-602.167 312.941,-607.038 318.032,-611.842"/>
</g>
<!-- src/client/containers/App.js&#45;&gt;src/client/store/actions.js -->
<g id="edge19" class="edge"><title>src/client/containers/App.js&#45;&gt;src/client/store/actions.js</title>
<path fill="none" stroke="#000000" stroke-width="2" stroke-opacity="0.466667" d="M210.907,-744.222C217.492,-749.02 225.171,-755.282 231,-762 244.837,-777.949 236.956,-792.034 255,-803 279.244,-817.734 482.025,-811.279 510,-816 514.852,-816.819 519.896,-817.939 524.845,-819.201"/>
<polygon fill="#000000" fill-opacity="0.466667" stroke="#000000" stroke-width="2" stroke-opacity="0.466667" points="524.209,-822.656 534.779,-821.939 526.069,-815.907 524.209,-822.656"/>
</g>
<!-- src/client/containers/Root.js -->
<g id="node9" class="node"><title>src/client/containers/Root.js</title>
<g id="a_node9"><a xlink:href="src/client/containers/Root.js" xlink:title="Root.js">
<path fill="#ffffcc" stroke="black" d="M150,-744C150,-744 108,-744 108,-744 105,-744 102,-741 102,-738 102,-738 102,-732 102,-732 102,-729 105,-726 108,-726 108,-726 150,-726 150,-726 153,-726 156,-729 156,-732 156,-732 156,-738 156,-738 156,-741 153,-744 150,-744"/>
<text text-anchor="middle" x="129" y="-732.8" font-family="Helvetica,sans-Serif" font-size="9.00">Root.js</text>
</a>
</g>
</g>
<!-- src/client/containers/Root.js&#45;&gt;src/client/containers/App.js -->
<g id="edge22" class="edge"><title>src/client/containers/Root.js&#45;&gt;src/client/containers/App.js</title>
<path fill="none" stroke="#000000" stroke-width="2" stroke-opacity="0.466667" d="M156.063,-735C156.991,-735 157.925,-735 158.864,-735"/>
<polygon fill="#000000" fill-opacity="0.466667" stroke="#000000" stroke-width="2" stroke-opacity="0.466667" points="158.931,-738.5 168.931,-735 158.931,-731.5 158.931,-738.5"/>
</g>
<!-- src/client/store/initialState.js -->
<g id="node26" class="node"><title>src/client/store/initialState.js</title>
<g id="a_node26"><a xlink:href="src/client/store/initialState.js" xlink:title="initialState.js">
<path fill="#ffffcc" stroke="black" d="M360,-870C360,-870 304,-870 304,-870 301,-870 298,-867 298,-864 298,-864 298,-858 298,-858 298,-855 301,-852 304,-852 304,-852 360,-852 360,-852 363,-852 366,-855 366,-858 366,-858 366,-864 366,-864 366,-867 363,-870 360,-870"/>
<text text-anchor="middle" x="332" y="-858.8" font-family="Helvetica,sans-Serif" font-size="9.00">initialState.js</text>
</a>
</g>
</g>
<!-- src/client/containers/Root.js&#45;&gt;src/client/store/initialState.js -->
<g id="edge20" class="edge"><title>src/client/containers/Root.js&#45;&gt;src/client/store/initialState.js</title>
<path fill="none" stroke="#000000" stroke-width="2" stroke-opacity="0.466667" d="M135.558,-744.168C142.497,-755.149 155.152,-773.724 169,-787 202.46,-819.077 212.272,-828.031 255,-846 265.346,-850.351 277.023,-853.459 288.064,-855.672"/>
<polygon fill="#000000" fill-opacity="0.466667" stroke="#000000" stroke-width="2" stroke-opacity="0.466667" points="287.505,-859.128 297.968,-857.464 288.751,-852.24 287.505,-859.128"/>
</g>
<!-- src/client/store/store.js -->
<g id="node28" class="node"><title>src/client/store/store.js</title>
<g id="a_node28"><a xlink:href="src/client/store/store.js" xlink:title="store.js">
<path fill="#ffffcc" stroke="black" d="M353,-840C353,-840 311,-840 311,-840 308,-840 305,-837 305,-834 305,-834 305,-828 305,-828 305,-825 308,-822 311,-822 311,-822 353,-822 353,-822 356,-822 359,-825 359,-828 359,-828 359,-834 359,-834 359,-837 356,-840 353,-840"/>
<text text-anchor="middle" x="332" y="-828.8" font-family="Helvetica,sans-Serif" font-size="9.00">store.js</text>
</a>
</g>
</g>
<!-- src/client/containers/Root.js&#45;&gt;src/client/store/store.js -->
<g id="edge21" class="edge"><title>src/client/containers/Root.js&#45;&gt;src/client/store/store.js</title>
<path fill="none" stroke="#000000" stroke-width="2" stroke-opacity="0.466667" d="M141.697,-744.149C163.016,-760.386 210.145,-794.288 255,-813 267.541,-818.232 281.909,-822.125 294.752,-824.927"/>
<polygon fill="#000000" fill-opacity="0.466667" stroke="#000000" stroke-width="2" stroke-opacity="0.466667" points="294.164,-828.379 304.661,-826.945 295.561,-821.52 294.164,-828.379"/>
</g>
<!-- src/client/css/fontawesome&#45;free&#45;5.7.2&#45;web/js/all.js -->
<g id="node12" class="node"><title>src/client/css/fontawesome&#45;free&#45;5.7.2&#45;web/js/all.js</title>
<g id="a_node12"><a xlink:href="src/client/css/fontawesome-free-5.7.2-web/js/all.js" xlink:title="all.js">
<path fill="#ffffcc" stroke="black" d="M353,-542C353,-542 311,-542 311,-542 308,-542 305,-539 305,-536 305,-536 305,-530 305,-530 305,-527 308,-524 311,-524 311,-524 353,-524 353,-524 356,-524 359,-527 359,-530 359,-530 359,-536 359,-536 359,-539 356,-542 353,-542"/>
<text text-anchor="middle" x="332" y="-530.8" font-family="Helvetica,sans-Serif" font-size="9.00">all.js</text>
</a>
</g>
</g>
<!-- src/client/css/fontawesome&#45;free&#45;5.7.2&#45;web/js/all.min.js -->
<g id="node13" class="node"><title>src/client/css/fontawesome&#45;free&#45;5.7.2&#45;web/js/all.min.js</title>
<g id="a_node13"><a xlink:href="src/client/css/fontawesome-free-5.7.2-web/js/all.min.js" xlink:title="all.min.js">
<path fill="#ffffcc" stroke="black" d="M353,-512C353,-512 311,-512 311,-512 308,-512 305,-509 305,-506 305,-506 305,-500 305,-500 305,-497 308,-494 311,-494 311,-494 353,-494 353,-494 356,-494 359,-497 359,-500 359,-500 359,-506 359,-506 359,-509 356,-512 353,-512"/>
<text text-anchor="middle" x="332" y="-500.8" font-family="Helvetica,sans-Serif" font-size="9.00">all.min.js</text>
</a>
</g>
</g>
<!-- src/client/css/fontawesome&#45;free&#45;5.7.2&#45;web/js/brands.js -->
<g id="node14" class="node"><title>src/client/css/fontawesome&#45;free&#45;5.7.2&#45;web/js/brands.js</title>
<g id="a_node14"><a xlink:href="src/client/css/fontawesome-free-5.7.2-web/js/brands.js" xlink:title="brands.js">
<path fill="#ffffcc" stroke="black" d="M353,-482C353,-482 311,-482 311,-482 308,-482 305,-479 305,-476 305,-476 305,-470 305,-470 305,-467 308,-464 311,-464 311,-464 353,-464 353,-464 356,-464 359,-467 359,-470 359,-470 359,-476 359,-476 359,-479 356,-482 353,-482"/>
<text text-anchor="middle" x="332" y="-470.8" font-family="Helvetica,sans-Serif" font-size="9.00">brands.js</text>
</a>
</g>
</g>
<!-- src/client/css/fontawesome&#45;free&#45;5.7.2&#45;web/js/brands.min.js -->
<g id="node15" class="node"><title>src/client/css/fontawesome&#45;free&#45;5.7.2&#45;web/js/brands.min.js</title>
<g id="a_node15"><a xlink:href="src/client/css/fontawesome-free-5.7.2-web/js/brands.min.js" xlink:title="brands.min.js">
<path fill="#ffffcc" stroke="black" d="M361.5,-452C361.5,-452 302.5,-452 302.5,-452 299.5,-452 296.5,-449 296.5,-446 296.5,-446 296.5,-440 296.5,-440 296.5,-437 299.5,-434 302.5,-434 302.5,-434 361.5,-434 361.5,-434 364.5,-434 367.5,-437 367.5,-440 367.5,-440 367.5,-446 367.5,-446 367.5,-449 364.5,-452 361.5,-452"/>
<text text-anchor="middle" x="332" y="-440.8" font-family="Helvetica,sans-Serif" font-size="9.00">brands.min.js</text>
</a>
</g>
</g>
<!-- src/client/css/fontawesome&#45;free&#45;5.7.2&#45;web/js/fontawesome.js -->
<g id="node16" class="node"><title>src/client/css/fontawesome&#45;free&#45;5.7.2&#45;web/js/fontawesome.js</title>
<g id="a_node16"><a xlink:href="src/client/css/fontawesome-free-5.7.2-web/js/fontawesome.js" xlink:title="fontawesome.js">
<path fill="#ffffcc" stroke="black" d="M366,-422C366,-422 298,-422 298,-422 295,-422 292,-419 292,-416 292,-416 292,-410 292,-410 292,-407 295,-404 298,-404 298,-404 366,-404 366,-404 369,-404 372,-407 372,-410 372,-410 372,-416 372,-416 372,-419 369,-422 366,-422"/>
<text text-anchor="middle" x="332" y="-410.8" font-family="Helvetica,sans-Serif" font-size="9.00">fontawesome.js</text>
</a>
</g>
</g>
<!-- src/client/css/fontawesome&#45;free&#45;5.7.2&#45;web/js/fontawesome.min.js -->
<g id="node17" class="node"><title>src/client/css/fontawesome&#45;free&#45;5.7.2&#45;web/js/fontawesome.min.js</title>
<g id="a_node17"><a xlink:href="src/client/css/fontawesome-free-5.7.2-web/js/fontawesome.min.js" xlink:title="fontawesome.min.js">
<path fill="#ffffcc" stroke="black" d="M375,-392C375,-392 289,-392 289,-392 286,-392 283,-389 283,-386 283,-386 283,-380 283,-380 283,-377 286,-374 289,-374 289,-374 375,-374 375,-374 378,-374 381,-377 381,-380 381,-380 381,-386 381,-386 381,-389 378,-392 375,-392"/>
<text text-anchor="middle" x="332" y="-380.8" font-family="Helvetica,sans-Serif" font-size="9.00">fontawesome.min.js</text>
</a>
</g>
</g>
<!-- src/client/css/fontawesome&#45;free&#45;5.7.2&#45;web/js/regular.js -->
<g id="node18" class="node"><title>src/client/css/fontawesome&#45;free&#45;5.7.2&#45;web/js/regular.js</title>
<g id="a_node18"><a xlink:href="src/client/css/fontawesome-free-5.7.2-web/js/regular.js" xlink:title="regular.js">
<path fill="#ffffcc" stroke="black" d="M353.5,-362C353.5,-362 310.5,-362 310.5,-362 307.5,-362 304.5,-359 304.5,-356 304.5,-356 304.5,-350 304.5,-350 304.5,-347 307.5,-344 310.5,-344 310.5,-344 353.5,-344 353.5,-344 356.5,-344 359.5,-347 359.5,-350 359.5,-350 359.5,-356 359.5,-356 359.5,-359 356.5,-362 353.5,-362"/>
<text text-anchor="middle" x="332" y="-350.8" font-family="Helvetica,sans-Serif" font-size="9.00">regular.js</text>
</a>
</g>
</g>
<!-- src/client/css/fontawesome&#45;free&#45;5.7.2&#45;web/js/regular.min.js -->
<g id="node19" class="node"><title>src/client/css/fontawesome&#45;free&#45;5.7.2&#45;web/js/regular.min.js</title>
<g id="a_node19"><a xlink:href="src/client/css/fontawesome-free-5.7.2-web/js/regular.min.js" xlink:title="regular.min.js">
<path fill="#ffffcc" stroke="black" d="M362,-332C362,-332 302,-332 302,-332 299,-332 296,-329 296,-326 296,-326 296,-320 296,-320 296,-317 299,-314 302,-314 302,-314 362,-314 362,-314 365,-314 368,-317 368,-320 368,-320 368,-326 368,-326 368,-329 365,-332 362,-332"/>
<text text-anchor="middle" x="332" y="-320.8" font-family="Helvetica,sans-Serif" font-size="9.00">regular.min.js</text>
</a>
</g>
</g>
<!-- src/client/css/fontawesome&#45;free&#45;5.7.2&#45;web/js/solid.js -->
<g id="node20" class="node"><title>src/client/css/fontawesome&#45;free&#45;5.7.2&#45;web/js/solid.js</title>
<g id="a_node20"><a xlink:href="src/client/css/fontawesome-free-5.7.2-web/js/solid.js" xlink:title="solid.js">
<path fill="#ffffcc" stroke="black" d="M353,-302C353,-302 311,-302 311,-302 308,-302 305,-299 305,-296 305,-296 305,-290 305,-290 305,-287 308,-284 311,-284 311,-284 353,-284 353,-284 356,-284 359,-287 359,-290 359,-290 359,-296 359,-296 359,-299 356,-302 353,-302"/>
<text text-anchor="middle" x="332" y="-290.8" font-family="Helvetica,sans-Serif" font-size="9.00">solid.js</text>
</a>
</g>
</g>
<!-- src/client/css/fontawesome&#45;free&#45;5.7.2&#45;web/js/solid.min.js -->
<g id="node21" class="node"><title>src/client/css/fontawesome&#45;free&#45;5.7.2&#45;web/js/solid.min.js</title>
<g id="a_node21"><a xlink:href="src/client/css/fontawesome-free-5.7.2-web/js/solid.min.js" xlink:title="solid.min.js">
<path fill="#ffffcc" stroke="black" d="M357,-272C357,-272 307,-272 307,-272 304,-272 301,-269 301,-266 301,-266 301,-260 301,-260 301,-257 304,-254 307,-254 307,-254 357,-254 357,-254 360,-254 363,-257 363,-260 363,-260 363,-266 363,-266 363,-269 360,-272 357,-272"/>
<text text-anchor="middle" x="332" y="-260.8" font-family="Helvetica,sans-Serif" font-size="9.00">solid.min.js</text>
</a>
</g>
</g>
<!-- src/client/css/fontawesome&#45;free&#45;5.7.2&#45;web/js/v4&#45;shims.js -->
<g id="node22" class="node"><title>src/client/css/fontawesome&#45;free&#45;5.7.2&#45;web/js/v4&#45;shims.js</title>
<g id="a_node22"><a xlink:href="src/client/css/fontawesome-free-5.7.2-web/js/v4-shims.js" xlink:title="v4&#45;shims.js">
<path fill="#ffffcc" stroke="black" d="M357,-242C357,-242 307,-242 307,-242 304,-242 301,-239 301,-236 301,-236 301,-230 301,-230 301,-227 304,-224 307,-224 307,-224 357,-224 357,-224 360,-224 363,-227 363,-230 363,-230 363,-236 363,-236 363,-239 360,-242 357,-242"/>
<text text-anchor="middle" x="332" y="-230.8" font-family="Helvetica,sans-Serif" font-size="9.00">v4&#45;shims.js</text>
</a>
</g>
</g>
<!-- src/client/css/fontawesome&#45;free&#45;5.7.2&#45;web/js/v4&#45;shims.min.js -->
<g id="node23" class="node"><title>src/client/css/fontawesome&#45;free&#45;5.7.2&#45;web/js/v4&#45;shims.min.js</title>
<g id="a_node23"><a xlink:href="src/client/css/fontawesome-free-5.7.2-web/js/v4-shims.min.js" xlink:title="v4&#45;shims.min.js">
<path fill="#ffffcc" stroke="black" d="M366,-212C366,-212 298,-212 298,-212 295,-212 292,-209 292,-206 292,-206 292,-200 292,-200 292,-197 295,-194 298,-194 298,-194 366,-194 366,-194 369,-194 372,-197 372,-200 372,-200 372,-206 372,-206 372,-209 369,-212 366,-212"/>
<text text-anchor="middle" x="332" y="-200.8" font-family="Helvetica,sans-Serif" font-size="9.00">v4&#45;shims.min.js</text>
</a>
</g>
</g>
<!-- src/client/index.js -->
<g id="node24" class="node"><title>src/client/index.js</title>
<g id="a_node24"><a xlink:href="src/client/index.js" xlink:title="index.js">
<path fill="#ffffcc" stroke="black" d="M72,-744C72,-744 30,-744 30,-744 27,-744 24,-741 24,-738 24,-738 24,-732 24,-732 24,-729 27,-726 30,-726 30,-726 72,-726 72,-726 75,-726 78,-729 78,-732 78,-732 78,-738 78,-738 78,-741 75,-744 72,-744"/>
<text text-anchor="middle" x="51" y="-732.8" font-family="Helvetica,sans-Serif" font-size="9.00">index.js</text>
</a>
</g>
</g>
<!-- src/client/index.js&#45;&gt;src/client/containers/Root.js -->
<g id="edge23" class="edge"><title>src/client/index.js&#45;&gt;src/client/containers/Root.js</title>
<path fill="none" stroke="#000000" stroke-width="2" stroke-opacity="0.466667" d="M78.1549,-735C82.454,-735 86.9779,-735 91.4742,-735"/>
<polygon fill="#000000" fill-opacity="0.466667" stroke="#000000" stroke-width="2" stroke-opacity="0.466667" points="91.7969,-738.5 101.797,-735 91.7969,-731.5 91.7969,-738.5"/>
</g>
<!-- src/client/store/reducers.js -->
<g id="node27" class="node"><title>src/client/store/reducers.js</title>
<g id="a_node27"><a xlink:href="src/client/store/reducers.js" xlink:title="reducers.js">
<path fill="#ffffcc" stroke="black" d="M496.5,-840C496.5,-840 446.5,-840 446.5,-840 443.5,-840 440.5,-837 440.5,-834 440.5,-834 440.5,-828 440.5,-828 440.5,-825 443.5,-822 446.5,-822 446.5,-822 496.5,-822 496.5,-822 499.5,-822 502.5,-825 502.5,-828 502.5,-828 502.5,-834 502.5,-834 502.5,-837 499.5,-840 496.5,-840"/>
<text text-anchor="middle" x="471.5" y="-828.8" font-family="Helvetica,sans-Serif" font-size="9.00">reducers.js</text>
</a>
</g>
</g>
<!-- src/client/store/reducers.js&#45;&gt;src/client/store/actions.js -->
<g id="edge24" class="edge"><title>src/client/store/reducers.js&#45;&gt;src/client/store/actions.js</title>
<path fill="none" stroke="#000000" stroke-width="2" stroke-opacity="0.466667" d="M502.631,-831C509.761,-831 517.441,-831 524.825,-831"/>
<polygon fill="#000000" fill-opacity="0.466667" stroke="#000000" stroke-width="2" stroke-opacity="0.466667" points="524.978,-834.5 534.978,-831 524.978,-827.5 524.978,-834.5"/>
</g>
<!-- src/client/store/store.js&#45;&gt;src/client/store/reducers.js -->
<g id="edge25" class="edge"><title>src/client/store/store.js&#45;&gt;src/client/store/reducers.js</title>
<path fill="none" stroke="#000000" stroke-width="2" stroke-opacity="0.466667" d="M359.186,-831C379.187,-831 407.111,-831 429.987,-831"/>
<polygon fill="#000000" fill-opacity="0.466667" stroke="#000000" stroke-width="2" stroke-opacity="0.466667" points="430.096,-834.5 440.096,-831 430.096,-827.5 430.096,-834.5"/>
</g>
<!-- src/client/utils/currentTime.js -->
<g id="node30" class="node"><title>src/client/utils/currentTime.js</title>
<g id="a_node30"><a xlink:href="src/client/utils/currentTime.js" xlink:title="currentTime.js">
<path fill="#ffffcc" stroke="black" d="M680,-691C680,-691 618,-691 618,-691 615,-691 612,-688 612,-685 612,-685 612,-679 612,-679 612,-676 615,-673 618,-673 618,-673 680,-673 680,-673 683,-673 686,-676 686,-679 686,-679 686,-685 686,-685 686,-688 683,-691 680,-691"/>
<text text-anchor="middle" x="649" y="-679.8" font-family="Helvetica,sans-Serif" font-size="9.00">currentTime.js</text>
</a>
</g>
</g>
<!-- src/client/utils/onChatMsg.js&#45;&gt;src/client/utils/currentTime.js -->
<g id="edge26" class="edge"><title>src/client/utils/onChatMsg.js&#45;&gt;src/client/utils/currentTime.js</title>
<path fill="none" stroke="#000000" stroke-width="2" stroke-opacity="0.466667" d="M599.336,-682C600.112,-682 600.89,-682 601.671,-682"/>
<polygon fill="#000000" fill-opacity="0.466667" stroke="#000000" stroke-width="2" stroke-opacity="0.466667" points="601.839,-685.5 611.839,-682 601.839,-678.5 601.839,-685.5"/>
</g>
<!-- src/server/server.js -->
<g id="node32" class="node"><title>src/server/server.js</title>
<g id="a_node32"><a xlink:href="src/server/server.js" xlink:title="server.js">
<path fill="#ffffcc" stroke="black" d="M72,-102C72,-102 30,-102 30,-102 27,-102 24,-99 24,-96 24,-96 24,-90 24,-90 24,-87 27,-84 30,-84 30,-84 72,-84 72,-84 75,-84 78,-87 78,-90 78,-90 78,-96 78,-96 78,-99 75,-102 72,-102"/>
<text text-anchor="middle" x="51" y="-90.8" font-family="Helvetica,sans-Serif" font-size="9.00">server.js</text>
</a>
</g>
</g>
<!-- src/server/server.js&#45;&gt;constants/common.js -->
<g id="edge27" class="edge"><title>src/server/server.js&#45;&gt;constants/common.js</title>
<path fill="none" stroke="#000000" stroke-width="2" stroke-opacity="0.466667" d="M78.179,-88.7463C149.21,-77.2048 345.912,-45.2437 430.73,-31.462"/>
<polygon fill="#000000" fill-opacity="0.466667" stroke="#000000" stroke-width="2" stroke-opacity="0.466667" points="431.433,-34.8938 440.742,-29.8352 430.31,-27.9844 431.433,-34.8938"/>
</g>
<!-- src/server/server.js&#45;&gt;http -->
<g id="edge28" class="edge"><title>src/server/server.js&#45;&gt;http</title>
<path fill="none" stroke="grey" d="M68.4909,-83.8866C78.45,-78.3829 91.3483,-71.2549 102.589,-65.0427"/>
<polygon fill="grey" stroke="grey" points="104.482,-67.9959 111.541,-60.0956 101.096,-61.8692 104.482,-67.9959"/>
</g>
</g>
</svg>
