<?xml version="1.0" encoding="UTF-8" standalone="no"?>
<!DOCTYPE svg PUBLIC "-//W3C//DTD SVG 1.1//EN"
 "http://www.w3.org/Graphics/SVG/1.1/DTD/svg11.dtd">
<!-- Generated by graphviz version 2.38.0 (20140413.2041)
 -->
<!-- Title: dependency&#45;cruiser output Pages: 1 -->
<svg width="715pt" height="965pt"
 viewBox="0.00 0.00 715.00 965.00" xmlns="http://www.w3.org/2000/svg" xmlns:xlink="http://www.w3.org/1999/xlink">
<g id="graph0" class="graph" transform="scale(1 1) rotate(0) translate(4 961)">
<title>dependency&#45;cruiser output</title>
<polygon fill="white" stroke="none" points="-4,4 -4,-961 711,-961 711,4 -4,4"/>
<g id="clust1" class="cluster"><title>cluster_constants</title>
<path fill="#ffffff" stroke="black" stroke-width="2" d="M305.5,-8C305.5,-8 358.5,-8 358.5,-8 364.5,-8 370.5,-14 370.5,-20 370.5,-20 370.5,-48 370.5,-48 370.5,-54 364.5,-60 358.5,-60 358.5,-60 305.5,-60 305.5,-60 299.5,-60 293.5,-54 293.5,-48 293.5,-48 293.5,-20 293.5,-20 293.5,-14 299.5,-8 305.5,-8"/>
<text text-anchor="middle" x="332" y="-48.8" font-family="Helvetica,sans-Serif" font-weight="bold" font-size="9.00">constants</text>
</g>
<g id="clust2" class="cluster"><title>cluster_src</title>
<path fill="#ffffff" stroke="black" stroke-width="2" d="M20,-69C20,-69 687,-69 687,-69 693,-69 699,-75 699,-81 699,-81 699,-937 699,-937 699,-943 693,-949 687,-949 687,-949 20,-949 20,-949 14,-949 8,-943 8,-937 8,-937 8,-81 8,-81 8,-75 14,-69 20,-69"/>
<text text-anchor="middle" x="353.5" y="-937.8" font-family="Helvetica,sans-Serif" font-weight="bold" font-size="9.00">src</text>
</g>
<g id="clust3" class="cluster"><title>cluster_src/client</title>
<path fill="#ffffff" stroke="black" stroke-width="2" d="M28,-137C28,-137 679,-137 679,-137 685,-137 691,-143 691,-149 691,-149 691,-911 691,-911 691,-917 685,-923 679,-923 679,-923 28,-923 28,-923 22,-923 16,-917 16,-911 16,-911 16,-149 16,-149 16,-143 22,-137 28,-137"/>
<text text-anchor="middle" x="353.5" y="-911.8" font-family="Helvetica,sans-Serif" font-weight="bold" font-size="9.00">client</text>
</g>
<g id="clust4" class="cluster"><title>cluster_src/client/components</title>
<path fill="#ffffff" stroke="black" stroke-width="2" d="M308,-689C308,-689 487,-689 487,-689 493,-689 499,-695 499,-701 499,-701 499,-789 499,-789 499,-795 493,-801 487,-801 487,-801 308,-801 308,-801 302,-801 296,-795 296,-789 296,-789 296,-701 296,-701 296,-695 302,-689 308,-689"/>
<text text-anchor="middle" x="397.5" y="-789.8" font-family="Helvetica,sans-Serif" font-weight="bold" font-size="9.00">components</text>
</g>
<g id="clust5" class="cluster"><title>cluster_src/client/containers</title>
<path fill="#ffffff" stroke="black" stroke-width="2" d="M106,-719C106,-719 219,-719 219,-719 225,-719 231,-725 231,-731 231,-731 231,-759 231,-759 231,-765 225,-771 219,-771 219,-771 106,-771 106,-771 100,-771 94,-765 94,-759 94,-759 94,-731 94,-731 94,-725 100,-719 106,-719"/>
<text text-anchor="middle" x="162.5" y="-759.8" font-family="Helvetica,sans-Serif" font-weight="bold" font-size="9.00">containers</text>
</g>
<g id="clust6" class="cluster"><title>cluster_src/client/css</title>
<path fill="#ffffff" stroke="black" stroke-width="2" d="M267,-145C267,-145 397,-145 397,-145 403,-145 409,-151 409,-157 409,-157 409,-669 409,-669 409,-675 403,-681 397,-681 397,-681 267,-681 267,-681 261,-681 255,-675 255,-669 255,-669 255,-157 255,-157 255,-151 261,-145 267,-145"/>
<text text-anchor="middle" x="332" y="-669.8" font-family="Helvetica,sans-Serif" font-weight="bold" font-size="9.00">css</text>
</g>
<g id="clust7" class="cluster"><title>cluster_src/client/css/fontawesome&#45;free&#45;5.7.2&#45;web</title>
<path fill="#ffffff" stroke="black" stroke-width="2" d="M275,-179C275,-179 389,-179 389,-179 395,-179 401,-185 401,-191 401,-191 401,-643 401,-643 401,-649 395,-655 389,-655 389,-655 275,-655 275,-655 269,-655 263,-649 263,-643 263,-643 263,-191 263,-191 263,-185 269,-179 275,-179"/>
<text text-anchor="middle" x="332" y="-643.8" font-family="Helvetica,sans-Serif" font-weight="bold" font-size="9.00">fontawesome&#45;free&#45;5.7.2&#45;web</text>
</g>
<g id="clust8" class="cluster"><title>cluster_src/client/css/fontawesome&#45;free&#45;5.7.2&#45;web/css</title>
<path fill="#ffffff" stroke="black" stroke-width="2" d="M309,-577C309,-577 355,-577 355,-577 361,-577 367,-583 367,-589 367,-589 367,-617 367,-617 367,-623 361,-629 355,-629 355,-629 309,-629 309,-629 303,-629 297,-623 297,-617 297,-617 297,-589 297,-589 297,-583 303,-577 309,-577"/>
<text text-anchor="middle" x="332" y="-617.8" font-family="Helvetica,sans-Serif" font-weight="bold" font-size="9.00">css</text>
</g>
<g id="clust9" class="cluster"><title>cluster_src/client/css/fontawesome&#45;free&#45;5.7.2&#45;web/js</title>
<path fill="#ffffff" stroke="black" stroke-width="2" d="M287,-187C287,-187 377,-187 377,-187 383,-187 389,-193 389,-199 389,-199 389,-557 389,-557 389,-563 383,-569 377,-569 377,-569 287,-569 287,-569 281,-569 275,-563 275,-557 275,-557 275,-199 275,-199 275,-193 281,-187 287,-187"/>
<text text-anchor="middle" x="332" y="-557.8" font-family="Helvetica,sans-Serif" font-weight="bold" font-size="9.00">js</text>
</g>
<g id="clust10" class="cluster"><title>cluster_src/client/store</title>
<path fill="#ffffff" stroke="black" stroke-width="2" d="M302,-815C302,-815 575,-815 575,-815 581,-815 587,-821 587,-827 587,-827 587,-885 587,-885 587,-891 581,-897 575,-897 575,-897 302,-897 302,-897 296,-897 290,-891 290,-885 290,-885 290,-827 290,-827 290,-821 296,-815 302,-815"/>
<text text-anchor="middle" x="438.5" y="-885.8" font-family="Helvetica,sans-Serif" font-weight="bold" font-size="9.00">store</text>
</g>
<g id="clust11" class="cluster"><title>cluster_src/client/utils</title>
<path fill="#ffffff" stroke="black" stroke-width="2" d="M519,-666C519,-666 671,-666 671,-666 677,-666 683,-672 683,-678 683,-678 683,-736 683,-736 683,-742 677,-748 671,-748 671,-748 519,-748 519,-748 513,-748 507,-742 507,-736 507,-736 507,-678 507,-678 507,-672 513,-666 519,-666"/>
<text text-anchor="middle" x="595" y="-736.8" font-family="Helvetica,sans-Serif" font-weight="bold" font-size="9.00">utils</text>
</g>
<g id="clust12" class="cluster"><title>cluster_src/server</title>
<path fill="#ffffff" stroke="black" stroke-width="2" d="M28,-77C28,-77 74,-77 74,-77 80,-77 86,-83 86,-89 86,-89 86,-117 86,-117 86,-123 80,-129 74,-129 74,-129 28,-129 28,-129 22,-129 16,-123 16,-117 16,-117 16,-89 16,-89 16,-83 22,-77 28,-77"/>
<text text-anchor="middle" x="51" y="-117.8" font-family="Helvetica,sans-Serif" font-weight="bold" font-size="9.00">server</text>
</g>
<!-- constants/common.js -->
<g id="node1" class="node"><title>constants/common.js</title>
<g id="a_node1"><a xlink:href="constants/common.js" xlink:title="common.js">
<path fill="#ffffcc" stroke="black" d="M356.5,-34C356.5,-34 307.5,-34 307.5,-34 304.5,-34 301.5,-31 301.5,-28 301.5,-28 301.5,-22 301.5,-22 301.5,-19 304.5,-16 307.5,-16 307.5,-16 356.5,-16 356.5,-16 359.5,-16 362.5,-19 362.5,-22 362.5,-22 362.5,-28 362.5,-28 362.5,-31 359.5,-34 356.5,-34"/>
<text text-anchor="middle" x="332" y="-22.8" font-family="Helvetica,sans-Serif" font-size="9.00">common.js</text>
</a>
</g>
</g>
<!-- http -->
<g id="node2" class="node"><title>http</title>
<path fill="#ffffcc" stroke="grey" d="M150,-61C150,-61 108,-61 108,-61 105,-61 102,-58 102,-55 102,-55 102,-49 102,-49 102,-46 105,-43 108,-43 108,-43 150,-43 150,-43 153,-43 156,-46 156,-49 156,-49 156,-55 156,-55 156,-58 153,-61 150,-61"/>
<text text-anchor="middle" x="129" y="-49.8" font-family="Helvetica,sans-Serif" font-size="9.00" fill="grey">http</text>
</g>
<!-- src/client/components/Button.js -->
<g id="node3" class="node"><title>src/client/components/Button.js</title>
<g id="a_node3"><a xlink:href="src/client/components/Button.js" xlink:title="Button.js">
<path fill="#ffffcc" stroke="black" d="M485,-725C485,-725 443,-725 443,-725 440,-725 437,-722 437,-719 437,-719 437,-713 437,-713 437,-710 440,-707 443,-707 443,-707 485,-707 485,-707 488,-707 491,-710 491,-713 491,-713 491,-719 491,-719 491,-722 488,-725 485,-725"/>
<text text-anchor="middle" x="464" y="-713.8" font-family="Helvetica,sans-Serif" font-size="9.00">Button.js</text>
</a>
</g>
</g>
<!-- src/client/store/actions.js -->
<g id="node25" class="node"><title>src/client/store/actions.js</title>
<g id="a_node25"><a xlink:href="src/client/store/actions.js" xlink:title="actions.js">
<path fill="#ffffcc" stroke="black" d="M573,-841C573,-841 530,-841 530,-841 527,-841 524,-838 524,-835 524,-835 524,-829 524,-829 524,-826 527,-823 530,-823 530,-823 573,-823 573,-823 576,-823 579,-826 579,-829 579,-829 579,-835 579,-835 579,-838 576,-841 573,-841"/>
<text text-anchor="middle" x="551.5" y="-829.8" font-family="Helvetica,sans-Serif" font-size="9.00">actions.js</text>
</a>
</g>
</g>
<!-- src/client/components/Button.js&#45;&gt;src/client/store/actions.js -->
<g id="edge1" class="edge"><title>src/client/components/Button.js&#45;&gt;src/client/store/actions.js</title>
<path fill="none" stroke="#000000" stroke-width="2" stroke-opacity="0.466667" d="M491.263,-724.999C494.097,-726.693 496.759,-728.679 499,-731 505.65,-737.887 502.951,-742.325 507,-751 517.286,-773.04 530.739,-797.54 539.944,-813.763"/>
<polygon fill="#000000" fill-opacity="0.466667" stroke="#000000" stroke-width="2" stroke-opacity="0.466667" points="537.054,-815.759 545.06,-822.698 543.129,-812.281 537.054,-815.759"/>
</g>
<!-- src/client/utils/clearInput.js -->
<g id="node29" class="node"><title>src/client/utils/clearInput.js</title>
<g id="a_node29"><a xlink:href="src/client/utils/clearInput.js" xlink:title="clearInput.js">
<path fill="#ffffcc" stroke="black" d="M578.5,-722C578.5,-722 524.5,-722 524.5,-722 521.5,-722 518.5,-719 518.5,-716 518.5,-716 518.5,-710 518.5,-710 518.5,-707 521.5,-704 524.5,-704 524.5,-704 578.5,-704 578.5,-704 581.5,-704 584.5,-707 584.5,-710 584.5,-710 584.5,-716 584.5,-716 584.5,-719 581.5,-722 578.5,-722"/>
<text text-anchor="middle" x="551.5" y="-710.8" font-family="Helvetica,sans-Serif" font-size="9.00">clearInput.js</text>
</a>
</g>
</g>
<!-- src/client/components/Button.js&#45;&gt;src/client/utils/clearInput.js -->
<g id="edge2" class="edge"><title>src/client/components/Button.js&#45;&gt;src/client/utils/clearInput.js</title>
<path fill="none" stroke="#000000" stroke-width="2" stroke-opacity="0.466667" d="M491.117,-715.084C496.458,-714.896 502.209,-714.694 507.955,-714.493"/>
<polygon fill="#000000" fill-opacity="0.466667" stroke="#000000" stroke-width="2" stroke-opacity="0.466667" points="508.332,-717.982 518.203,-714.133 508.086,-710.986 508.332,-717.982"/>
</g>
<!-- src/client/utils/onChatMsg.js -->
<g id="node31" class="node"><title>src/client/utils/onChatMsg.js</title>
<g id="a_node31"><a xlink:href="src/client/utils/onChatMsg.js" xlink:title="onChatMsg.js">
<path fill="#ffffcc" stroke="black" d="M582,-692C582,-692 521,-692 521,-692 518,-692 515,-689 515,-686 515,-686 515,-680 515,-680 515,-677 518,-674 521,-674 521,-674 582,-674 582,-674 585,-674 588,-677 588,-680 588,-680 588,-686 588,-686 588,-689 585,-692 582,-692"/>
<text text-anchor="middle" x="551.5" y="-680.8" font-family="Helvetica,sans-Serif" font-size="9.00">onChatMsg.js</text>
</a>
</g>
</g>
<!-- src/client/components/Button.js&#45;&gt;src/client/utils/onChatMsg.js -->
<g id="edge3" class="edge"><title>src/client/components/Button.js&#45;&gt;src/client/utils/onChatMsg.js</title>
<path fill="none" stroke="#000000" stroke-width="2" stroke-opacity="0.466667" d="M485.385,-706.91C492.213,-703.96 499.895,-700.743 507,-698 509.201,-697.15 511.473,-696.297 513.77,-695.452"/>
<polygon fill="#000000" fill-opacity="0.466667" stroke="#000000" stroke-width="2" stroke-opacity="0.466667" points="515.007,-698.727 523.24,-692.059 512.645,-692.137 515.007,-698.727"/>
</g>
<!-- src/client/components/Display.js -->
<g id="node4" class="node"><title>src/client/components/Display.js</title>
<g id="a_node4"><a xlink:href="src/client/components/Display.js" xlink:title="Display.js">
<path fill="#ffffcc" stroke="black" d="M354,-775C354,-775 310,-775 310,-775 307,-775 304,-772 304,-769 304,-769 304,-763 304,-763 304,-760 307,-757 310,-757 310,-757 354,-757 354,-757 357,-757 360,-760 360,-763 360,-763 360,-769 360,-769 360,-772 357,-775 354,-775"/>
<text text-anchor="middle" x="332" y="-763.8" font-family="Helvetica,sans-Serif" font-size="9.00">Display.js</text>
</a>
</g>
</g>
<!-- src/client/components/Display.js&#45;&gt;src/client/store/actions.js -->
<g id="edge4" class="edge"><title>src/client/components/Display.js&#45;&gt;src/client/store/actions.js</title>
<path fill="none" stroke="#000000" stroke-width="2" stroke-opacity="0.466667" d="M360.012,-770.521C393.335,-776.547 451.416,-788.523 499,-806 508.017,-809.312 517.506,-813.791 525.847,-818.099"/>
<polygon fill="#000000" fill-opacity="0.466667" stroke="#000000" stroke-width="2" stroke-opacity="0.466667" points="524.221,-821.198 534.692,-822.817 527.516,-815.022 524.221,-821.198"/>
</g>
<!-- src/client/components/Enter.js -->
<g id="node5" class="node"><title>src/client/components/Enter.js</title>
<g id="a_node5"><a xlink:href="src/client/components/Enter.js" xlink:title="Enter.js">
<path fill="#ffffcc" stroke="black" d="M353,-715C353,-715 311,-715 311,-715 308,-715 305,-712 305,-709 305,-709 305,-703 305,-703 305,-700 308,-697 311,-697 311,-697 353,-697 353,-697 356,-697 359,-700 359,-703 359,-703 359,-709 359,-709 359,-712 356,-715 353,-715"/>
<text text-anchor="middle" x="332" y="-703.8" font-family="Helvetica,sans-Serif" font-size="9.00">Enter.js</text>
</a>
</g>
</g>
<!-- src/client/components/Enter.js&#45;&gt;src/client/store/actions.js -->
<g id="edge5" class="edge"><title>src/client/components/Enter.js&#45;&gt;src/client/store/actions.js</title>
<path fill="none" stroke="#000000" stroke-width="2" stroke-opacity="0.466667" d="M359.354,-705.99C375.023,-707.179 394.586,-710.869 409,-721 425.962,-732.921 415.949,-749.206 433,-761 457.52,-777.96 473.075,-758.276 499,-773 516.291,-782.82 530.634,-800.676 539.753,-814.181"/>
<polygon fill="#000000" fill-opacity="0.466667" stroke="#000000" stroke-width="2" stroke-opacity="0.466667" points="536.861,-816.154 545.205,-822.683 542.754,-812.376 536.861,-816.154"/>
</g>
<!-- util -->
<g id="node33" class="node"><title>util</title>
<path fill="#ffffcc" stroke="grey" d="M485,-61C485,-61 443,-61 443,-61 440,-61 437,-58 437,-55 437,-55 437,-49 437,-49 437,-46 440,-43 443,-43 443,-43 485,-43 485,-43 488,-43 491,-46 491,-49 491,-49 491,-55 491,-55 491,-58 488,-61 485,-61"/>
<text text-anchor="middle" x="464" y="-49.8" font-family="Helvetica,sans-Serif" font-size="9.00" fill="grey">util</text>
</g>
<!-- src/client/components/Enter.js&#45;&gt;util -->
<g id="edge6" class="edge"><title>src/client/components/Enter.js&#45;&gt;util</title>
<path fill="none" stroke="grey" d="M347.145,-696.986C365.039,-684.708 395.184,-660.912 409,-632 457.978,-529.506 462.58,-160.245 462.972,-71.3494"/>
<polygon fill="grey" stroke="grey" points="466.472,-71.3326 463.003,-61.3219 459.472,-71.3111 466.472,-71.3326"/>
</g>
<!-- src/client/components/Entry.js -->
<g id="node6" class="node"><title>src/client/components/Entry.js</title>
<g id="a_node6"><a xlink:href="src/client/components/Entry.js" xlink:title="Entry.js">
<path fill="#ffffcc" stroke="black" d="M353,-745C353,-745 311,-745 311,-745 308,-745 305,-742 305,-739 305,-739 305,-733 305,-733 305,-730 308,-727 311,-727 311,-727 353,-727 353,-727 356,-727 359,-730 359,-733 359,-733 359,-739 359,-739 359,-742 356,-745 353,-745"/>
<text text-anchor="middle" x="332" y="-733.8" font-family="Helvetica,sans-Serif" font-size="9.00">Entry.js</text>
</a>
</g>
</g>
<!-- src/client/components/Entry.js&#45;&gt;src/client/components/Button.js -->
<g id="edge10" class="edge"><title>src/client/components/Entry.js&#45;&gt;src/client/components/Button.js</title>
<path fill="none" stroke="#000000" stroke-width="2" stroke-opacity="0.466667" d="M359.307,-731.953C378.69,-728.971 405.29,-724.878 426.695,-721.585"/>
<polygon fill="#000000" fill-opacity="0.466667" stroke="#000000" stroke-width="2" stroke-opacity="0.466667" points="427.38,-725.021 436.732,-720.041 426.316,-718.103 427.38,-725.021"/>
</g>
<!-- src/client/components/Exit.js -->
<g id="node7" class="node"><title>src/client/components/Exit.js</title>
<g id="a_node7"><a xlink:href="src/client/components/Exit.js" xlink:title="Exit.js">
<path fill="#ffffcc" stroke="black" d="M485,-755C485,-755 443,-755 443,-755 440,-755 437,-752 437,-749 437,-749 437,-743 437,-743 437,-740 440,-737 443,-737 443,-737 485,-737 485,-737 488,-737 491,-740 491,-743 491,-743 491,-749 491,-749 491,-752 488,-755 485,-755"/>
<text text-anchor="middle" x="464" y="-743.8" font-family="Helvetica,sans-Serif" font-size="9.00">Exit.js</text>
</a>
</g>
</g>
<!-- src/client/components/Entry.js&#45;&gt;src/client/components/Exit.js -->
<g id="edge11" class="edge"><title>src/client/components/Entry.js&#45;&gt;src/client/components/Exit.js</title>
<path fill="none" stroke="#000000" stroke-width="2" stroke-opacity="0.466667" d="M359.307,-738.024C378.69,-739.515 405.29,-741.561 426.695,-743.207"/>
<polygon fill="#000000" fill-opacity="0.466667" stroke="#000000" stroke-width="2" stroke-opacity="0.466667" points="426.493,-746.702 436.732,-743.979 427.03,-739.723 426.493,-746.702"/>
</g>
<!-- src/client/components/Entry.js&#45;&gt;src/client/store/actions.js -->
<g id="edge7" class="edge"><title>src/client/components/Entry.js&#45;&gt;src/client/store/actions.js</title>
<path fill="none" stroke="#000000" stroke-width="2" stroke-opacity="0.466667" d="M359.059,-737.762C374.254,-739.598 393.43,-743.347 409,-751 421.72,-757.252 420.371,-765.566 433,-772 459.804,-785.654 472.191,-773.355 499,-787 512.888,-794.069 526.073,-805.718 535.624,-815.393"/>
<polygon fill="#000000" fill-opacity="0.466667" stroke="#000000" stroke-width="2" stroke-opacity="0.466667" points="533.317,-818.047 542.729,-822.911 538.405,-813.239 533.317,-818.047"/>
</g>
<!-- src/client/components/Entry.js&#45;&gt;src/client/utils/clearInput.js -->
<g id="edge8" class="edge"><title>src/client/components/Entry.js&#45;&gt;src/client/utils/clearInput.js</title>
<path fill="none" stroke="#000000" stroke-width="2" stroke-opacity="0.466667" d="M359.345,-734.055C374.46,-732.157 393.46,-728.407 409,-721 421.534,-715.026 419.944,-705.727 433,-701 460.581,-691.014 469.859,-697.65 499,-701 502.048,-701.35 505.178,-701.814 508.317,-702.355"/>
<polygon fill="#000000" fill-opacity="0.466667" stroke="#000000" stroke-width="2" stroke-opacity="0.466667" points="507.795,-705.819 518.281,-704.303 509.139,-698.949 507.795,-705.819"/>
</g>
<!-- src/client/components/Entry.js&#45;&gt;src/client/utils/onChatMsg.js -->
<g id="edge9" class="edge"><title>src/client/components/Entry.js&#45;&gt;src/client/utils/onChatMsg.js</title>
<path fill="none" stroke="#000000" stroke-width="2" stroke-opacity="0.466667" d="M359.137,-735.083C374.539,-733.547 393.902,-729.816 409,-721 423.154,-712.735 418.413,-700.475 433,-693 454.883,-681.786 482.096,-678.894 504.821,-678.982"/>
<polygon fill="#000000" fill-opacity="0.466667" stroke="#000000" stroke-width="2" stroke-opacity="0.466667" points="504.834,-682.483 514.911,-679.214 504.994,-675.485 504.834,-682.483"/>
</g>
<!-- src/client/components/Exit.js&#45;&gt;src/client/store/actions.js -->
<g id="edge12" class="edge"><title>src/client/components/Exit.js&#45;&gt;src/client/store/actions.js</title>
<path fill="none" stroke="#000000" stroke-width="2" stroke-opacity="0.466667" d="M485.698,-755.11C490.325,-757.636 495.031,-760.625 499,-764 515.843,-778.324 530.556,-799.068 539.895,-813.873"/>
<polygon fill="#000000" fill-opacity="0.466667" stroke="#000000" stroke-width="2" stroke-opacity="0.466667" points="537.032,-815.899 545.225,-822.616 543.009,-812.256 537.032,-815.899"/>
</g>
<!-- src/client/containers/App.js -->
<g id="node8" class="node"><title>src/client/containers/App.js</title>
<g id="a_node8"><a xlink:href="src/client/containers/App.js" xlink:title="App.js">
<path fill="#ffffcc" stroke="black" d="M217,-745C217,-745 175,-745 175,-745 172,-745 169,-742 169,-739 169,-739 169,-733 169,-733 169,-730 172,-727 175,-727 175,-727 217,-727 217,-727 220,-727 223,-730 223,-733 223,-733 223,-739 223,-739 223,-742 220,-745 217,-745"/>
<text text-anchor="middle" x="196" y="-733.8" font-family="Helvetica,sans-Serif" font-size="9.00">App.js</text>
</a>
</g>
</g>
<!-- src/client/containers/App.js&#45;&gt;constants/common.js -->
<g id="edge13" class="edge"><title>src/client/containers/App.js&#45;&gt;constants/common.js</title>
<path fill="none" stroke="#000000" stroke-width="2" stroke-opacity="0.466667" d="M197.295,-726.984C199.526,-661.397 214.777,-256.912 255,-142 268.715,-102.818 298.13,-63.6595 316.076,-42.0544"/>
<polygon fill="#000000" fill-opacity="0.466667" stroke="#000000" stroke-width="2" stroke-opacity="0.466667" points="318.965,-44.0583 322.769,-34.1697 313.629,-39.5281 318.965,-44.0583"/>
</g>
<!-- src/client/containers/App.js&#45;&gt;src/client/components/Display.js -->
<g id="edge14" class="edge"><title>src/client/containers/App.js&#45;&gt;src/client/components/Display.js</title>
<path fill="none" stroke="#000000" stroke-width="2" stroke-opacity="0.466667" d="M223.195,-743.12C233.126,-745.728 244.555,-748.621 255,-751 267.601,-753.87 281.45,-756.699 293.835,-759.114"/>
<polygon fill="#000000" fill-opacity="0.466667" stroke="#000000" stroke-width="2" stroke-opacity="0.466667" points="293.354,-762.585 303.835,-761.036 294.675,-755.711 293.354,-762.585"/>
</g>
<!-- src/client/containers/App.js&#45;&gt;src/client/components/Enter.js -->
<g id="edge15" class="edge"><title>src/client/containers/App.js&#45;&gt;src/client/components/Enter.js</title>
<path fill="none" stroke="#000000" stroke-width="2" stroke-opacity="0.466667" d="M223.195,-728.88C233.126,-726.272 244.555,-723.379 255,-721 267.908,-718.06 282.127,-715.163 294.739,-712.711"/>
<polygon fill="#000000" fill-opacity="0.466667" stroke="#000000" stroke-width="2" stroke-opacity="0.466667" points="295.729,-716.084 304.892,-710.764 294.411,-709.21 295.729,-716.084"/>
</g>
<!-- src/client/containers/App.js&#45;&gt;src/client/components/Entry.js -->
<g id="edge16" class="edge"><title>src/client/containers/App.js&#45;&gt;src/client/components/Entry.js</title>
<path fill="none" stroke="#000000" stroke-width="2" stroke-opacity="0.466667" d="M223.155,-736C243.538,-736 272.077,-736 294.677,-736"/>
<polygon fill="#000000" fill-opacity="0.466667" stroke="#000000" stroke-width="2" stroke-opacity="0.466667" points="294.911,-739.5 304.911,-736 294.911,-732.5 294.911,-739.5"/>
</g>
<!-- src/client/css/css.styl -->
<g id="node10" class="node"><title>src/client/css/css.styl</title>
<g id="a_node10"><a xlink:href="src/client/css/css.styl" xlink:title="css.styl">
<path fill="#ffffcc" stroke="black" d="M353,-171C353,-171 311,-171 311,-171 308,-171 305,-168 305,-165 305,-165 305,-159 305,-159 305,-156 308,-153 311,-153 311,-153 353,-153 353,-153 356,-153 359,-156 359,-159 359,-159 359,-165 359,-165 359,-168 356,-171 353,-171"/>
<text text-anchor="middle" x="332" y="-159.8" font-family="Helvetica,sans-Serif" font-size="9.00">css.styl</text>
</a>
</g>
</g>
<!-- src/client/containers/App.js&#45;&gt;src/client/css/css.styl -->
<g id="edge17" class="edge"><title>src/client/containers/App.js&#45;&gt;src/client/css/css.styl</title>
<path fill="none" stroke="#000000" stroke-width="2" stroke-opacity="0.466667" d="M197.356,-726.785C200.086,-658.101 218.589,-227.506 255,-184 264.719,-172.387 280.161,-166.697 294.595,-163.981"/>
<polygon fill="#000000" fill-opacity="0.466667" stroke="#000000" stroke-width="2" stroke-opacity="0.466667" points="295.441,-167.394 304.831,-162.487 294.43,-160.468 295.441,-167.394"/>
</g>
<!-- src/client/css/fontawesome&#45;free&#45;5.7.2&#45;web/css/all.css -->
<g id="node11" class="node"><title>src/client/css/fontawesome&#45;free&#45;5.7.2&#45;web/css/all.css</title>
<g id="a_node11"><a xlink:href="src/client/css/fontawesome-free-5.7.2-web/css/all.css" xlink:title="all.css">
<path fill="#ffffcc" stroke="black" d="M353,-603C353,-603 311,-603 311,-603 308,-603 305,-600 305,-597 305,-597 305,-591 305,-591 305,-588 308,-585 311,-585 311,-585 353,-585 353,-585 356,-585 359,-588 359,-591 359,-591 359,-597 359,-597 359,-600 356,-603 353,-603"/>
<text text-anchor="middle" x="332" y="-591.8" font-family="Helvetica,sans-Serif" font-size="9.00">all.css</text>
</a>
</g>
</g>
<!-- src/client/containers/App.js&#45;&gt;src/client/css/fontawesome&#45;free&#45;5.7.2&#45;web/css/all.css -->
<g id="edge18" class="edge"><title>src/client/containers/App.js&#45;&gt;src/client/css/fontawesome&#45;free&#45;5.7.2&#45;web/css/all.css</title>
<path fill="none" stroke="#000000" stroke-width="2" stroke-opacity="0.466667" d="M205.792,-726.683C228.039,-703.108 286.809,-640.83 315.202,-610.741"/>
<polygon fill="#000000" fill-opacity="0.466667" stroke="#000000" stroke-width="2" stroke-opacity="0.466667" points="318.032,-612.842 322.35,-603.167 312.941,-608.038 318.032,-612.842"/>
</g>
<!-- src/client/containers/App.js&#45;&gt;src/client/store/actions.js -->
<g id="edge19" class="edge"><title>src/client/containers/App.js&#45;&gt;src/client/store/actions.js</title>
<path fill="none" stroke="#000000" stroke-width="2" stroke-opacity="0.466667" d="M210.907,-745.222C217.492,-750.02 225.171,-756.282 231,-763 244.837,-778.949 236.969,-793.014 255,-804 278.185,-818.126 472.234,-812.452 499,-817 503.852,-817.824 508.895,-818.948 513.843,-820.211"/>
<polygon fill="#000000" fill-opacity="0.466667" stroke="#000000" stroke-width="2" stroke-opacity="0.466667" points="513.207,-823.666 523.777,-822.951 515.068,-816.918 513.207,-823.666"/>
</g>
<!-- src/client/containers/Root.js -->
<g id="node9" class="node"><title>src/client/containers/Root.js</title>
<g id="a_node9"><a xlink:href="src/client/containers/Root.js" xlink:title="Root.js">
<path fill="#ffffcc" stroke="black" d="M150,-745C150,-745 108,-745 108,-745 105,-745 102,-742 102,-739 102,-739 102,-733 102,-733 102,-730 105,-727 108,-727 108,-727 150,-727 150,-727 153,-727 156,-730 156,-733 156,-733 156,-739 156,-739 156,-742 153,-745 150,-745"/>
<text text-anchor="middle" x="129" y="-733.8" font-family="Helvetica,sans-Serif" font-size="9.00">Root.js</text>
</a>
</g>
</g>
<!-- src/client/containers/Root.js&#45;&gt;src/client/containers/App.js -->
<g id="edge22" class="edge"><title>src/client/containers/Root.js&#45;&gt;src/client/containers/App.js</title>
<path fill="none" stroke="#000000" stroke-width="2" stroke-opacity="0.466667" d="M156.063,-736C156.991,-736 157.925,-736 158.864,-736"/>
<polygon fill="#000000" fill-opacity="0.466667" stroke="#000000" stroke-width="2" stroke-opacity="0.466667" points="158.931,-739.5 168.931,-736 158.931,-732.5 158.931,-739.5"/>
</g>
<!-- src/client/store/initialState.js -->
<g id="node26" class="node"><title>src/client/store/initialState.js</title>
<g id="a_node26"><a xlink:href="src/client/store/initialState.js" xlink:title="initialState.js">
<path fill="#ffffcc" stroke="black" d="M360,-871C360,-871 304,-871 304,-871 301,-871 298,-868 298,-865 298,-865 298,-859 298,-859 298,-856 301,-853 304,-853 304,-853 360,-853 360,-853 363,-853 366,-856 366,-859 366,-859 366,-865 366,-865 366,-868 363,-871 360,-871"/>
<text text-anchor="middle" x="332" y="-859.8" font-family="Helvetica,sans-Serif" font-size="9.00">initialState.js</text>
</a>
</g>
</g>
<!-- src/client/containers/Root.js&#45;&gt;src/client/store/initialState.js -->
<g id="edge20" class="edge"><title>src/client/containers/Root.js&#45;&gt;src/client/store/initialState.js</title>
<path fill="none" stroke="#000000" stroke-width="2" stroke-opacity="0.466667" d="M135.558,-745.168C142.497,-756.149 155.152,-774.724 169,-788 202.46,-820.077 212.272,-829.031 255,-847 265.346,-851.351 277.023,-854.459 288.064,-856.672"/>
<polygon fill="#000000" fill-opacity="0.466667" stroke="#000000" stroke-width="2" stroke-opacity="0.466667" points="287.505,-860.128 297.968,-858.464 288.751,-853.24 287.505,-860.128"/>
</g>
<!-- src/client/store/store.js -->
<g id="node28" class="node"><title>src/client/store/store.js</title>
<g id="a_node28"><a xlink:href="src/client/store/store.js" xlink:title="store.js">
<path fill="#ffffcc" stroke="black" d="M353,-841C353,-841 311,-841 311,-841 308,-841 305,-838 305,-835 305,-835 305,-829 305,-829 305,-826 308,-823 311,-823 311,-823 353,-823 353,-823 356,-823 359,-826 359,-829 359,-829 359,-835 359,-835 359,-838 356,-841 353,-841"/>
<text text-anchor="middle" x="332" y="-829.8" font-family="Helvetica,sans-Serif" font-size="9.00">store.js</text>
</a>
</g>
</g>
<!-- src/client/containers/Root.js&#45;&gt;src/client/store/store.js -->
<g id="edge21" class="edge"><title>src/client/containers/Root.js&#45;&gt;src/client/store/store.js</title>
<path fill="none" stroke="#000000" stroke-width="2" stroke-opacity="0.466667" d="M141.697,-745.149C163.016,-761.386 210.145,-795.288 255,-814 267.541,-819.232 281.909,-823.125 294.752,-825.927"/>
<polygon fill="#000000" fill-opacity="0.466667" stroke="#000000" stroke-width="2" stroke-opacity="0.466667" points="294.164,-829.379 304.661,-827.945 295.561,-822.52 294.164,-829.379"/>
</g>
<!-- src/client/css/fontawesome&#45;free&#45;5.7.2&#45;web/js/all.js -->
<g id="node12" class="node"><title>src/client/css/fontawesome&#45;free&#45;5.7.2&#45;web/js/all.js</title>
<g id="a_node12"><a xlink:href="src/client/css/fontawesome-free-5.7.2-web/js/all.js" xlink:title="all.js">
<path fill="#ffffcc" stroke="black" d="M353,-543C353,-543 311,-543 311,-543 308,-543 305,-540 305,-537 305,-537 305,-531 305,-531 305,-528 308,-525 311,-525 311,-525 353,-525 353,-525 356,-525 359,-528 359,-531 359,-531 359,-537 359,-537 359,-540 356,-543 353,-543"/>
<text text-anchor="middle" x="332" y="-531.8" font-family="Helvetica,sans-Serif" font-size="9.00">all.js</text>
</a>
</g>
</g>
<!-- src/client/css/fontawesome&#45;free&#45;5.7.2&#45;web/js/all.min.js -->
<g id="node13" class="node"><title>src/client/css/fontawesome&#45;free&#45;5.7.2&#45;web/js/all.min.js</title>
<g id="a_node13"><a xlink:href="src/client/css/fontawesome-free-5.7.2-web/js/all.min.js" xlink:title="all.min.js">
<path fill="#ffffcc" stroke="black" d="M353,-513C353,-513 311,-513 311,-513 308,-513 305,-510 305,-507 305,-507 305,-501 305,-501 305,-498 308,-495 311,-495 311,-495 353,-495 353,-495 356,-495 359,-498 359,-501 359,-501 359,-507 359,-507 359,-510 356,-513 353,-513"/>
<text text-anchor="middle" x="332" y="-501.8" font-family="Helvetica,sans-Serif" font-size="9.00">all.min.js</text>
</a>
</g>
</g>
<!-- src/client/css/fontawesome&#45;free&#45;5.7.2&#45;web/js/brands.js -->
<g id="node14" class="node"><title>src/client/css/fontawesome&#45;free&#45;5.7.2&#45;web/js/brands.js</title>
<g id="a_node14"><a xlink:href="src/client/css/fontawesome-free-5.7.2-web/js/brands.js" xlink:title="brands.js">
<path fill="#ffffcc" stroke="black" d="M353,-483C353,-483 311,-483 311,-483 308,-483 305,-480 305,-477 305,-477 305,-471 305,-471 305,-468 308,-465 311,-465 311,-465 353,-465 353,-465 356,-465 359,-468 359,-471 359,-471 359,-477 359,-477 359,-480 356,-483 353,-483"/>
<text text-anchor="middle" x="332" y="-471.8" font-family="Helvetica,sans-Serif" font-size="9.00">brands.js</text>
</a>
</g>
</g>
<!-- src/client/css/fontawesome&#45;free&#45;5.7.2&#45;web/js/brands.min.js -->
<g id="node15" class="node"><title>src/client/css/fontawesome&#45;free&#45;5.7.2&#45;web/js/brands.min.js</title>
<g id="a_node15"><a xlink:href="src/client/css/fontawesome-free-5.7.2-web/js/brands.min.js" xlink:title="brands.min.js">
<path fill="#ffffcc" stroke="black" d="M361.5,-453C361.5,-453 302.5,-453 302.5,-453 299.5,-453 296.5,-450 296.5,-447 296.5,-447 296.5,-441 296.5,-441 296.5,-438 299.5,-435 302.5,-435 302.5,-435 361.5,-435 361.5,-435 364.5,-435 367.5,-438 367.5,-441 367.5,-441 367.5,-447 367.5,-447 367.5,-450 364.5,-453 361.5,-453"/>
<text text-anchor="middle" x="332" y="-441.8" font-family="Helvetica,sans-Serif" font-size="9.00">brands.min.js</text>
</a>
</g>
</g>
<!-- src/client/css/fontawesome&#45;free&#45;5.7.2&#45;web/js/fontawesome.js -->
<g id="node16" class="node"><title>src/client/css/fontawesome&#45;free&#45;5.7.2&#45;web/js/fontawesome.js</title>
<g id="a_node16"><a xlink:href="src/client/css/fontawesome-free-5.7.2-web/js/fontawesome.js" xlink:title="fontawesome.js">
<path fill="#ffffcc" stroke="black" d="M366,-423C366,-423 298,-423 298,-423 295,-423 292,-420 292,-417 292,-417 292,-411 292,-411 292,-408 295,-405 298,-405 298,-405 366,-405 366,-405 369,-405 372,-408 372,-411 372,-411 372,-417 372,-417 372,-420 369,-423 366,-423"/>
<text text-anchor="middle" x="332" y="-411.8" font-family="Helvetica,sans-Serif" font-size="9.00">fontawesome.js</text>
</a>
</g>
</g>
<!-- src/client/css/fontawesome&#45;free&#45;5.7.2&#45;web/js/fontawesome.min.js -->
<g id="node17" class="node"><title>src/client/css/fontawesome&#45;free&#45;5.7.2&#45;web/js/fontawesome.min.js</title>
<g id="a_node17"><a xlink:href="src/client/css/fontawesome-free-5.7.2-web/js/fontawesome.min.js" xlink:title="fontawesome.min.js">
<path fill="#ffffcc" stroke="black" d="M375,-393C375,-393 289,-393 289,-393 286,-393 283,-390 283,-387 283,-387 283,-381 283,-381 283,-378 286,-375 289,-375 289,-375 375,-375 375,-375 378,-375 381,-378 381,-381 381,-381 381,-387 381,-387 381,-390 378,-393 375,-393"/>
<text text-anchor="middle" x="332" y="-381.8" font-family="Helvetica,sans-Serif" font-size="9.00">fontawesome.min.js</text>
</a>
</g>
</g>
<!-- src/client/css/fontawesome&#45;free&#45;5.7.2&#45;web/js/regular.js -->
<g id="node18" class="node"><title>src/client/css/fontawesome&#45;free&#45;5.7.2&#45;web/js/regular.js</title>
<g id="a_node18"><a xlink:href="src/client/css/fontawesome-free-5.7.2-web/js/regular.js" xlink:title="regular.js">
<path fill="#ffffcc" stroke="black" d="M353.5,-363C353.5,-363 310.5,-363 310.5,-363 307.5,-363 304.5,-360 304.5,-357 304.5,-357 304.5,-351 304.5,-351 304.5,-348 307.5,-345 310.5,-345 310.5,-345 353.5,-345 353.5,-345 356.5,-345 359.5,-348 359.5,-351 359.5,-351 359.5,-357 359.5,-357 359.5,-360 356.5,-363 353.5,-363"/>
<text text-anchor="middle" x="332" y="-351.8" font-family="Helvetica,sans-Serif" font-size="9.00">regular.js</text>
</a>
</g>
</g>
<!-- src/client/css/fontawesome&#45;free&#45;5.7.2&#45;web/js/regular.min.js -->
<g id="node19" class="node"><title>src/client/css/fontawesome&#45;free&#45;5.7.2&#45;web/js/regular.min.js</title>
<g id="a_node19"><a xlink:href="src/client/css/fontawesome-free-5.7.2-web/js/regular.min.js" xlink:title="regular.min.js">
<path fill="#ffffcc" stroke="black" d="M362,-333C362,-333 302,-333 302,-333 299,-333 296,-330 296,-327 296,-327 296,-321 296,-321 296,-318 299,-315 302,-315 302,-315 362,-315 362,-315 365,-315 368,-318 368,-321 368,-321 368,-327 368,-327 368,-330 365,-333 362,-333"/>
<text text-anchor="middle" x="332" y="-321.8" font-family="Helvetica,sans-Serif" font-size="9.00">regular.min.js</text>
</a>
</g>
</g>
<!-- src/client/css/fontawesome&#45;free&#45;5.7.2&#45;web/js/solid.js -->
<g id="node20" class="node"><title>src/client/css/fontawesome&#45;free&#45;5.7.2&#45;web/js/solid.js</title>
<g id="a_node20"><a xlink:href="src/client/css/fontawesome-free-5.7.2-web/js/solid.js" xlink:title="solid.js">
<path fill="#ffffcc" stroke="black" d="M353,-303C353,-303 311,-303 311,-303 308,-303 305,-300 305,-297 305,-297 305,-291 305,-291 305,-288 308,-285 311,-285 311,-285 353,-285 353,-285 356,-285 359,-288 359,-291 359,-291 359,-297 359,-297 359,-300 356,-303 353,-303"/>
<text text-anchor="middle" x="332" y="-291.8" font-family="Helvetica,sans-Serif" font-size="9.00">solid.js</text>
</a>
</g>
</g>
<!-- src/client/css/fontawesome&#45;free&#45;5.7.2&#45;web/js/solid.min.js -->
<g id="node21" class="node"><title>src/client/css/fontawesome&#45;free&#45;5.7.2&#45;web/js/solid.min.js</title>
<g id="a_node21"><a xlink:href="src/client/css/fontawesome-free-5.7.2-web/js/solid.min.js" xlink:title="solid.min.js">
<path fill="#ffffcc" stroke="black" d="M357,-273C357,-273 307,-273 307,-273 304,-273 301,-270 301,-267 301,-267 301,-261 301,-261 301,-258 304,-255 307,-255 307,-255 357,-255 357,-255 360,-255 363,-258 363,-261 363,-261 363,-267 363,-267 363,-270 360,-273 357,-273"/>
<text text-anchor="middle" x="332" y="-261.8" font-family="Helvetica,sans-Serif" font-size="9.00">solid.min.js</text>
</a>
</g>
</g>
<!-- src/client/css/fontawesome&#45;free&#45;5.7.2&#45;web/js/v4&#45;shims.js -->
<g id="node22" class="node"><title>src/client/css/fontawesome&#45;free&#45;5.7.2&#45;web/js/v4&#45;shims.js</title>
<g id="a_node22"><a xlink:href="src/client/css/fontawesome-free-5.7.2-web/js/v4-shims.js" xlink:title="v4&#45;shims.js">
<path fill="#ffffcc" stroke="black" d="M357,-243C357,-243 307,-243 307,-243 304,-243 301,-240 301,-237 301,-237 301,-231 301,-231 301,-228 304,-225 307,-225 307,-225 357,-225 357,-225 360,-225 363,-228 363,-231 363,-231 363,-237 363,-237 363,-240 360,-243 357,-243"/>
<text text-anchor="middle" x="332" y="-231.8" font-family="Helvetica,sans-Serif" font-size="9.00">v4&#45;shims.js</text>
</a>
</g>
</g>
<!-- src/client/css/fontawesome&#45;free&#45;5.7.2&#45;web/js/v4&#45;shims.min.js -->
<g id="node23" class="node"><title>src/client/css/fontawesome&#45;free&#45;5.7.2&#45;web/js/v4&#45;shims.min.js</title>
<g id="a_node23"><a xlink:href="src/client/css/fontawesome-free-5.7.2-web/js/v4-shims.min.js" xlink:title="v4&#45;shims.min.js">
<path fill="#ffffcc" stroke="black" d="M366,-213C366,-213 298,-213 298,-213 295,-213 292,-210 292,-207 292,-207 292,-201 292,-201 292,-198 295,-195 298,-195 298,-195 366,-195 366,-195 369,-195 372,-198 372,-201 372,-201 372,-207 372,-207 372,-210 369,-213 366,-213"/>
<text text-anchor="middle" x="332" y="-201.8" font-family="Helvetica,sans-Serif" font-size="9.00">v4&#45;shims.min.js</text>
</a>
</g>
</g>
<!-- src/client/index.js -->
<g id="node24" class="node"><title>src/client/index.js</title>
<g id="a_node24"><a xlink:href="src/client/index.js" xlink:title="index.js">
<path fill="#ffffcc" stroke="black" d="M72,-745C72,-745 30,-745 30,-745 27,-745 24,-742 24,-739 24,-739 24,-733 24,-733 24,-730 27,-727 30,-727 30,-727 72,-727 72,-727 75,-727 78,-730 78,-733 78,-733 78,-739 78,-739 78,-742 75,-745 72,-745"/>
<text text-anchor="middle" x="51" y="-733.8" font-family="Helvetica,sans-Serif" font-size="9.00">index.js</text>
</a>
</g>
</g>
<!-- src/client/index.js&#45;&gt;src/client/containers/Root.js -->
<g id="edge23" class="edge"><title>src/client/index.js&#45;&gt;src/client/containers/Root.js</title>
<path fill="none" stroke="#000000" stroke-width="2" stroke-opacity="0.466667" d="M78.1549,-736C82.454,-736 86.9779,-736 91.4742,-736"/>
<polygon fill="#000000" fill-opacity="0.466667" stroke="#000000" stroke-width="2" stroke-opacity="0.466667" points="91.7969,-739.5 101.797,-736 91.7969,-732.5 91.7969,-739.5"/>
</g>
<!-- src/client/store/reducers.js -->
<g id="node27" class="node"><title>src/client/store/reducers.js</title>
<g id="a_node27"><a xlink:href="src/client/store/reducers.js" xlink:title="reducers.js">
<path fill="#ffffcc" stroke="black" d="M489,-841C489,-841 439,-841 439,-841 436,-841 433,-838 433,-835 433,-835 433,-829 433,-829 433,-826 436,-823 439,-823 439,-823 489,-823 489,-823 492,-823 495,-826 495,-829 495,-829 495,-835 495,-835 495,-838 492,-841 489,-841"/>
<text text-anchor="middle" x="464" y="-829.8" font-family="Helvetica,sans-Serif" font-size="9.00">reducers.js</text>
</a>
</g>
</g>
<!-- src/client/store/reducers.js&#45;&gt;src/client/store/actions.js -->
<g id="edge24" class="edge"><title>src/client/store/reducers.js&#45;&gt;src/client/store/actions.js</title>
<path fill="none" stroke="#000000" stroke-width="2" stroke-opacity="0.466667" d="M495.385,-832C501.35,-832 507.667,-832 513.813,-832"/>
<polygon fill="#000000" fill-opacity="0.466667" stroke="#000000" stroke-width="2" stroke-opacity="0.466667" points="513.903,-835.5 523.903,-832 513.903,-828.5 513.903,-835.5"/>
</g>
<!-- src/client/store/store.js&#45;&gt;src/client/store/reducers.js -->
<g id="edge25" class="edge"><title>src/client/store/store.js&#45;&gt;src/client/store/reducers.js</title>
<path fill="none" stroke="#000000" stroke-width="2" stroke-opacity="0.466667" d="M359.307,-832C377.46,-832 401.942,-832 422.559,-832"/>
<polygon fill="#000000" fill-opacity="0.466667" stroke="#000000" stroke-width="2" stroke-opacity="0.466667" points="422.629,-835.5 432.628,-832 422.628,-828.5 422.629,-835.5"/>
</g>
<!-- src/client/utils/currentTime.js -->
<g id="node30" class="node"><title>src/client/utils/currentTime.js</title>
<g id="a_node30"><a xlink:href="src/client/utils/currentTime.js" xlink:title="currentTime.js">
<path fill="#ffffcc" stroke="black" d="M669,-692C669,-692 607,-692 607,-692 604,-692 601,-689 601,-686 601,-686 601,-680 601,-680 601,-677 604,-674 607,-674 607,-674 669,-674 669,-674 672,-674 675,-677 675,-680 675,-680 675,-686 675,-686 675,-689 672,-692 669,-692"/>
<text text-anchor="middle" x="638" y="-680.8" font-family="Helvetica,sans-Serif" font-size="9.00">currentTime.js</text>
</a>
</g>
</g>
<!-- src/client/utils/onChatMsg.js&#45;&gt;src/client/utils/currentTime.js -->
<g id="edge26" class="edge"><title>src/client/utils/onChatMsg.js&#45;&gt;src/client/utils/currentTime.js</title>
<path fill="none" stroke="#000000" stroke-width="2" stroke-opacity="0.466667" d="M588.336,-683C589.112,-683 589.89,-683 590.671,-683"/>
<polygon fill="#000000" fill-opacity="0.466667" stroke="#000000" stroke-width="2" stroke-opacity="0.466667" points="590.839,-686.5 600.839,-683 590.839,-679.5 590.839,-686.5"/>
</g>
<!-- src/server/server.js -->
<g id="node32" class="node"><title>src/server/server.js</title>
<g id="a_node32"><a xlink:href="src/server/server.js" xlink:title="server.js">
<path fill="#ffffcc" stroke="black" d="M72,-103C72,-103 30,-103 30,-103 27,-103 24,-100 24,-97 24,-97 24,-91 24,-91 24,-88 27,-85 30,-85 30,-85 72,-85 72,-85 75,-85 78,-88 78,-91 78,-91 78,-97 78,-97 78,-100 75,-103 72,-103"/>
<text text-anchor="middle" x="51" y="-91.8" font-family="Helvetica,sans-Serif" font-size="9.00">server.js</text>
</a>
</g>
</g>
<!-- src/server/server.js&#45;&gt;constants/common.js -->
<g id="edge27" class="edge"><title>src/server/server.js&#45;&gt;constants/common.js</title>
<path fill="none" stroke="#000000" stroke-width="2" stroke-opacity="0.466667" d="M55.7541,-84.6814C61.6642,-71.3995 74.5109,-47.475 94,-37 156.338,-3.49478 241.729,-9.55172 291.167,-17.1631"/>
<polygon fill="#000000" fill-opacity="0.466667" stroke="#000000" stroke-width="2" stroke-opacity="0.466667" points="290.715,-20.6357 301.149,-18.7972 291.846,-13.7276 290.715,-20.6357"/>
</g>
<!-- src/server/server.js&#45;&gt;http -->
<g id="edge28" class="edge"><title>src/server/server.js&#45;&gt;http</title>
<path fill="none" stroke="grey" d="M68.4909,-84.8866C78.45,-79.3829 91.3483,-72.2549 102.589,-66.0427"/>
<polygon fill="grey" stroke="grey" points="104.482,-68.9959 111.541,-61.0956 101.096,-62.8692 104.482,-68.9959"/>
</g>
</g>
</svg>
