<?xml version="1.0" encoding="UTF-8" standalone="no"?>
<!DOCTYPE svg PUBLIC "-//W3C//DTD SVG 1.1//EN"
 "http://www.w3.org/Graphics/SVG/1.1/DTD/svg11.dtd">
<!-- Generated by graphviz version 2.38.0 (20140413.2041)
 -->
<!-- Title: dependency&#45;cruiser output Pages: 1 -->
<svg width="654pt" height="660pt"
 viewBox="0.00 0.00 654.00 660.00" xmlns="http://www.w3.org/2000/svg" xmlns:xlink="http://www.w3.org/1999/xlink">
<g id="graph0" class="graph" transform="scale(1 1) rotate(0) translate(4 656)">
<title>dependency&#45;cruiser output</title>
<polygon fill="white" stroke="none" points="-4,4 -4,-656 650,-656 650,4 -4,4"/>
<g id="clust1" class="cluster"><title>cluster_constants</title>
<path fill="#ffffff" stroke="black" stroke-width="2" d="M359.5,-8C359.5,-8 412.5,-8 412.5,-8 418.5,-8 424.5,-14 424.5,-20 424.5,-20 424.5,-48 424.5,-48 424.5,-54 418.5,-60 412.5,-60 412.5,-60 359.5,-60 359.5,-60 353.5,-60 347.5,-54 347.5,-48 347.5,-48 347.5,-20 347.5,-20 347.5,-14 353.5,-8 359.5,-8"/>
<text text-anchor="middle" x="386" y="-48.8" font-family="Helvetica,sans-Serif" font-weight="bold" font-size="9.00">constants</text>
</g>
<g id="clust2" class="cluster"><title>cluster_src</title>
<path fill="#ffffff" stroke="black" stroke-width="2" d="M20,-68C20,-68 626,-68 626,-68 632,-68 638,-74 638,-80 638,-80 638,-632 638,-632 638,-638 632,-644 626,-644 626,-644 20,-644 20,-644 14,-644 8,-638 8,-632 8,-632 8,-80 8,-80 8,-74 14,-68 20,-68"/>
<text text-anchor="middle" x="323" y="-632.8" font-family="Helvetica,sans-Serif" font-weight="bold" font-size="9.00">src</text>
</g>
<g id="clust3" class="cluster"><title>cluster_src/client</title>
<path fill="#ffffff" stroke="black" stroke-width="2" d="M28,-136C28,-136 618,-136 618,-136 624,-136 630,-142 630,-148 630,-148 630,-606 630,-606 630,-612 624,-618 618,-618 618,-618 28,-618 28,-618 22,-618 16,-612 16,-606 16,-606 16,-148 16,-148 16,-142 22,-136 28,-136"/>
<text text-anchor="middle" x="323" y="-606.8" font-family="Helvetica,sans-Serif" font-weight="bold" font-size="9.00">client</text>
</g>
<g id="clust4" class="cluster"><title>cluster_src/client/api</title>
<path fill="#ffffff" stroke="black" stroke-width="2" d="M467.5,-510C467.5,-510 600,-510 600,-510 606,-510 612,-516 612,-522 612,-522 612,-580 612,-580 612,-586 606,-592 600,-592 600,-592 467.5,-592 467.5,-592 461.5,-592 455.5,-586 455.5,-580 455.5,-580 455.5,-522 455.5,-522 455.5,-516 461.5,-510 467.5,-510"/>
<text text-anchor="middle" x="533.75" y="-580.8" font-family="Helvetica,sans-Serif" font-weight="bold" font-size="9.00">api</text>
</g>
<g id="clust5" class="cluster"><title>cluster_src/client/components</title>
<path fill="#ffffff" stroke="black" stroke-width="2" d="M251,-144C251,-144 409,-144 409,-144 415,-144 421,-150 421,-156 421,-156 421,-304 421,-304 421,-310 415,-316 409,-316 409,-316 251,-316 251,-316 245,-316 239,-310 239,-304 239,-304 239,-156 239,-156 239,-150 245,-144 251,-144"/>
<text text-anchor="middle" x="330" y="-304.8" font-family="Helvetica,sans-Serif" font-weight="bold" font-size="9.00">components</text>
</g>
<g id="clust6" class="cluster"><title>cluster_src/client/containers</title>
<path fill="#ffffff" stroke="black" stroke-width="2" d="M106,-249C106,-249 219,-249 219,-249 225,-249 231,-255 231,-261 231,-261 231,-289 231,-289 231,-295 225,-301 219,-301 219,-301 106,-301 106,-301 100,-301 94,-295 94,-289 94,-289 94,-261 94,-261 94,-255 100,-249 106,-249"/>
<text text-anchor="middle" x="162.5" y="-289.8" font-family="Helvetica,sans-Serif" font-weight="bold" font-size="9.00">containers</text>
</g>
<g id="clust7" class="cluster"><title>cluster_src/client/css</title>
<path fill="#ffffff" stroke="black" stroke-width="2" d="M346,-324C346,-324 426,-324 426,-324 432,-324 438,-330 438,-336 438,-336 438,-394 438,-394 438,-400 432,-406 426,-406 426,-406 346,-406 346,-406 340,-406 334,-400 334,-394 334,-394 334,-336 334,-336 334,-330 340,-324 346,-324"/>
<text text-anchor="middle" x="386" y="-394.8" font-family="Helvetica,sans-Serif" font-weight="bold" font-size="9.00">css</text>
</g>
<g id="clust8" class="cluster"><title>cluster_src/client/store</title>
<path fill="#ffffff" stroke="black" stroke-width="2" d="M256.5,-420C256.5,-420 514,-420 514,-420 520,-420 526,-426 526,-432 526,-432 526,-490 526,-490 526,-496 520,-502 514,-502 514,-502 256.5,-502 256.5,-502 250.5,-502 244.5,-496 244.5,-490 244.5,-490 244.5,-432 244.5,-432 244.5,-426 250.5,-420 256.5,-420"/>
<text text-anchor="middle" x="385.25" y="-490.8" font-family="Helvetica,sans-Serif" font-weight="bold" font-size="9.00">store</text>
</g>
<g id="clust9" class="cluster"><title>cluster_src/client/utils</title>
<path fill="#ffffff" stroke="black" stroke-width="2" d="M458,-157C458,-157 610,-157 610,-157 616,-157 622,-163 622,-169 622,-169 622,-227 622,-227 622,-233 616,-239 610,-239 610,-239 458,-239 458,-239 452,-239 446,-233 446,-227 446,-227 446,-169 446,-169 446,-163 452,-157 458,-157"/>
<text text-anchor="middle" x="534" y="-227.8" font-family="Helvetica,sans-Serif" font-weight="bold" font-size="9.00">utils</text>
</g>
<g id="clust10" class="cluster"><title>cluster_src/server</title>
<path fill="#ffffff" stroke="black" stroke-width="2" d="M28,-76C28,-76 74,-76 74,-76 80,-76 86,-82 86,-88 86,-88 86,-116 86,-116 86,-122 80,-128 74,-128 74,-128 28,-128 28,-128 22,-128 16,-122 16,-116 16,-116 16,-88 16,-88 16,-82 22,-76 28,-76"/>
<text text-anchor="middle" x="51" y="-116.8" font-family="Helvetica,sans-Serif" font-weight="bold" font-size="9.00">server</text>
</g>
<!-- constants/common.js -->
<g id="node1" class="node"><title>constants/common.js</title>
<g id="a_node1"><a xlink:href="constants/common.js" xlink:title="common.js">
<path fill="#ffffcc" stroke="black" d="M410.5,-34C410.5,-34 361.5,-34 361.5,-34 358.5,-34 355.5,-31 355.5,-28 355.5,-28 355.5,-22 355.5,-22 355.5,-19 358.5,-16 361.5,-16 361.5,-16 410.5,-16 410.5,-16 413.5,-16 416.5,-19 416.5,-22 416.5,-22 416.5,-28 416.5,-28 416.5,-31 413.5,-34 410.5,-34"/>
<text text-anchor="middle" x="386" y="-22.8" font-family="Helvetica,sans-Serif" font-size="9.00">common.js</text>
</a>
</g>
</g>
<!-- http -->
<g id="node2" class="node"><title>http</title>
<path fill="#ffffcc" stroke="grey" d="M150,-60C150,-60 108,-60 108,-60 105,-60 102,-57 102,-54 102,-54 102,-48 102,-48 102,-45 105,-42 108,-42 108,-42 150,-42 150,-42 153,-42 156,-45 156,-48 156,-48 156,-54 156,-54 156,-57 153,-60 150,-60"/>
<text text-anchor="middle" x="129" y="-48.8" font-family="Helvetica,sans-Serif" font-size="9.00" fill="grey">http</text>
</g>
<!-- src/client/api/enter.js -->
<g id="node3" class="node"><title>src/client/api/enter.js</title>
<g id="a_node3"><a xlink:href="src/client/api/enter.js" xlink:title="enter.js">
<path fill="#ffffcc" stroke="black" d="M598,-566C598,-566 556,-566 556,-566 553,-566 550,-563 550,-560 550,-560 550,-554 550,-554 550,-551 553,-548 556,-548 556,-548 598,-548 598,-548 601,-548 604,-551 604,-554 604,-554 604,-560 604,-560 604,-563 601,-566 598,-566"/>
<text text-anchor="middle" x="577" y="-554.8" font-family="Helvetica,sans-Serif" font-size="9.00">enter.js</text>
</a>
</g>
</g>
<!-- src/client/api/exit.js -->
<g id="node4" class="node"><title>src/client/api/exit.js</title>
<g id="a_node4"><a xlink:href="src/client/api/exit.js" xlink:title="exit.js">
<path fill="#ffffcc" stroke="black" d="M598,-536C598,-536 556,-536 556,-536 553,-536 550,-533 550,-530 550,-530 550,-524 550,-524 550,-521 553,-518 556,-518 556,-518 598,-518 598,-518 601,-518 604,-521 604,-524 604,-524 604,-530 604,-530 604,-533 601,-536 598,-536"/>
<text text-anchor="middle" x="577" y="-524.8" font-family="Helvetica,sans-Serif" font-size="9.00">exit.js</text>
</a>
</g>
</g>
<!-- src/client/api/index.js -->
<g id="node5" class="node"><title>src/client/api/index.js</title>
<g id="a_node5"><a xlink:href="src/client/api/index.js" xlink:title="index.js">
<path fill="#ffffcc" stroke="black" d="M511.5,-536C511.5,-536 469.5,-536 469.5,-536 466.5,-536 463.5,-533 463.5,-530 463.5,-530 463.5,-524 463.5,-524 463.5,-521 466.5,-518 469.5,-518 469.5,-518 511.5,-518 511.5,-518 514.5,-518 517.5,-521 517.5,-524 517.5,-524 517.5,-530 517.5,-530 517.5,-533 514.5,-536 511.5,-536"/>
<text text-anchor="middle" x="490.5" y="-524.8" font-family="Helvetica,sans-Serif" font-size="9.00">index.js</text>
</a>
</g>
</g>
<!-- src/client/api/index.js&#45;&gt;src/client/api/enter.js -->
<g id="edge1" class="edge"><title>src/client/api/index.js&#45;&gt;src/client/api/enter.js</title>
<path fill="none" stroke="#000000" stroke-width="2" stroke-opacity="0.466667" d="M516.853,-536.001C524.387,-538.676 532.78,-541.656 540.821,-544.51"/>
<polygon fill="#000000" fill-opacity="0.466667" stroke="#000000" stroke-width="2" stroke-opacity="0.466667" points="539.778,-547.854 550.373,-547.902 542.12,-541.258 539.778,-547.854"/>
</g>
<!-- src/client/api/index.js&#45;&gt;src/client/api/exit.js -->
<g id="edge2" class="edge"><title>src/client/api/index.js&#45;&gt;src/client/api/exit.js</title>
<path fill="none" stroke="#000000" stroke-width="2" stroke-opacity="0.466667" d="M517.773,-527C524.688,-527 532.273,-527 539.617,-527"/>
<polygon fill="#000000" fill-opacity="0.466667" stroke="#000000" stroke-width="2" stroke-opacity="0.466667" points="539.743,-530.5 549.743,-527 539.743,-523.5 539.743,-530.5"/>
</g>
<!-- src/client/components/Button.js -->
<g id="node6" class="node"><title>src/client/components/Button.js</title>
<g id="a_node6"><a xlink:href="src/client/components/Button.js" xlink:title="Button.js">
<path fill="#ffffcc" stroke="black" d="M407,-216C407,-216 365,-216 365,-216 362,-216 359,-213 359,-210 359,-210 359,-204 359,-204 359,-201 362,-198 365,-198 365,-198 407,-198 407,-198 410,-198 413,-201 413,-204 413,-204 413,-210 413,-210 413,-213 410,-216 407,-216"/>
<text text-anchor="middle" x="386" y="-204.8" font-family="Helvetica,sans-Serif" font-size="9.00">Button.js</text>
</a>
</g>
</g>
<!-- src/client/store/actions.js -->
<g id="node18" class="node"><title>src/client/store/actions.js</title>
<g id="a_node18"><a xlink:href="src/client/store/actions.js" xlink:title="actions.js">
<path fill="#ffffcc" stroke="black" d="M512,-446C512,-446 469,-446 469,-446 466,-446 463,-443 463,-440 463,-440 463,-434 463,-434 463,-431 466,-428 469,-428 469,-428 512,-428 512,-428 515,-428 518,-431 518,-434 518,-434 518,-440 518,-440 518,-443 515,-446 512,-446"/>
<text text-anchor="middle" x="490.5" y="-434.8" font-family="Helvetica,sans-Serif" font-size="9.00">actions.js</text>
</a>
</g>
</g>
<!-- src/client/components/Button.js&#45;&gt;src/client/store/actions.js -->
<g id="edge3" class="edge"><title>src/client/components/Button.js&#45;&gt;src/client/store/actions.js</title>
<path fill="none" stroke="#000000" stroke-width="2" stroke-opacity="0.466667" d="M413.123,-209.345C422.102,-211.409 431.515,-215.176 438,-222 444.867,-229.226 474.515,-366.363 485.439,-417.762"/>
<polygon fill="#000000" fill-opacity="0.466667" stroke="#000000" stroke-width="2" stroke-opacity="0.466667" points="482.081,-418.803 487.578,-427.86 488.929,-417.352 482.081,-418.803"/>
</g>
<!-- src/client/utils/clearInput.js -->
<g id="node23" class="node"><title>src/client/utils/clearInput.js</title>
<g id="a_node23"><a xlink:href="src/client/utils/clearInput.js" xlink:title="clearInput.js">
<path fill="#ffffcc" stroke="black" d="M517.5,-183C517.5,-183 463.5,-183 463.5,-183 460.5,-183 457.5,-180 457.5,-177 457.5,-177 457.5,-171 457.5,-171 457.5,-168 460.5,-165 463.5,-165 463.5,-165 517.5,-165 517.5,-165 520.5,-165 523.5,-168 523.5,-171 523.5,-171 523.5,-177 523.5,-177 523.5,-180 520.5,-183 517.5,-183"/>
<text text-anchor="middle" x="490.5" y="-171.8" font-family="Helvetica,sans-Serif" font-size="9.00">clearInput.js</text>
</a>
</g>
</g>
<!-- src/client/components/Button.js&#45;&gt;src/client/utils/clearInput.js -->
<g id="edge4" class="edge"><title>src/client/components/Button.js&#45;&gt;src/client/utils/clearInput.js</title>
<path fill="none" stroke="#000000" stroke-width="2" stroke-opacity="0.466667" d="M413.13,-198.587C424.852,-194.814 438.903,-190.29 451.738,-186.157"/>
<polygon fill="#000000" fill-opacity="0.466667" stroke="#000000" stroke-width="2" stroke-opacity="0.466667" points="452.812,-189.489 461.258,-183.092 450.667,-182.826 452.812,-189.489"/>
</g>
<!-- src/client/utils/onChatMsg.js -->
<g id="node25" class="node"><title>src/client/utils/onChatMsg.js</title>
<g id="a_node25"><a xlink:href="src/client/utils/onChatMsg.js" xlink:title="onChatMsg.js">
<path fill="#ffffcc" stroke="black" d="M521,-213C521,-213 460,-213 460,-213 457,-213 454,-210 454,-207 454,-207 454,-201 454,-201 454,-198 457,-195 460,-195 460,-195 521,-195 521,-195 524,-195 527,-198 527,-201 527,-201 527,-207 527,-207 527,-210 524,-213 521,-213"/>
<text text-anchor="middle" x="490.5" y="-201.8" font-family="Helvetica,sans-Serif" font-size="9.00">onChatMsg.js</text>
</a>
</g>
</g>
<!-- src/client/components/Button.js&#45;&gt;src/client/utils/onChatMsg.js -->
<g id="edge5" class="edge"><title>src/client/components/Button.js&#45;&gt;src/client/utils/onChatMsg.js</title>
<path fill="none" stroke="#000000" stroke-width="2" stroke-opacity="0.466667" d="M413.13,-206.235C422.383,-205.964 433.087,-205.651 443.499,-205.346"/>
<polygon fill="#000000" fill-opacity="0.466667" stroke="#000000" stroke-width="2" stroke-opacity="0.466667" points="443.856,-208.838 453.749,-205.046 443.651,-201.841 443.856,-208.838"/>
</g>
<!-- src/client/components/Display.js -->
<g id="node7" class="node"><title>src/client/components/Display.js</title>
<g id="a_node7"><a xlink:href="src/client/components/Display.js" xlink:title="Display.js">
<path fill="#ffffcc" stroke="black" d="M308.5,-170C308.5,-170 264.5,-170 264.5,-170 261.5,-170 258.5,-167 258.5,-164 258.5,-164 258.5,-158 258.5,-158 258.5,-155 261.5,-152 264.5,-152 264.5,-152 308.5,-152 308.5,-152 311.5,-152 314.5,-155 314.5,-158 314.5,-158 314.5,-164 314.5,-164 314.5,-167 311.5,-170 308.5,-170"/>
<text text-anchor="middle" x="286.5" y="-158.8" font-family="Helvetica,sans-Serif" font-size="9.00">Display.js</text>
</a>
</g>
</g>
<!-- src/client/components/Display.js&#45;&gt;constants/common.js -->
<g id="edge6" class="edge"><title>src/client/components/Display.js&#45;&gt;constants/common.js</title>
<path fill="none" stroke="#000000" stroke-width="2" stroke-opacity="0.466667" d="M294.202,-151.652C310.352,-129.125 351.626,-71.5522 372.504,-42.4301"/>
<polygon fill="#000000" fill-opacity="0.466667" stroke="#000000" stroke-width="2" stroke-opacity="0.466667" points="375.526,-44.2216 378.508,-34.0551 369.837,-40.143 375.526,-44.2216"/>
</g>
<!-- src/client/components/Display.js&#45;&gt;src/client/store/actions.js -->
<g id="edge7" class="edge"><title>src/client/components/Display.js&#45;&gt;src/client/store/actions.js</title>
<path fill="none" stroke="#000000" stroke-width="2" stroke-opacity="0.466667" d="M314.505,-167.114C318.936,-169.247 323.04,-172.123 326,-176 336.305,-189.498 322.052,-239.932 334,-252 366.736,-285.065 402.358,-234.09 438,-264 484.137,-302.717 490.026,-380.813 490.095,-417.334"/>
<polygon fill="#000000" fill-opacity="0.466667" stroke="#000000" stroke-width="2" stroke-opacity="0.466667" points="486.592,-417.582 489.957,-427.629 493.591,-417.677 486.592,-417.582"/>
</g>
<!-- src/client/components/Enter.js -->
<g id="node8" class="node"><title>src/client/components/Enter.js</title>
<g id="a_node8"><a xlink:href="src/client/components/Enter.js" xlink:title="Enter.js">
<path fill="#ffffcc" stroke="black" d="M307.5,-230C307.5,-230 265.5,-230 265.5,-230 262.5,-230 259.5,-227 259.5,-224 259.5,-224 259.5,-218 259.5,-218 259.5,-215 262.5,-212 265.5,-212 265.5,-212 307.5,-212 307.5,-212 310.5,-212 313.5,-215 313.5,-218 313.5,-218 313.5,-224 313.5,-224 313.5,-227 310.5,-230 307.5,-230"/>
<text text-anchor="middle" x="286.5" y="-218.8" font-family="Helvetica,sans-Serif" font-size="9.00">Enter.js</text>
</a>
</g>
</g>
<!-- src/client/components/Enter.js&#45;&gt;src/client/store/actions.js -->
<g id="edge8" class="edge"><title>src/client/components/Enter.js&#45;&gt;src/client/store/actions.js</title>
<path fill="none" stroke="#000000" stroke-width="2" stroke-opacity="0.466667" d="M313.84,-227.146C318.443,-229.279 322.781,-232.146 326,-236 337.903,-250.248 320.551,-264.201 334,-277 367.829,-309.196 401.875,-262.404 438,-292 476.465,-323.514 486.221,-385.86 488.681,-417.54"/>
<polygon fill="#000000" fill-opacity="0.466667" stroke="#000000" stroke-width="2" stroke-opacity="0.466667" points="485.199,-417.94 489.297,-427.71 492.186,-417.517 485.199,-417.94"/>
</g>
<!-- src/client/components/Entry.js -->
<g id="node9" class="node"><title>src/client/components/Entry.js</title>
<g id="a_node9"><a xlink:href="src/client/components/Entry.js" xlink:title="Entry.js">
<path fill="#ffffcc" stroke="black" d="M307.5,-200C307.5,-200 265.5,-200 265.5,-200 262.5,-200 259.5,-197 259.5,-194 259.5,-194 259.5,-188 259.5,-188 259.5,-185 262.5,-182 265.5,-182 265.5,-182 307.5,-182 307.5,-182 310.5,-182 313.5,-185 313.5,-188 313.5,-188 313.5,-194 313.5,-194 313.5,-197 310.5,-200 307.5,-200"/>
<text text-anchor="middle" x="286.5" y="-188.8" font-family="Helvetica,sans-Serif" font-size="9.00">Entry.js</text>
</a>
</g>
</g>
<!-- src/client/components/Entry.js&#45;&gt;src/client/components/Button.js -->
<g id="edge12" class="edge"><title>src/client/components/Entry.js&#45;&gt;src/client/components/Button.js</title>
<path fill="none" stroke="#000000" stroke-width="2" stroke-opacity="0.466667" d="M313.628,-195.288C324.448,-197.063 337.178,-199.152 348.868,-201.071"/>
<polygon fill="#000000" fill-opacity="0.466667" stroke="#000000" stroke-width="2" stroke-opacity="0.466667" points="348.365,-204.535 358.8,-202.7 349.498,-197.627 348.365,-204.535"/>
</g>
<!-- src/client/components/Exit.js -->
<g id="node10" class="node"><title>src/client/components/Exit.js</title>
<g id="a_node10"><a xlink:href="src/client/components/Exit.js" xlink:title="Exit.js">
<path fill="#ffffcc" stroke="black" d="M407,-246C407,-246 365,-246 365,-246 362,-246 359,-243 359,-240 359,-240 359,-234 359,-234 359,-231 362,-228 365,-228 365,-228 407,-228 407,-228 410,-228 413,-231 413,-234 413,-234 413,-240 413,-240 413,-243 410,-246 407,-246"/>
<text text-anchor="middle" x="386" y="-234.8" font-family="Helvetica,sans-Serif" font-size="9.00">Exit.js</text>
</a>
</g>
</g>
<!-- src/client/components/Entry.js&#45;&gt;src/client/components/Exit.js -->
<g id="edge13" class="edge"><title>src/client/components/Entry.js&#45;&gt;src/client/components/Exit.js</title>
<path fill="none" stroke="#000000" stroke-width="2" stroke-opacity="0.466667" d="M313.861,-198.251C318.248,-200.268 322.502,-202.81 326,-206 331.875,-211.357 327.902,-216.899 334,-222 338.38,-225.664 343.622,-228.433 349.054,-230.526"/>
<polygon fill="#000000" fill-opacity="0.466667" stroke="#000000" stroke-width="2" stroke-opacity="0.466667" points="348.301,-233.958 358.89,-233.61 350.395,-227.278 348.301,-233.958"/>
</g>
<!-- src/client/components/Entry.js&#45;&gt;src/client/store/actions.js -->
<g id="edge9" class="edge"><title>src/client/components/Entry.js&#45;&gt;src/client/store/actions.js</title>
<path fill="none" stroke="#000000" stroke-width="2" stroke-opacity="0.466667" d="M313.61,-196.831C318.348,-198.991 322.795,-201.95 326,-206 341.873,-226.062 315.945,-244.877 334,-263 366.959,-296.085 402.294,-247.9 438,-278 480.057,-313.453 488.067,-383.587 489.392,-417.599"/>
<polygon fill="#000000" fill-opacity="0.466667" stroke="#000000" stroke-width="2" stroke-opacity="0.466667" points="485.894,-417.73 489.625,-427.646 492.892,-417.568 485.894,-417.73"/>
</g>
<!-- src/client/components/Entry.js&#45;&gt;src/client/utils/clearInput.js -->
<g id="edge10" class="edge"><title>src/client/components/Entry.js&#45;&gt;src/client/utils/clearInput.js</title>
<path fill="none" stroke="#000000" stroke-width="2" stroke-opacity="0.466667" d="M313.555,-188.059C320.217,-187.345 327.37,-186.612 334,-186 372.274,-182.466 415.914,-179.162 447.201,-176.919"/>
<polygon fill="#000000" fill-opacity="0.466667" stroke="#000000" stroke-width="2" stroke-opacity="0.466667" points="447.585,-180.4 457.312,-176.2 447.089,-173.418 447.585,-180.4"/>
</g>
<!-- src/client/components/Entry.js&#45;&gt;src/client/utils/onChatMsg.js -->
<g id="edge11" class="edge"><title>src/client/components/Entry.js&#45;&gt;src/client/utils/onChatMsg.js</title>
<path fill="none" stroke="#000000" stroke-width="2" stroke-opacity="0.466667" d="M313.71,-189.419C343.824,-188.009 394.667,-186.872 438,-192 440.513,-192.297 443.082,-192.67 445.665,-193.098"/>
<polygon fill="#000000" fill-opacity="0.466667" stroke="#000000" stroke-width="2" stroke-opacity="0.466667" points="445.139,-196.56 455.615,-194.981 446.441,-189.682 445.139,-196.56"/>
</g>
<!-- src/client/components/Exit.js&#45;&gt;src/client/store/actions.js -->
<g id="edge14" class="edge"><title>src/client/components/Exit.js&#45;&gt;src/client/store/actions.js</title>
<path fill="none" stroke="#000000" stroke-width="2" stroke-opacity="0.466667" d="M413.048,-241.123C422.019,-243.74 431.446,-248.016 438,-255 481.188,-301.023 488.556,-380.528 489.546,-417.297"/>
<polygon fill="#000000" fill-opacity="0.466667" stroke="#000000" stroke-width="2" stroke-opacity="0.466667" points="486.05,-417.684 489.68,-427.637 493.05,-417.593 486.05,-417.684"/>
</g>
<!-- src/client/components/ListOfUsers.js -->
<g id="node11" class="node"><title>src/client/components/ListOfUsers.js</title>
<g id="a_node11"><a xlink:href="src/client/components/ListOfUsers.js" xlink:title="ListOfUsers.js">
<path fill="#ffffcc" stroke="black" d="M317,-290C317,-290 256,-290 256,-290 253,-290 250,-287 250,-284 250,-284 250,-278 250,-278 250,-275 253,-272 256,-272 256,-272 317,-272 317,-272 320,-272 323,-275 323,-278 323,-278 323,-284 323,-284 323,-287 320,-290 317,-290"/>
<text text-anchor="middle" x="286.5" y="-278.8" font-family="Helvetica,sans-Serif" font-size="9.00">ListOfUsers.js</text>
</a>
</g>
</g>
<!-- src/client/css/bootstrap.min.css -->
<g id="node15" class="node"><title>src/client/css/bootstrap.min.css</title>
<g id="a_node15"><a xlink:href="src/client/css/bootstrap.min.css" xlink:title="bootstrap.min.css">
<path fill="#ffffcc" stroke="black" d="M424,-350C424,-350 348,-350 348,-350 345,-350 342,-347 342,-344 342,-344 342,-338 342,-338 342,-335 345,-332 348,-332 348,-332 424,-332 424,-332 427,-332 430,-335 430,-338 430,-338 430,-344 430,-344 430,-347 427,-350 424,-350"/>
<text text-anchor="middle" x="386" y="-338.8" font-family="Helvetica,sans-Serif" font-size="9.00">bootstrap.min.css</text>
</a>
</g>
</g>
<!-- src/client/components/ListOfUsers.js&#45;&gt;src/client/css/bootstrap.min.css -->
<g id="edge15" class="edge"><title>src/client/components/ListOfUsers.js&#45;&gt;src/client/css/bootstrap.min.css</title>
<path fill="none" stroke="#000000" stroke-width="2" stroke-opacity="0.466667" d="M297.229,-290.319C306.24,-298.603 320.28,-310.66 334,-319 339.226,-322.177 344.993,-325.13 350.711,-327.775"/>
<polygon fill="#000000" fill-opacity="0.466667" stroke="#000000" stroke-width="2" stroke-opacity="0.466667" points="349.622,-331.119 360.187,-331.921 352.428,-324.706 349.622,-331.119"/>
</g>
<!-- src/client/components/ListOfUsers.js&#45;&gt;src/client/store/actions.js -->
<g id="edge16" class="edge"><title>src/client/components/ListOfUsers.js&#45;&gt;src/client/store/actions.js</title>
<path fill="none" stroke="#000000" stroke-width="2" stroke-opacity="0.466667" d="M302.043,-290.063C310.954,-295.214 322.769,-301.346 334,-305 378.471,-319.469 400.85,-292.593 438,-321 469.105,-344.784 481.842,-391.443 486.723,-417.759"/>
<polygon fill="#000000" fill-opacity="0.466667" stroke="#000000" stroke-width="2" stroke-opacity="0.466667" points="483.326,-418.669 488.408,-427.966 490.233,-417.529 483.326,-418.669"/>
</g>
<!-- src/client/components/WhoIsTyping.js -->
<g id="node12" class="node"><title>src/client/components/WhoIsTyping.js</title>
<g id="a_node12"><a xlink:href="src/client/components/WhoIsTyping.js" xlink:title="WhoIsTyping.js">
<path fill="#ffffcc" stroke="black" d="M320,-260C320,-260 253,-260 253,-260 250,-260 247,-257 247,-254 247,-254 247,-248 247,-248 247,-245 250,-242 253,-242 253,-242 320,-242 320,-242 323,-242 326,-245 326,-248 326,-248 326,-254 326,-254 326,-257 323,-260 320,-260"/>
<text text-anchor="middle" x="286.5" y="-248.8" font-family="Helvetica,sans-Serif" font-size="9.00">WhoIsTyping.js</text>
</a>
</g>
</g>
<!-- src/client/components/WhoIsTyping.js&#45;&gt;src/client/store/actions.js -->
<g id="edge17" class="edge"><title>src/client/components/WhoIsTyping.js&#45;&gt;src/client/store/actions.js</title>
<path fill="none" stroke="#000000" stroke-width="2" stroke-opacity="0.466667" d="M318.531,-260.092C321.282,-261.748 323.838,-263.7 326,-266 333.99,-274.5 325.094,-283.465 334,-291 369.653,-321.163 401.387,-277.009 438,-306 473.011,-333.722 484.28,-388.619 487.863,-417.768"/>
<polygon fill="#000000" fill-opacity="0.466667" stroke="#000000" stroke-width="2" stroke-opacity="0.466667" points="484.4,-418.309 488.921,-427.891 491.362,-417.581 484.4,-418.309"/>
</g>
<!-- src/client/containers/App.js -->
<g id="node13" class="node"><title>src/client/containers/App.js</title>
<g id="a_node13"><a xlink:href="src/client/containers/App.js" xlink:title="App.js">
<path fill="#ffffcc" stroke="black" d="M217,-275C217,-275 175,-275 175,-275 172,-275 169,-272 169,-269 169,-269 169,-263 169,-263 169,-260 172,-257 175,-257 175,-257 217,-257 217,-257 220,-257 223,-260 223,-263 223,-263 223,-269 223,-269 223,-272 220,-275 217,-275"/>
<text text-anchor="middle" x="196" y="-263.8" font-family="Helvetica,sans-Serif" font-size="9.00">App.js</text>
</a>
</g>
</g>
<!-- src/client/containers/App.js&#45;&gt;constants/common.js -->
<g id="edge18" class="edge"><title>src/client/containers/App.js&#45;&gt;constants/common.js</title>
<path fill="none" stroke="#000000" stroke-width="2" stroke-opacity="0.466667" d="M198.273,-256.714C201.645,-234.799 212.44,-178.858 239,-141 271.153,-95.1701 326.488,-58.3251 359.014,-39.2389"/>
<polygon fill="#000000" fill-opacity="0.466667" stroke="#000000" stroke-width="2" stroke-opacity="0.466667" points="361.007,-42.1303 367.935,-34.1144 357.521,-36.0605 361.007,-42.1303"/>
</g>
<!-- src/client/containers/App.js&#45;&gt;src/client/components/Display.js -->
<g id="edge19" class="edge"><title>src/client/containers/App.js&#45;&gt;src/client/components/Display.js</title>
<path fill="none" stroke="#000000" stroke-width="2" stroke-opacity="0.466667" d="M198.724,-256.895C202.617,-238.822 213.791,-198.249 239,-176 241.991,-173.36 245.453,-171.184 249.111,-169.39"/>
<polygon fill="#000000" fill-opacity="0.466667" stroke="#000000" stroke-width="2" stroke-opacity="0.466667" points="250.456,-172.622 258.453,-165.673 247.868,-166.118 250.456,-172.622"/>
</g>
<!-- src/client/containers/App.js&#45;&gt;src/client/components/Enter.js -->
<g id="edge20" class="edge"><title>src/client/containers/App.js&#45;&gt;src/client/components/Enter.js</title>
<path fill="none" stroke="#000000" stroke-width="2" stroke-opacity="0.466667" d="M207.806,-256.853C215.954,-250.324 227.633,-241.719 239,-236 242.381,-234.299 245.997,-232.735 249.662,-231.312"/>
<polygon fill="#000000" fill-opacity="0.466667" stroke="#000000" stroke-width="2" stroke-opacity="0.466667" points="251.097,-234.517 259.354,-227.878 248.759,-227.919 251.097,-234.517"/>
</g>
<!-- src/client/containers/App.js&#45;&gt;src/client/components/Entry.js -->
<g id="edge21" class="edge"><title>src/client/containers/App.js&#45;&gt;src/client/components/Entry.js</title>
<path fill="none" stroke="#000000" stroke-width="2" stroke-opacity="0.466667" d="M201.039,-256.87C207.304,-243.736 220.588,-219.596 239,-206 242.284,-203.575 245.976,-201.532 249.808,-199.812"/>
<polygon fill="#000000" fill-opacity="0.466667" stroke="#000000" stroke-width="2" stroke-opacity="0.466667" points="251.342,-202.975 259.465,-196.172 248.873,-196.424 251.342,-202.975"/>
</g>
<!-- src/client/containers/App.js&#45;&gt;src/client/components/ListOfUsers.js -->
<g id="edge22" class="edge"><title>src/client/containers/App.js&#45;&gt;src/client/components/ListOfUsers.js</title>
<path fill="none" stroke="#000000" stroke-width="2" stroke-opacity="0.466667" d="M223.074,-270.419C228.3,-271.305 233.936,-272.26 239.608,-273.222"/>
<polygon fill="#000000" fill-opacity="0.466667" stroke="#000000" stroke-width="2" stroke-opacity="0.466667" points="239.33,-276.724 249.775,-274.945 240.5,-269.823 239.33,-276.724"/>
</g>
<!-- src/client/containers/App.js&#45;&gt;src/client/components/WhoIsTyping.js -->
<g id="edge23" class="edge"><title>src/client/containers/App.js&#45;&gt;src/client/components/WhoIsTyping.js</title>
<path fill="none" stroke="#000000" stroke-width="2" stroke-opacity="0.466667" d="M223.074,-261.581C227.378,-260.851 231.959,-260.075 236.609,-259.287"/>
<polygon fill="#000000" fill-opacity="0.466667" stroke="#000000" stroke-width="2" stroke-opacity="0.466667" points="237.545,-262.678 246.819,-257.556 236.375,-255.776 237.545,-262.678"/>
</g>
<!-- src/client/css/css.styl -->
<g id="node16" class="node"><title>src/client/css/css.styl</title>
<g id="a_node16"><a xlink:href="src/client/css/css.styl" xlink:title="css.styl">
<path fill="#ffffcc" stroke="black" d="M407,-380C407,-380 365,-380 365,-380 362,-380 359,-377 359,-374 359,-374 359,-368 359,-368 359,-365 362,-362 365,-362 365,-362 407,-362 407,-362 410,-362 413,-365 413,-368 413,-368 413,-374 413,-374 413,-377 410,-380 407,-380"/>
<text text-anchor="middle" x="386" y="-368.8" font-family="Helvetica,sans-Serif" font-size="9.00">css.styl</text>
</a>
</g>
</g>
<!-- src/client/containers/App.js&#45;&gt;src/client/css/css.styl -->
<g id="edge24" class="edge"><title>src/client/containers/App.js&#45;&gt;src/client/css/css.styl</title>
<path fill="none" stroke="#000000" stroke-width="2" stroke-opacity="0.466667" d="M202.109,-275.095C209.069,-286.742 222.567,-306.865 239,-319 271.963,-343.34 317.373,-357.123 348.757,-364.296"/>
<polygon fill="#000000" fill-opacity="0.466667" stroke="#000000" stroke-width="2" stroke-opacity="0.466667" points="348.31,-367.78 358.824,-366.481 349.794,-360.939 348.31,-367.78"/>
</g>
<!-- src/client/containers/App.js&#45;&gt;src/client/store/actions.js -->
<g id="edge25" class="edge"><title>src/client/containers/App.js&#45;&gt;src/client/store/actions.js</title>
<path fill="none" stroke="#000000" stroke-width="2" stroke-opacity="0.466667" d="M200.46,-275.395C206.482,-290.825 220.081,-321.922 239,-343 273.342,-381.26 285.989,-390.612 334,-409 377.5,-425.661 392.383,-412.568 438,-422 443.002,-423.034 448.224,-424.314 453.342,-425.686"/>
<polygon fill="#000000" fill-opacity="0.466667" stroke="#000000" stroke-width="2" stroke-opacity="0.466667" points="452.399,-429.056 462.973,-428.399 454.297,-422.318 452.399,-429.056"/>
</g>
<!-- src/client/containers/Root.js -->
<g id="node14" class="node"><title>src/client/containers/Root.js</title>
<g id="a_node14"><a xlink:href="src/client/containers/Root.js" xlink:title="Root.js">
<path fill="#ffffcc" stroke="black" d="M150,-275C150,-275 108,-275 108,-275 105,-275 102,-272 102,-269 102,-269 102,-263 102,-263 102,-260 105,-257 108,-257 108,-257 150,-257 150,-257 153,-257 156,-260 156,-263 156,-263 156,-269 156,-269 156,-272 153,-275 150,-275"/>
<text text-anchor="middle" x="129" y="-263.8" font-family="Helvetica,sans-Serif" font-size="9.00">Root.js</text>
</a>
</g>
</g>
<!-- src/client/containers/Root.js&#45;&gt;src/client/containers/App.js -->
<g id="edge28" class="edge"><title>src/client/containers/Root.js&#45;&gt;src/client/containers/App.js</title>
<path fill="none" stroke="#000000" stroke-width="2" stroke-opacity="0.466667" d="M156.063,-266C156.991,-266 157.925,-266 158.864,-266"/>
<polygon fill="#000000" fill-opacity="0.466667" stroke="#000000" stroke-width="2" stroke-opacity="0.466667" points="158.931,-269.5 168.931,-266 158.931,-262.5 158.931,-269.5"/>
</g>
<!-- src/client/store/initialState.js -->
<g id="node19" class="node"><title>src/client/store/initialState.js</title>
<g id="a_node19"><a xlink:href="src/client/store/initialState.js" xlink:title="initialState.js">
<path fill="#ffffcc" stroke="black" d="M314.5,-446C314.5,-446 258.5,-446 258.5,-446 255.5,-446 252.5,-443 252.5,-440 252.5,-440 252.5,-434 252.5,-434 252.5,-431 255.5,-428 258.5,-428 258.5,-428 314.5,-428 314.5,-428 317.5,-428 320.5,-431 320.5,-434 320.5,-434 320.5,-440 320.5,-440 320.5,-443 317.5,-446 314.5,-446"/>
<text text-anchor="middle" x="286.5" y="-434.8" font-family="Helvetica,sans-Serif" font-size="9.00">initialState.js</text>
</a>
</g>
</g>
<!-- src/client/containers/Root.js&#45;&gt;src/client/store/initialState.js -->
<g id="edge26" class="edge"><title>src/client/containers/Root.js&#45;&gt;src/client/store/initialState.js</title>
<path fill="none" stroke="#000000" stroke-width="2" stroke-opacity="0.466667" d="M134.23,-275.349C146.586,-301.666 185.175,-377.178 239,-419 241.034,-420.58 243.223,-422.036 245.503,-423.375"/>
<polygon fill="#000000" fill-opacity="0.466667" stroke="#000000" stroke-width="2" stroke-opacity="0.466667" points="244.116,-426.596 254.62,-427.979 247.271,-420.347 244.116,-426.596"/>
</g>
<!-- src/client/store/store.js -->
<g id="node22" class="node"><title>src/client/store/store.js</title>
<g id="a_node22"><a xlink:href="src/client/store/store.js" xlink:title="store.js">
<path fill="#ffffcc" stroke="black" d="M307.5,-476C307.5,-476 265.5,-476 265.5,-476 262.5,-476 259.5,-473 259.5,-470 259.5,-470 259.5,-464 259.5,-464 259.5,-461 262.5,-458 265.5,-458 265.5,-458 307.5,-458 307.5,-458 310.5,-458 313.5,-461 313.5,-464 313.5,-464 313.5,-470 313.5,-470 313.5,-473 310.5,-476 307.5,-476"/>
<text text-anchor="middle" x="286.5" y="-464.8" font-family="Helvetica,sans-Serif" font-size="9.00">store.js</text>
</a>
</g>
</g>
<!-- src/client/containers/Root.js&#45;&gt;src/client/store/store.js -->
<g id="edge27" class="edge"><title>src/client/containers/Root.js&#45;&gt;src/client/store/store.js</title>
<path fill="none" stroke="#000000" stroke-width="2" stroke-opacity="0.466667" d="M131.737,-275.07C135.846,-295.024 147.47,-343.756 169,-379 192.433,-417.359 200.897,-428.153 239,-452 242.382,-454.116 246.09,-455.962 249.892,-457.564"/>
<polygon fill="#000000" fill-opacity="0.466667" stroke="#000000" stroke-width="2" stroke-opacity="0.466667" points="248.805,-460.893 259.398,-461.061 251.222,-454.323 248.805,-460.893"/>
</g>
<!-- src/client/index.js -->
<g id="node17" class="node"><title>src/client/index.js</title>
<g id="a_node17"><a xlink:href="src/client/index.js" xlink:title="index.js">
<path fill="#ffffcc" stroke="black" d="M72,-275C72,-275 30,-275 30,-275 27,-275 24,-272 24,-269 24,-269 24,-263 24,-263 24,-260 27,-257 30,-257 30,-257 72,-257 72,-257 75,-257 78,-260 78,-263 78,-263 78,-269 78,-269 78,-272 75,-275 72,-275"/>
<text text-anchor="middle" x="51" y="-263.8" font-family="Helvetica,sans-Serif" font-size="9.00">index.js</text>
</a>
</g>
</g>
<!-- src/client/index.js&#45;&gt;src/client/containers/Root.js -->
<g id="edge29" class="edge"><title>src/client/index.js&#45;&gt;src/client/containers/Root.js</title>
<path fill="none" stroke="#000000" stroke-width="2" stroke-opacity="0.466667" d="M78.1549,-266C82.454,-266 86.9779,-266 91.4742,-266"/>
<polygon fill="#000000" fill-opacity="0.466667" stroke="#000000" stroke-width="2" stroke-opacity="0.466667" points="91.7969,-269.5 101.797,-266 91.7969,-262.5 91.7969,-269.5"/>
</g>
<!-- src/client/store/reducers.js -->
<g id="node20" class="node"><title>src/client/store/reducers.js</title>
<g id="a_node20"><a xlink:href="src/client/store/reducers.js" xlink:title="reducers.js">
<path fill="#ffffcc" stroke="black" d="M411,-446C411,-446 361,-446 361,-446 358,-446 355,-443 355,-440 355,-440 355,-434 355,-434 355,-431 358,-428 361,-428 361,-428 411,-428 411,-428 414,-428 417,-431 417,-434 417,-434 417,-440 417,-440 417,-443 414,-446 411,-446"/>
<text text-anchor="middle" x="386" y="-434.8" font-family="Helvetica,sans-Serif" font-size="9.00">reducers.js</text>
</a>
</g>
</g>
<!-- src/client/store/reducers.js&#45;&gt;src/client/store/actions.js -->
<g id="edge30" class="edge"><title>src/client/store/reducers.js&#45;&gt;src/client/store/actions.js</title>
<path fill="none" stroke="#000000" stroke-width="2" stroke-opacity="0.466667" d="M417.199,-437C428.321,-437 441.044,-437 452.686,-437"/>
<polygon fill="#000000" fill-opacity="0.466667" stroke="#000000" stroke-width="2" stroke-opacity="0.466667" points="452.995,-440.5 462.995,-437 452.995,-433.5 452.995,-440.5"/>
</g>
<!-- src/client/store/sagas.js -->
<g id="node21" class="node"><title>src/client/store/sagas.js</title>
<g id="a_node21"><a xlink:href="src/client/store/sagas.js" xlink:title="sagas.js">
<path fill="#ffffcc" stroke="black" d="M407,-476C407,-476 365,-476 365,-476 362,-476 359,-473 359,-470 359,-470 359,-464 359,-464 359,-461 362,-458 365,-458 365,-458 407,-458 407,-458 410,-458 413,-461 413,-464 413,-464 413,-470 413,-470 413,-473 410,-476 407,-476"/>
<text text-anchor="middle" x="386" y="-464.8" font-family="Helvetica,sans-Serif" font-size="9.00">sagas.js</text>
</a>
</g>
</g>
<!-- src/client/store/sagas.js&#45;&gt;src/client/api/index.js -->
<g id="edge31" class="edge"><title>src/client/store/sagas.js&#45;&gt;src/client/api/index.js</title>
<path fill="none" stroke="#000000" stroke-width="2" stroke-opacity="0.466667" d="M400.344,-476.161C412.144,-484.124 429.931,-495.795 446,-505 450.957,-507.839 456.324,-510.711 461.54,-513.4"/>
<polygon fill="#000000" fill-opacity="0.466667" stroke="#000000" stroke-width="2" stroke-opacity="0.466667" points="460.142,-516.615 470.646,-517.998 463.297,-510.367 460.142,-516.615"/>
</g>
<!-- src/client/store/sagas.js&#45;&gt;src/client/store/actions.js -->
<g id="edge32" class="edge"><title>src/client/store/sagas.js&#45;&gt;src/client/store/actions.js</title>
<path fill="none" stroke="#000000" stroke-width="2" stroke-opacity="0.466667" d="M413.13,-459.352C425.23,-455.811 439.812,-451.543 452.977,-447.69"/>
<polygon fill="#000000" fill-opacity="0.466667" stroke="#000000" stroke-width="2" stroke-opacity="0.466667" points="454.089,-451.011 462.703,-444.843 452.123,-444.293 454.089,-451.011"/>
</g>
<!-- src/client/store/store.js&#45;&gt;src/client/store/reducers.js -->
<g id="edge33" class="edge"><title>src/client/store/store.js&#45;&gt;src/client/store/reducers.js</title>
<path fill="none" stroke="#000000" stroke-width="2" stroke-opacity="0.466667" d="M313.531,-458.471C320.193,-456.325 327.353,-454.049 334,-452 337.561,-450.902 341.267,-449.778 344.984,-448.662"/>
<polygon fill="#000000" fill-opacity="0.466667" stroke="#000000" stroke-width="2" stroke-opacity="0.466667" points="346.171,-451.961 354.757,-445.754 344.174,-445.251 346.171,-451.961"/>
</g>
<!-- src/client/store/store.js&#45;&gt;src/client/store/sagas.js -->
<g id="edge34" class="edge"><title>src/client/store/store.js&#45;&gt;src/client/store/sagas.js</title>
<path fill="none" stroke="#000000" stroke-width="2" stroke-opacity="0.466667" d="M313.628,-467C324.339,-467 336.921,-467 348.514,-467"/>
<polygon fill="#000000" fill-opacity="0.466667" stroke="#000000" stroke-width="2" stroke-opacity="0.466667" points="348.8,-470.5 358.8,-467 348.8,-463.5 348.8,-470.5"/>
</g>
<!-- src/client/utils/currentTime.js -->
<g id="node24" class="node"><title>src/client/utils/currentTime.js</title>
<g id="a_node24"><a xlink:href="src/client/utils/currentTime.js" xlink:title="currentTime.js">
<path fill="#ffffcc" stroke="black" d="M608,-213C608,-213 546,-213 546,-213 543,-213 540,-210 540,-207 540,-207 540,-201 540,-201 540,-198 543,-195 546,-195 546,-195 608,-195 608,-195 611,-195 614,-198 614,-201 614,-201 614,-207 614,-207 614,-210 611,-213 608,-213"/>
<text text-anchor="middle" x="577" y="-201.8" font-family="Helvetica,sans-Serif" font-size="9.00">currentTime.js</text>
</a>
</g>
</g>
<!-- src/client/utils/onChatMsg.js&#45;&gt;src/client/utils/currentTime.js -->
<g id="edge35" class="edge"><title>src/client/utils/onChatMsg.js&#45;&gt;src/client/utils/currentTime.js</title>
<path fill="none" stroke="#000000" stroke-width="2" stroke-opacity="0.466667" d="M527.336,-204C528.112,-204 528.89,-204 529.671,-204"/>
<polygon fill="#000000" fill-opacity="0.466667" stroke="#000000" stroke-width="2" stroke-opacity="0.466667" points="529.839,-207.5 539.839,-204 529.839,-200.5 529.839,-207.5"/>
</g>
<!-- src/server/server.js -->
<g id="node26" class="node"><title>src/server/server.js</title>
<g id="a_node26"><a xlink:href="src/server/server.js" xlink:title="server.js">
<path fill="#ffffcc" stroke="black" d="M72,-102C72,-102 30,-102 30,-102 27,-102 24,-99 24,-96 24,-96 24,-90 24,-90 24,-87 27,-84 30,-84 30,-84 72,-84 72,-84 75,-84 78,-87 78,-90 78,-90 78,-96 78,-96 78,-99 75,-102 72,-102"/>
<text text-anchor="middle" x="51" y="-90.8" font-family="Helvetica,sans-Serif" font-size="9.00">server.js</text>
</a>
</g>
</g>
<!-- src/server/server.js&#45;&gt;constants/common.js -->
<g id="edge36" class="edge"><title>src/server/server.js&#45;&gt;constants/common.js</title>
<path fill="none" stroke="#000000" stroke-width="2" stroke-opacity="0.466667" d="M55.7365,-83.6483C61.6246,-70.3252 74.4442,-46.35 94,-36 174.724,6.72353 286.43,-5.37318 345.193,-16.1948"/>
<polygon fill="#000000" fill-opacity="0.466667" stroke="#000000" stroke-width="2" stroke-opacity="0.466667" points="344.705,-19.6652 355.186,-18.1181 346.028,-12.7913 344.705,-19.6652"/>
</g>
<!-- src/server/server.js&#45;&gt;http -->
<g id="edge37" class="edge"><title>src/server/server.js&#45;&gt;http</title>
<path fill="none" stroke="grey" d="M68.4909,-83.8866C78.45,-78.3829 91.3483,-71.2549 102.589,-65.0427"/>
<polygon fill="grey" stroke="grey" points="104.482,-67.9959 111.541,-60.0956 101.096,-61.8692 104.482,-67.9959"/>
</g>
</g>
</svg>
